<svg xmlns="http://www.w3.org/2000/svg" xmlns:xlink="http://www.w3.org/1999/xlink" contentStyleType="text/css" data-diagram-type="SEQUENCE" height="531px" preserveAspectRatio="none" style="width:972px;height:531px;background:#FFFFFF;" version="1.1" viewBox="0 0 972 531" width="972px" zoomAndPan="magnify"><defs/><g><rect fill="#D9E8C8" height="519.8203" style="stroke:#181818;stroke-width:0.5;" width="343.54" x="398.176" y="6"/><text fill="#000000" font-family="sans-serif" font-size="13" font-weight="bold" lengthAdjust="spacing" textLength="169.9648" x="482.7007" y="18.0669">SCP / User Agent proxy</text><g><title>..SCU..</title><rect fill="#000000" fill-opacity="0.00000" height="463.3906" width="8" x="132.3613" y="56.4297"/><line style="stroke:#181818;stroke-width:0.5;stroke-dasharray:5,5;" x1="135.8613" x2="135.8613" y1="56.4297" y2="519.8203"/></g><g><title/><rect fill="#FFFFFF" height="455.3906" style="stroke:#181818;stroke-width:1;" width="10" x="130.8613" y="64.4297"/></g><g><title>SCP</title><rect fill="#000000" fill-opacity="0.00000" height="463.3906" width="8" x="448.0215" y="56.4297"/><line style="stroke:#181818;stroke-width:0.5;stroke-dasharray:5,5;" x1="451.5215" x2="451.5215" y1="56.4297" y2="519.8203"/></g><g><title/><rect fill="#FFFFFF" height="416.2578" style="stroke:#181818;stroke-width:1;" width="10" x="446.5215" y="85.5625"/></g><g><title>User Agent</title><rect fill="#000000" fill-opacity="0.00000" height="463.3906" width="8" x="659.5229" y="56.4297"/><line style="stroke:#181818;stroke-width:0.5;stroke-dasharray:5,5;" x1="663.0229" x2="663.0229" y1="56.4297" y2="519.8203"/></g><g><title/><rect fill="#FFFFFF" height="117.6641" style="stroke:#181818;stroke-width:1;" width="10" x="658.0229" y="296.7578"/></g><g><title>..Origin Server..</title><rect fill="#000000" fill-opacity="0.00000" height="463.3906" width="8" x="903.5435" y="56.4297"/><line style="stroke:#181818;stroke-width:0.5;stroke-dasharray:5,5;" x1="907.0435" x2="907.0435" y1="56.4297" y2="519.8203"/></g><g><title/><rect fill="#FFFFFF" height="29.1328" style="stroke:#181818;stroke-width:1;" width="10" x="902.0435" y="356.1563"/></g><rect fill="#A2C777" height="30.2969" rx="2.5" ry="2.5" style="stroke:#181818;stroke-width:0.5;" width="45.7256" x="112.9985" y="25.1328"/><text fill="#000000" font-family="sans-serif" font-size="14" font-weight="bold" lengthAdjust="spacing" textLength="31.7256" x="119.9985" y="45.1279">SCU</text><rect fill="#A2C777" height="30.2969" rx="2.5" ry="2.5" style="stroke:#181818;stroke-width:0.5;" width="41.1045" x="430.9692" y="25.1328"/><text fill="#000000" font-family="sans-serif" font-size="14" lengthAdjust="spacing" textLength="27.1045" x="437.9692" y="45.1279">SCP</text><rect fill="#A2C777" height="30.2969" rx="2.5" ry="2.5" style="stroke:#181818;stroke-width:0.5;" width="91.7998" x="617.123" y="25.1328"/><text fill="#000000" font-family="sans-serif" font-size="14" lengthAdjust="spacing" textLength="77.7998" x="624.123" y="45.1279">User Agent</text><rect fill="#A2C777" height="30.2969" rx="2.5" ry="2.5" style="stroke:#181818;stroke-width:0.5;" width="119.2734" x="847.4067" y="25.1328"/><text fill="#000000" font-family="sans-serif" font-size="14" font-weight="bold" lengthAdjust="spacing" textLength="105.2734" x="854.4067" y="45.1279">Origin Server</text><polygon fill="#181818" points="434.5215,81.5625,444.5215,85.5625,434.5215,89.5625" style="stroke:#181818;stroke-width:1;"/><line style="stroke:#181818;stroke-width:1;" x1="140.8613" x2="440.5215" y1="85.5625" y2="85.5625"/><text fill="#000000" font-family="sans-serif" font-size="13" lengthAdjust="spacing" textLength="286.6602" x="147.8613" y="80.4966">A-ASSOCIATE-RQ( 1.2.840.10008.3.1.2.3.3 )</text><polygon fill="#181818" points="151.8613,110.6953,141.8613,114.6953,151.8613,118.6953" style="stroke:#181818;stroke-width:1;"/><line style="stroke:#181818;stroke-width:1;stroke-dasharray:2,2;" x1="145.8613" x2="445.5215" y1="114.6953" y2="114.6953"/><text fill="#000000" font-family="sans-serif" font-size="13" lengthAdjust="spacing" textLength="109.8335" x="157.8613" y="109.6294">A-ASSOCIATE-AC</text><polygon fill="#181818" points="434.5215,154.9609,444.5215,158.9609,434.5215,162.9609" style="stroke:#181818;stroke-width:1;"/><line style="stroke:#181818;stroke-width:1;" x1="140.8613" x2="440.5215" y1="158.9609" y2="158.9609"/><text fill="#000000" font-family="sans-serif" font-size="13" lengthAdjust="spacing" textLength="260.2031" x="147.8613" y="138.7622">N-CREATE-RQ( 1.2.840.10008.3.1.2.3.3,</text><text fill="#000000" font-family="sans-serif" font-size="13" font-style="italic" lengthAdjust="spacing" textLength="63.1973" x="147.8613" y="153.895">MPPS-UID</text><text fill="#000000" font-family="sans-serif" font-size="13" lengthAdjust="spacing" textLength="29.8657" x="211.0586" y="153.895">, ... )</text><path d="M10,127.6953 L10,167.6953 L130,167.6953 L130,137.6953 L120,127.6953 L10,127.6953" fill="#ECF4E4" style="stroke:#181818;stroke-width:0.5;"/><path d="M120,127.6953 L120,137.6953 L130,137.6953 L120,127.6953" fill="#ECF4E4" style="stroke:#181818;stroke-width:0.5;"/><text fill="#000000" font-family="sans-serif" font-size="13" lengthAdjust="spacing" textLength="99.8613" x="16" y="144.7622">[PS3.4, F.7.2.1]</text><text fill="#000000" font-family="sans-serif" font-size="13" lengthAdjust="spacing" textLength="43.4814" x="16" y="159.895">Create</text><line style="stroke:#181818;stroke-width:1;" x1="456.5215" x2="498.5215" y1="224.3594" y2="224.3594"/><line style="stroke:#181818;stroke-width:1;" x1="498.5215" x2="498.5215" y1="224.3594" y2="237.3594"/><line style="stroke:#181818;stroke-width:1;" x1="457.5215" x2="498.5215" y1="237.3594" y2="237.3594"/><polygon fill="#181818" points="467.5215,233.3594,457.5215,237.3594,467.5215,241.3594" style="stroke:#181818;stroke-width:1;"/><text fill="#000000" font-family="sans-serif" font-size="13" lengthAdjust="spacing" textLength="112.3154" x="463.5215" y="189.0278">convert DIMSE to</text><text fill="#000000" font-family="sans-serif" font-size="13" lengthAdjust="spacing" textLength="150.7886" x="463.5215" y="204.1606">DICOMweb parameters</text><text fill="#000000" font-family="sans-serif" font-size="13" lengthAdjust="spacing" textLength="80.2852" x="463.5215" y="219.2935">and payload</text><polygon fill="#181818" points="646.0229,292.7578,656.0229,296.7578,646.0229,300.7578" style="stroke:#181818;stroke-width:1;"/><line style="stroke:#181818;stroke-width:1;" x1="456.5215" x2="652.0229" y1="296.7578" y2="296.7578"/><text fill="#000000" font-family="sans-serif" font-size="13" lengthAdjust="spacing" textLength="153.5815" x="463.5215" y="261.4263">perform Create request</text><text fill="#000000" font-family="sans-serif" font-size="13" lengthAdjust="spacing" textLength="182.5015" x="463.5215" y="276.5591">with DICOMweb parameters</text><text fill="#000000" font-family="sans-serif" font-size="13" lengthAdjust="spacing" textLength="80.2852" x="463.5215" y="291.6919">and payload</text><polygon fill="#181818" points="890.0435,352.1563,900.0435,356.1563,890.0435,360.1563" style="stroke:#181818;stroke-width:1;"/><line style="stroke:#181818;stroke-width:1;" x1="668.0229" x2="896.0435" y1="356.1563" y2="356.1563"/><text fill="#000000" font-family="sans-serif" font-size="13" lengthAdjust="spacing" textLength="215.0205" x="675.0229" y="320.8247">HTTP POST /modality-performed-</text><text fill="#000000" font-family="sans-serif" font-size="13" lengthAdjust="spacing" textLength="106.1138" x="675.0229" y="335.9575">procedure-steps</text><text fill="#000000" font-family="sans-serif" font-size="13" font-style="italic" lengthAdjust="spacing" textLength="67.5771" x="781.1367" y="335.9575">/MPPS-UID</text><text fill="#000000" font-family="sans-serif" font-size="13" font-style="italic" lengthAdjust="spacing" textLength="51.6953" x="675.0229" y="351.0903">payload</text><path d="M544.6328,309.7578 L544.6328,349.7578 L657.6328,349.7578 L657.6328,319.7578 L647.6328,309.7578 L544.6328,309.7578" fill="#ECF4E4" style="stroke:#181818;stroke-width:0.5;"/><path d="M647.6328,309.7578 L647.6328,319.7578 L657.6328,319.7578 L647.6328,309.7578" fill="#ECF4E4" style="stroke:#181818;stroke-width:0.5;"/><text fill="#000000" font-family="sans-serif" font-size="13" lengthAdjust="spacing" textLength="92.3901" x="550.6328" y="326.8247">[PS3.18, 15.4]</text><text fill="#000000" font-family="sans-serif" font-size="13" lengthAdjust="spacing" textLength="43.4814" x="550.6328" y="341.9575">Create</text><polygon fill="#181818" points="679.0229,381.2891,669.0229,385.2891,679.0229,389.2891" style="stroke:#181818;stroke-width:1;"/><line style="stroke:#181818;stroke-width:1;stroke-dasharray:2,2;" x1="673.0229" x2="901.0435" y1="385.2891" y2="385.2891"/><text fill="#000000" font-family="sans-serif" font-size="13" lengthAdjust="spacing" textLength="57.8462" x="685.0229" y="380.2231">200 (OK)</text><polygon fill="#181818" points="467.5215,410.4219,457.5215,414.4219,467.5215,418.4219" style="stroke:#181818;stroke-width:1;"/><line style="stroke:#181818;stroke-width:1;stroke-dasharray:2,2;" x1="461.5215" x2="657.0229" y1="414.4219" y2="414.4219"/><text fill="#000000" font-family="sans-serif" font-size="13" lengthAdjust="spacing" textLength="18.7573" x="473.5215" y="409.356">OK</text><polygon fill="#181818" points="151.8613,439.5547,141.8613,443.5547,151.8613,447.5547" style="stroke:#181818;stroke-width:1;"/><line style="stroke:#181818;stroke-width:1;stroke-dasharray:2,2;" x1="145.8613" x2="445.5215" y1="443.5547" y2="443.5547"/><text fill="#000000" font-family="sans-serif" font-size="13" lengthAdjust="spacing" textLength="213.5796" x="157.8613" y="438.4888">N-CREATE-RSP: 0000H (Success)</text><polygon fill="#181818" points="434.5215,468.6875,444.5215,472.6875,434.5215,476.6875" style="stroke:#181818;stroke-width:1;"/><line style="stroke:#181818;stroke-width:1;" x1="140.8613" x2="440.5215" y1="472.6875" y2="472.6875"/><text fill="#000000" font-family="sans-serif" font-size="13" lengthAdjust="spacing" textLength="95.6021" x="147.8613" y="467.6216">A-RELEASE-RQ</text><polygon fill="#181818" points="151.8613,497.8203,141.8613,501.8203,151.8613,505.8203" style="stroke:#181818;stroke-width:1;"/><line style="stroke:#181818;stroke-width:1;stroke-dasharray:2,2;" x1="145.8613" x2="445.5215" y1="501.8203" y2="501.8203"/><text fill="#000000" font-family="sans-serif" font-size="13" lengthAdjust="spacing" textLength="101.4609" x="157.8613" y="496.7544">A-RELEASE-RSP</text><!--SRC=[XPBTRzem5CNV_LVSbHUAY1C-9XYQ9aM1gQXZoJ1vMlRW9XSQ3UpCCMtPNxzhHlcQfhv4iNpykyVd-5rbv6eZmQB-3TPiaTK_IrL98pTGszqQwMlAt6utQ_PO5WXBhUs3Vc6CDBRCoqeg2pUjbeZILki6P0tq1mtPpGU30ICbhHFm8QtHGBX2KbT6l-oWKNp0OJva01SaKXyeoP5o9JcXzieqF0fH5U3CNNcBJRag5GWqJsWEBcDnFCLaRiidQT5PPyw-zydD7q7eXKB4qJHSJBpvjoPqU9SF-m7l144mv3tkrZtUWzjpHB97VFIyVnbXT87_waNpoHliTgPyVvOamakdOzzl0-USvYbDizQujD30VDd7_WY-9wB7-stup0TqjFCZKv51iiHSbAyZSwqe0mlZwKnCmEfCZQTHF7l61zYNZXPDdIb9GLPojzQoU3sUXYEeq2orsS1VC1ZyjSNQPkgvj8_m9kYOKHeoAesOiHZ1tMAHG1AB1VWRNSXrQNVUOGuMNgRejUHOR0rwjSMgzi_JSDaSwBv_uiVYl_bqXctelEVzKphan7Nbh7I309hn_Iqhy9pb0d0Ibq1yVxv95xde-bIee1KL6Tn1Kspp7ElwzkfbpITV9g5mtL-_b-EEICw7qUuV]--></g></svg>