<svg xmlns="http://www.w3.org/2000/svg" xmlns:xlink="http://www.w3.org/1999/xlink" contentStyleType="text/css" data-diagram-type="SEQUENCE" height="558px" preserveAspectRatio="none" style="width:889px;height:558px;background:#FFFFFF;" version="1.1" viewBox="0 0 889 558" width="889px" zoomAndPan="magnify"><defs/><g><rect fill="#D9E8C8" height="546.8203" style="stroke:#181818;stroke-width:0.5;" width="315.6543" x="279.4512" y="6"/><text fill="#000000" font-family="sans-serif" font-size="13" font-weight="bold" lengthAdjust="spacing" textLength="187.0464" x="341.4922" y="18.0669">Origin Server / SCU proxy</text><g><title>User Agent</title><rect fill="#000000" fill-opacity="0.00000" height="490.3906" width="8" x="124.8901" y="56.4297"/><line style="stroke:#181818;stroke-width:0.5;stroke-dasharray:5,5;" x1="128.3901" x2="128.3901" y1="56.4297" y2="546.8203"/></g><g><title/><rect fill="#FFFFFF" height="482.3906" style="stroke:#181818;stroke-width:1;" width="10" x="123.3901" y="64.4297"/></g><g><title>..Origin Server..</title><rect fill="#000000" fill-opacity="0.00000" height="490.3906" width="8" x="360.8745" y="56.4297"/><line style="stroke:#181818;stroke-width:0.5;stroke-dasharray:5,5;" x1="364.3745" x2="364.3745" y1="56.4297" y2="546.8203"/></g><g><title/><rect fill="#FFFFFF" height="412.9922" style="stroke:#181818;stroke-width:1;" width="10" x="359.3745" y="115.8281"/></g><g><title>..SCU..</title><rect fill="#000000" fill-opacity="0.00000" height="490.3906" width="8" x="543.4561" y="56.4297"/><line style="stroke:#181818;stroke-width:0.5;stroke-dasharray:5,5;" x1="546.9561" x2="546.9561" y1="56.4297" y2="546.8203"/></g><g><title/><rect fill="#FFFFFF" height="225.0625" style="stroke:#181818;stroke-width:1;" width="10" x="541.9561" y="217.3594"/></g><g><title>SCP</title><rect fill="#000000" fill-opacity="0.00000" height="490.3906" width="8" x="859.1162" y="56.4297"/><line style="stroke:#181818;stroke-width:0.5;stroke-dasharray:5,5;" x1="862.6162" x2="862.6162" y1="56.4297" y2="546.8203"/></g><g><title/><rect fill="#FFFFFF" height="166.7969" style="stroke:#181818;stroke-width:1;" width="10" x="857.6162" y="246.4922"/></g><rect fill="#A2C777" height="30.2969" rx="2.5" ry="2.5" style="stroke:#181818;stroke-width:0.5;" width="91.7998" x="82.4902" y="25.1328"/><text fill="#000000" font-family="sans-serif" font-size="14" lengthAdjust="spacing" textLength="77.7998" x="89.4902" y="45.1279">User Agent</text><rect fill="#A2C777" height="30.2969" rx="2.5" ry="2.5" style="stroke:#181818;stroke-width:0.5;" width="119.2734" x="304.7378" y="25.1328"/><text fill="#000000" font-family="sans-serif" font-size="14" font-weight="bold" lengthAdjust="spacing" textLength="105.2734" x="311.7378" y="45.1279">Origin Server</text><rect fill="#A2C777" height="30.2969" rx="2.5" ry="2.5" style="stroke:#181818;stroke-width:0.5;" width="45.7256" x="524.0933" y="25.1328"/><text fill="#000000" font-family="sans-serif" font-size="14" font-weight="bold" lengthAdjust="spacing" textLength="31.7256" x="531.0933" y="45.1279">SCU</text><rect fill="#A2C777" height="30.2969" rx="2.5" ry="2.5" style="stroke:#181818;stroke-width:0.5;" width="41.1045" x="842.064" y="25.1328"/><text fill="#000000" font-family="sans-serif" font-size="14" lengthAdjust="spacing" textLength="27.1045" x="849.064" y="45.1279">SCP</text><polygon fill="#181818" points="347.3745,111.8281,357.3745,115.8281,347.3745,119.8281" style="stroke:#181818;stroke-width:1;"/><line style="stroke:#181818;stroke-width:1;" x1="133.3901" x2="353.3745" y1="115.8281" y2="115.8281"/><text fill="#000000" font-family="sans-serif" font-size="13" lengthAdjust="spacing" textLength="206.9844" x="140.3901" y="80.4966">HTTP GET /modality-performed-</text><text fill="#000000" font-family="sans-serif" font-size="13" lengthAdjust="spacing" textLength="106.1138" x="140.3901" y="95.6294">procedure-steps</text><text fill="#000000" font-family="sans-serif" font-size="13" font-style="italic" lengthAdjust="spacing" textLength="67.5771" x="246.5039" y="95.6294">/MPPS-UID</text><text fill="#000000" font-family="sans-serif" font-size="13" lengthAdjust="spacing" textLength="6.8999" x="314.0811" y="95.6294">?</text><text fill="#000000" font-family="sans-serif" font-size="13" font-style="italic" lengthAdjust="spacing" textLength="75.1499" x="140.3901" y="110.7622">includefield</text><path d="M10,69.4297 L10,109.4297 L123,109.4297 L123,79.4297 L113,69.4297 L10,69.4297" fill="#ECF4E4" style="stroke:#181818;stroke-width:0.5;"/><path d="M113,69.4297 L113,79.4297 L123,79.4297 L113,69.4297" fill="#ECF4E4" style="stroke:#181818;stroke-width:0.5;"/><text fill="#000000" font-family="sans-serif" font-size="13" lengthAdjust="spacing" textLength="92.3901" x="16" y="86.4966">[PS3.18, 15.6]</text><text fill="#000000" font-family="sans-serif" font-size="13" lengthAdjust="spacing" textLength="54.7739" x="16" y="101.6294">Retrieve</text><line style="stroke:#181818;stroke-width:1;" x1="369.3745" x2="411.3745" y1="160.0938" y2="160.0938"/><line style="stroke:#181818;stroke-width:1;" x1="411.3745" x2="411.3745" y1="160.0938" y2="173.0938"/><line style="stroke:#181818;stroke-width:1;" x1="370.3745" x2="411.3745" y1="173.0938" y2="173.0938"/><polygon fill="#181818" points="380.3745,169.0938,370.3745,173.0938,380.3745,177.0938" style="stroke:#181818;stroke-width:1;"/><text fill="#000000" font-family="sans-serif" font-size="13" lengthAdjust="spacing" textLength="142.0415" x="376.3745" y="139.895">convert DICOMweb to</text><text fill="#000000" font-family="sans-serif" font-size="13" lengthAdjust="spacing" textLength="121.0625" x="376.3745" y="155.0278">DIMSE parameters</text><polygon fill="#181818" points="529.9561,213.3594,539.9561,217.3594,529.9561,221.3594" style="stroke:#181818;stroke-width:1;"/><line style="stroke:#181818;stroke-width:1;" x1="369.3745" x2="535.9561" y1="217.3594" y2="217.3594"/><text fill="#000000" font-family="sans-serif" font-size="13" lengthAdjust="spacing" textLength="153.5815" x="376.3745" y="197.1606">perform Create request</text><text fill="#000000" font-family="sans-serif" font-size="13" lengthAdjust="spacing" textLength="152.7754" x="376.3745" y="212.2935">with DIMSE parameters</text><polygon fill="#181818" points="845.6162,242.4922,855.6162,246.4922,845.6162,250.4922" style="stroke:#181818;stroke-width:1;"/><line style="stroke:#181818;stroke-width:1;" x1="551.9561" x2="851.6162" y1="246.4922" y2="246.4922"/><text fill="#000000" font-family="sans-serif" font-size="13" lengthAdjust="spacing" textLength="286.6602" x="558.9561" y="241.4263">A-ASSOCIATE-RQ( 1.2.840.10008.3.1.2.3.3 )</text><polygon fill="#181818" points="562.9561,271.625,552.9561,275.625,562.9561,279.625" style="stroke:#181818;stroke-width:1;"/><line style="stroke:#181818;stroke-width:1;stroke-dasharray:2,2;" x1="556.9561" x2="856.6162" y1="275.625" y2="275.625"/><text fill="#000000" font-family="sans-serif" font-size="13" lengthAdjust="spacing" textLength="109.8335" x="568.9561" y="270.5591">A-ASSOCIATE-AC</text><polygon fill="#181818" points="845.6162,315.8906,855.6162,319.8906,845.6162,323.8906" style="stroke:#181818;stroke-width:1;"/><line style="stroke:#181818;stroke-width:1;" x1="551.9561" x2="851.6162" y1="319.8906" y2="319.8906"/><text fill="#000000" font-family="sans-serif" font-size="13" lengthAdjust="spacing" textLength="235.0601" x="558.9561" y="299.6919">N-GET-RQ( 1.2.840.10008.3.1.2.3.3,</text><text fill="#000000" font-family="sans-serif" font-size="13" font-style="italic" lengthAdjust="spacing" textLength="63.1973" x="558.9561" y="314.8247">MPPS-UID</text><text fill="#000000" font-family="sans-serif" font-size="13" lengthAdjust="spacing" textLength="29.8657" x="622.1533" y="314.8247">, ... )</text><path d="M421.0947,288.625 L421.0947,328.625 L541.0947,328.625 L541.0947,298.625 L531.0947,288.625 L421.0947,288.625" fill="#ECF4E4" style="stroke:#181818;stroke-width:0.5;"/><path d="M531.0947,288.625 L531.0947,298.625 L541.0947,298.625 L531.0947,288.625" fill="#ECF4E4" style="stroke:#181818;stroke-width:0.5;"/><text fill="#000000" font-family="sans-serif" font-size="13" lengthAdjust="spacing" textLength="99.8613" x="427.0947" y="305.6919">[PS3.4, F.8.2.1]</text><text fill="#000000" font-family="sans-serif" font-size="13" lengthAdjust="spacing" textLength="54.7739" x="427.0947" y="320.8247">Retrieve</text><polygon fill="#181818" points="562.9561,351.0234,552.9561,355.0234,562.9561,359.0234" style="stroke:#181818;stroke-width:1;"/><line style="stroke:#181818;stroke-width:1;stroke-dasharray:2,2;" x1="556.9561" x2="856.6162" y1="355.0234" y2="355.0234"/><text fill="#000000" font-family="sans-serif" font-size="13" lengthAdjust="spacing" textLength="192.8164" x="568.9561" y="349.9575">N-GET-RSP: 0000H (Success):</text><text fill="#000000" font-family="sans-serif" font-size="13" font-style="italic" lengthAdjust="spacing" textLength="49.1499" x="765.9048" y="349.9575">dataset</text><polygon fill="#181818" points="845.6162,380.1563,855.6162,384.1563,845.6162,388.1563" style="stroke:#181818;stroke-width:1;"/><line style="stroke:#181818;stroke-width:1;" x1="551.9561" x2="851.6162" y1="384.1563" y2="384.1563"/><text fill="#000000" font-family="sans-serif" font-size="13" lengthAdjust="spacing" textLength="95.6021" x="558.9561" y="379.0903">A-RELEASE-RQ</text><polygon fill="#181818" points="562.9561,409.2891,552.9561,413.2891,562.9561,417.2891" style="stroke:#181818;stroke-width:1;"/><line style="stroke:#181818;stroke-width:1;stroke-dasharray:2,2;" x1="556.9561" x2="856.6162" y1="413.2891" y2="413.2891"/><text fill="#000000" font-family="sans-serif" font-size="13" lengthAdjust="spacing" textLength="101.4609" x="568.9561" y="408.2231">A-RELEASE-RSP</text><polygon fill="#181818" points="380.3745,438.4219,370.3745,442.4219,380.3745,446.4219" style="stroke:#181818;stroke-width:1;"/><line style="stroke:#181818;stroke-width:1;stroke-dasharray:2,2;" x1="374.3745" x2="540.9561" y1="442.4219" y2="442.4219"/><text fill="#000000" font-family="sans-serif" font-size="13" lengthAdjust="spacing" textLength="23.1372" x="386.3745" y="437.356">OK:</text><text fill="#000000" font-family="sans-serif" font-size="13" font-style="italic" lengthAdjust="spacing" textLength="49.1499" x="413.644" y="437.356">dataset</text><line style="stroke:#181818;stroke-width:1;" x1="369.3745" x2="411.3745" y1="486.6875" y2="486.6875"/><line style="stroke:#181818;stroke-width:1;" x1="411.3745" x2="411.3745" y1="486.6875" y2="499.6875"/><line style="stroke:#181818;stroke-width:1;" x1="370.3745" x2="411.3745" y1="499.6875" y2="499.6875"/><polygon fill="#181818" points="380.3745,495.6875,370.3745,499.6875,380.3745,503.6875" style="stroke:#181818;stroke-width:1;"/><text fill="#000000" font-family="sans-serif" font-size="13" lengthAdjust="spacing" textLength="119.939" x="376.3745" y="466.4888">convert dataset to</text><text fill="#000000" font-family="sans-serif" font-size="13" lengthAdjust="spacing" textLength="127.0801" x="376.3745" y="481.6216">DICOMweb payload</text><polygon fill="#181818" points="144.3901,524.8203,134.3901,528.8203,144.3901,532.8203" style="stroke:#181818;stroke-width:1;"/><line style="stroke:#181818;stroke-width:1;stroke-dasharray:2,2;" x1="138.3901" x2="358.3745" y1="528.8203" y2="528.8203"/><text fill="#000000" font-family="sans-serif" font-size="13" lengthAdjust="spacing" textLength="62.2261" x="150.3901" y="523.7544">200 (OK):</text><text fill="#000000" font-family="sans-serif" font-size="13" font-style="italic" lengthAdjust="spacing" textLength="51.6953" x="216.7485" y="523.7544">payload</text><!--SRC=[VP9RSzem48NVzIksuOKm-CAbnMKowNY0DanAxI9uAdrGx8LeQcH7badeh- -QE0I7jY-sDVhsxDcpVfTfiTaAC9Z-1gCBPFalgJAXnHPoiq-Gdbf6fjWcx5x62EiqDNVf4sF461d9J2W35yiSDVWRLEO2H0vB7ngY6mq60qOi15fkf0AEUaUO0toqX4odJtjen1_HYpm6K9DhjMebhTP1DU17rJEU92kg57_1KCLGcgt1V1HMO7W4cOYCt0c3P9sHU-kQkWtXPh48uSja0SusZKKYpTxAKAzJlSNOMYcQ8SAuq6Zb1hFSSPnP679hEHqxpgULSXofegI8SIqnYHtdjKd0cKhfdU3QG0EZTH_xG_WHyfxTyThGUMz_-BbISwJeSOUC1gyCHQcYF0oCfwDWzeXtODAL6azdV0A7dQ51dLSy1J64oYwCD9QDDJuKc9kLUfJc7iuAZmQfbfL17cJ28VYMptamclgBYJN_teIEtRMzlcjtNDVrR79DvvxTWyjJYV0WSMLPvnh-g2R_pQAG_oVSBjDy3RSDjcrJit-5s6_3PzkZqivfZ3KtLKjEdzJAlO4cBw88y_no25VoEXP6v6ZUX32VV9tul8pWxMZ76nwo66iXq3QUGLf7S5jJhv7Bl-ov0girLplFn3v9HLp-fwLmoNTT5vh1xRFtb_iJzO3_0G00]--></g></svg>