<?xml version="1.0" encoding="UTF-8"?>

<svg version="1.1" id="Layer_1" xmlns="http://www.w3.org/2000/svg" xmlns:xlink="http://www.w3.org/1999/xlink" x="0px" y="0px"
	 viewBox="0 0 507 267" enable-background="new 0 0 507 267" xml:space="preserve">

<defs>
	<style type="text/css">
	text {
	  font-family: Helvetica, Verdana, ArialUnicodeMS, san-serif
	}
	</style>
</defs>

<g>
   <desc>
	PS 3.17 : Explanatory Information
   </desc>
</g>

  <g>
    <g id="Layer_1">
      <g>
        <rect x="1" y="1" width="505" height="265" fill="#f3edd6"/>
        <g>
          <g>
            <line x1="73.69" y1="52.411" x2="73.69" y2="53.911" fill="none" stroke="#231f20" stroke-linecap="round" stroke-miterlimit="1" stroke-width=".5"/>
            <line x1="73.69" y1="56.925" x2="73.69" y2="248.327" fill="none" stroke="#231f20" stroke-dasharray="3.014 3.014" stroke-linecap="round" stroke-miterlimit="1" stroke-width=".5"/>
            <line x1="73.69" y1="249.834" x2="73.69" y2="251.334" fill="none" stroke="#231f20" stroke-linecap="round" stroke-miterlimit="1" stroke-width=".5"/>
          </g>
          <line x1="409.691" y1="72.491" x2="409.691" y2="251.334" fill="none" stroke="#231f20" stroke-linecap="round" stroke-miterlimit="1" stroke-width=".75"/>
          <line x1="231.19" y1="72.491" x2="231.19" y2="251.334" fill="none" stroke="#231f20" stroke-linecap="round" stroke-miterlimit="1" stroke-width=".75"/>
          <g>
            <line x1="244.624" y1="213.924" x2="404.941" y2="213.924" fill="none" stroke="#005695" stroke-linecap="round" stroke-miterlimit="1" stroke-width=".981"/>
            <polygon points="246.567 216.773 235.935 213.924 246.567 211.075 246.567 216.773" fill="#005695"/>
          </g>
          <g>
            <polyline points="236.012 142.043 250.392 142.026 250.392 152.741 244.915 152.741" fill="none" stroke="#005695" stroke-linecap="round" stroke-miterlimit="1"/>
            <polygon points="246.896 149.836 236.056 152.741 246.896 155.646 246.896 149.836" fill="#005695"/>
          </g>
          <g>
            <line x1="235.954" y1="181.218" x2="396.063" y2="181.218" fill="none" stroke="#005695" stroke-linecap="round" stroke-miterlimit="1"/>
            <polygon points="394.082 184.123 404.923 181.218 394.082 178.312 394.082 184.123" fill="#005695"/>
          </g>
          <g>
            <line x1="73.733" y1="116.907" x2="217.092" y2="116.907" fill="none" stroke="#005695" stroke-linecap="round" stroke-miterlimit="1"/>
            <polygon points="215.111 119.812 225.952 116.907 215.111 114.002 215.111 119.812" fill="#005695"/>
          </g>
          <rect x="373.691" y="22.368" width="72" height="30.289" fill="#ccdef0" stroke="#010101" stroke-linecap="round" stroke-linejoin="round" stroke-width=".75"/>
          <text transform="translate(383.183 40.02)" fill="#231f20" font-size="9"><tspan x="0" y="0">Origin Server</tspan></text>
          <rect x="183.266" y="22.368" width="95.85" height="30.289" fill="#ccdef0" stroke="#010101" stroke-linecap="round" stroke-linejoin="round" stroke-width=".811"/>
          <text transform="translate(209.179 34.62)" fill="#231f20" font-size="9"><tspan x="0" y="0">User agent</tspan><tspan x="-21.502" y="10.8">(zero footprint viewer)</tspan></text>
          <text transform="translate(90.001 34.62)" fill="#231f20" font-size="9"><tspan x="0" y="0">Clinical</tspan><tspan x="0" y="10.8">User</tspan></text>
          <text transform="translate(277.161 211.561)" fill="#010101" font-size="9"><tspan x="0" y="0">Return images in</tspan><tspan x="0" y="10.8">requested media type</tspan></text>
          <text transform="translate(253.047 146.536)" fill="#010101" font-size="9"><tspan x="0" y="0">Retrieve rendering parameters</tspan></text>
          <g>
            <polyline points="414.561 192.649 428.941 192.633 428.941 203.347 423.465 203.347" fill="none" stroke="#005695" stroke-linecap="round" stroke-miterlimit="1"/>
            <polygon points="425.446 200.442 414.605 203.347 425.446 206.253 425.446 200.442" fill="#005695"/>
          </g>
          <text transform="translate(431.477 197.143)" fill="#010101" font-size="9"><tspan x="0" y="0">Render images</tspan></text>
          <text transform="translate(101.435 114.025)" fill="#010101" font-size="9"><tspan x="0" y="0">Select hanging protocol</tspan></text>
          <rect x="226.435" y="153.082" width="9.5" height="15.167" fill="#ccdef0" stroke="#010101" stroke-linecap="round" stroke-linejoin="round" stroke-width=".75"/>
          <text transform="translate(272.677 179.049)" fill="#010101" font-size="9"><tspan x="0" y="0">GET http://server.com../</tspan></text>
          <rect x="404.941" y="181.218" width="9.5" height="32.706" fill="#ccdef0" stroke="#010101" stroke-linecap="round" stroke-linejoin="round" stroke-width=".439"/>
          <rect x="226.518" y="209.694" width="9.5" height="32.706" fill="#ccdef0" stroke="#010101" stroke-linecap="round" stroke-linejoin="round" stroke-width=".439"/>
          <rect x="226.521" y="105.734" width="9.494" height="80.919" fill="#ccdef0" stroke="#010101" stroke-linecap="round" stroke-linejoin="round" stroke-width=".607"/>
          <g>
            <path d="M126.468,71.467H14.492v24.682h119.665v-15.679l-7.69-9.002" fill="#fff" stroke="#010101" stroke-linecap="round" stroke-linejoin="round" stroke-width=".72"/>
            <path d="M126.468,71.467v9h7.69" fill="none" stroke="#010101" stroke-linecap="round" stroke-linejoin="round" stroke-width=".72"/>
            <text transform="translate(18.41 81.438)" fill="#010101" font-size="9"><tspan x="0" y="0">“Render dynamic contrast </tspan><tspan x="0" y="10.8">enhancement in a 3D MIP”</tspan></text>
          </g>
          <g>
            <line x1="231.185" y1="52.411" x2="231.185" y2="53.911" fill="none" stroke="#231f20" stroke-linecap="round" stroke-miterlimit="1" stroke-width=".5"/>
            <line x1="231.185" y1="56.98" x2="231.185" y2="67.721" fill="none" stroke="#231f20" stroke-dasharray="3.069 3.069" stroke-linecap="round" stroke-miterlimit="1" stroke-width=".5"/>
            <line x1="231.185" y1="69.255" x2="231.185" y2="70.755" fill="none" stroke="#231f20" stroke-linecap="round" stroke-miterlimit="1" stroke-width=".5"/>
          </g>
          <g>
            <line x1="409.686" y1="52.411" x2="409.686" y2="53.911" fill="none" stroke="#231f20" stroke-linecap="round" stroke-miterlimit="1" stroke-width=".5"/>
            <line x1="409.686" y1="56.98" x2="409.686" y2="67.721" fill="none" stroke="#231f20" stroke-dasharray="3.069 3.069" stroke-linecap="round" stroke-miterlimit="1" stroke-width=".5"/>
            <line x1="409.686" y1="69.255" x2="409.686" y2="70.755" fill="none" stroke="#231f20" stroke-linecap="round" stroke-miterlimit="1" stroke-width=".5"/>
          </g>
          <g>
            <polygon points="77.184 40.244 77.052 40.573 77.001 41.386 77.074 42.127 77.403 43.422 77.428 43.496 77.663 43.905 77.792 44.005 77.839 44.028 77.912 44.032 77.99 44.029 78.066 44.008 78.119 43.982 78.144 43.954 78.246 43.823 78.37 43.362 78.319 42.026 78.168 41.286 77.885 40.497 77.861 40.448 77.637 40.172 77.584 40.164 77.407 40.119 77.227 40.217 77.184 40.244" fill="#b2cee7" stroke="#231f20" stroke-linecap="round" stroke-linejoin="round" stroke-width=".25"/>
            <polygon points="78.375 39.381 78.146 39.046 77.789 38.842 77.38 38.802 76.996 38.954 76.715 39.257 76.59 39.657 76.645 40.063 76.667 40.114 76.898 40.449 77.254 40.653 77.664 40.681 78.048 40.542 78.343 40.238 78.47 39.838 78.403 39.431 78.375 39.381" fill="#b2cee7" stroke="#231f20" stroke-linecap="round" stroke-linejoin="round" stroke-width=".25"/>
            <polygon points="69.966 40.111 70.124 40.349 70.228 41.063 70.246 41.237 70.221 41.947 69.963 43.189 69.72 43.619 69.665 43.717 69.558 43.795 69.487 43.844 69.407 43.87 69.314 43.87 69.254 43.844 69.159 43.794 69.102 43.718 68.947 43.343 68.903 42.142 68.902 41.945 69.005 41.233 69.256 40.468 69.336 40.345 69.517 40.096 69.611 40.045 69.715 40.019 69.821 40.019 69.915 40.046 69.966 40.111" fill="#b2cee7" stroke="#231f20" stroke-linecap="round" stroke-linejoin="round" stroke-width=".25"/>
            <polygon points="70.475 40.299 70.681 39.984 70.725 39.584 70.577 39.203 70.277 38.903 69.891 38.765 69.486 38.791 69.151 38.978 69.051 39.105 68.846 39.435 68.804 39.834 68.953 40.215 69.253 40.502 69.637 40.653 70.042 40.628 70.378 40.443 70.475 40.299" fill="#b2cee7" stroke="#231f20" stroke-linecap="round" stroke-linejoin="round" stroke-width=".25"/>
            <polygon points="71.257 37.884 70.982 38.158 70.881 38.283 70.321 40.85 70.35 42.101 70.632 43.017 70.908 43.392 71.006 43.513 71.14 43.59 71.894 43.855 72.989 44.022 74.209 44.008 75.298 43.852 76.016 43.573 76.163 43.496 76.263 43.387 76.498 43.011 76.797 42.095 76.843 40.831 76.29 38.266 76.191 38.141 75.903 37.88 75.805 37.811 75.096 37.609 74.105 37.504 73.016 37.505 72.043 37.625 71.343 37.827 71.257 37.884" fill="#b2cee7" stroke="#231f20" stroke-linecap="round" stroke-linejoin="round" stroke-width=".25"/>
            <polyline points="77.814 38.421 77.814 38.435 77.762 38.589 77.861 38.98 77.861 38.98 78.093 39.431 78.346 39.865 78.631 40.167 78.801 40.198 78.981 40.146 81.516 39.08 84.21 37.501 84.57 37.225 84.743 37.023 84.772 36.869 84.718 36.689 84.569 36.364 84.364 35.977 84.137 35.594 83.938 35.292 83.81 35.139 83.659 35.086 83.403 35.117 82.974 35.287 80.203 36.72 77.961 38.308 77.814 38.421 77.861 38.98 77.861 38.98" fill="#b2cee7" stroke="#231f20" stroke-linecap="round" stroke-linejoin="round" stroke-width=".25"/>
            <polygon points="75.398 38.238 74.584 38.795 74.285 38.918 73.849 38.977 73.349 38.977 72.912 38.919 72.606 38.797 71.799 38.241 71.617 37.985 71.115 37.018 71.111 35.927 71.595 34.937 71.799 34.71 72.602 34.124 72.907 34.025 73.342 33.973 73.829 33.973 74.28 34.024 74.589 34.123 75.372 34.708 75.601 34.934 76.081 35.924 76.061 37.014 75.556 37.982 75.398 38.238" fill="#b2cee7" stroke="#231f20" stroke-linecap="round" stroke-linejoin="round" stroke-width=".25"/>
            <polygon points="62.727 37.348 63.087 37.608 65.781 39.132 68.316 40.147 68.496 40.198 68.652 40.165 68.947 39.858 68.998 39.784 69.08 39.634 69.185 39.436 69.301 39.234 69.379 39.072 69.413 38.968 69.511 38.567 69.507 38.522 69.44 38.366 69.304 38.241 67.022 36.695 64.233 35.318 63.817 35.167 63.549 35.139 63.411 35.194 63.267 35.315 63.066 35.592 62.853 35.958 62.651 36.363 62.505 36.715 62.456 36.94 62.499 37.093 62.659 37.279 62.727 37.348" fill="#b2cee7" stroke="#231f20" stroke-linecap="round" stroke-linejoin="round" stroke-width=".25"/>
            <polygon points="61.714 34.812 62.142 34.629 62.624 34.654 63.063 34.887 63.372 35.289 63.498 35.77 63.415 36.231 63.133 36.588 62.98 36.734 62.551 36.915 62.07 36.888 61.633 36.644 61.31 36.256 61.182 35.775 61.262 35.313 61.543 34.939 61.714 34.812" fill="#b2cee7" stroke="#231f20" stroke-linecap="round" stroke-linejoin="round" stroke-width=".25"/>
            <polygon points="84.868 34.528 85.36 34.606 85.766 34.892 86.008 35.343 86.011 35.472 86.015 35.955 85.807 36.384 85.712 36.483 85.557 36.591 85.357 36.709 85.157 36.788 85 36.82 84.919 36.814 84.415 36.736 84.009 36.439 83.779 36.002 83.759 35.494 83.775 35.392 83.98 34.962 84.063 34.864 84.232 34.757 84.366 34.678 84.418 34.652 84.619 34.559 84.773 34.525 84.868 34.528" fill="#b2cee7" stroke="#231f20" stroke-linecap="round" stroke-linejoin="round" stroke-width=".25"/>
            <polygon points="62.022 34.456 62.103 34.327 64.158 32.144 65.556 30.691 65.759 30.54 67.071 29.687 67.425 29.607 67.655 29.633 67.907 29.712 68.237 29.958 68.573 30.296 68.857 30.693 69.05 31.048 69.082 31.303 69.079 31.534 68.952 31.869 67.956 33.056 67.763 33.231 66.158 34.425 63.746 36.178 63.599 36.237 63.462 36.229 63.186 36.182 62.833 35.976 62.478 35.643 62.194 35.244 62.024 34.881 62.022 34.606 62.022 34.456" fill="#b2cee7" stroke="#231f20" stroke-linecap="round" stroke-linejoin="round" stroke-width=".25"/>
            <polygon points="85.23 34.499 85.146 34.273 85.051 34.144 82.991 31.969 81.591 30.523 80.255 29.686 79.894 29.606 79.664 29.603 79.457 29.628 79.155 29.787 78.805 30.089 78.479 30.469 78.246 30.852 78.142 31.175 78.144 31.384 78.196 31.606 78.34 31.96 79.342 33.137 80.963 34.309 83.395 36.035 83.53 36.107 83.778 36.158 83.908 36.136 84.235 36.007 84.594 35.728 84.923 35.349 85.152 34.961 85.229 34.63 85.23 34.499" fill="#b2cee7" stroke="#231f20" stroke-linecap="round" stroke-linejoin="round" stroke-width=".25"/>
            <polygon points="71.366 34.863 70.958 34.223 70.802 33.214 70.293 29.94 70.579 27.728 71.131 27.09 71.388 26.944 72.253 26.581 72.679 26.51 73.271 26.479 73.935 26.479 74.543 26.509 74.975 26.58 75.834 26.942 76.115 27.088 76.665 27.725 76.931 29.937 76.412 33.211 76.24 34.207 75.83 34.859 75.633 35.063 75.044 35.245 74.613 35.368 73.976 35.439 73.262 35.44 72.609 35.369 72.171 35.247 71.586 35.065 71.366 34.863" fill="#b2cee7" stroke="#231f20" stroke-linecap="round" stroke-linejoin="round" stroke-width=".25"/>
            <polygon points="68.371 28.382 67.865 28.823 67.625 29.458 67.677 30.162 68.011 30.776 68.571 31.204 69.237 31.352 69.894 31.182 70.401 30.747 70.553 30.599 70.809 29.98 70.776 29.277 70.43 28.66 69.87 28.23 69.202 28.083 68.544 28.257 68.371 28.382" fill="#b2cee7" stroke="#231f20" stroke-linecap="round" stroke-linejoin="round" stroke-width=".25"/>
            <polygon points="79.061 28.461 79.49 29.042 79.618 29.752 79.434 30.446 78.956 31.003 78.297 31.304 77.585 31.282 76.954 30.952 76.539 30.386 76.412 29.678 76.593 28.973 77.055 28.416 77.713 28.113 78.427 28.132 78.453 28.137 79.061 28.461" fill="#b2cee7" stroke="#231f20" stroke-linecap="round" stroke-linejoin="round" stroke-width=".25"/>
            <polygon points="74.333 26.883 74.899 26.426 75.226 25.751 75.229 25.013 74.921 24.347 74.356 23.873 74.279 23.84 73.629 23.713 72.987 23.841 72.914 23.886 72.348 24.348 72.025 25.014 72.026 25.765 72.35 26.427 72.914 26.883 72.989 26.934 73.19 26.966 73.623 27.041 74.079 26.966 74.264 26.933 74.333 26.883" fill="#b2cee7" stroke="#231f20" stroke-linecap="round" stroke-linejoin="round" stroke-width=".25"/>
            <polygon points="71.717 24.369 71.366 24.073 71.111 23.566 70.934 22.777 70.351 19.145 70.605 17.819 71.571 16.424 72.48 15.872 73.655 15.666 74.842 15.872 75.736 16.424 76.698 17.818 76.947 19.144 76.34 22.776 76.161 23.564 75.904 24.072 75.551 24.355 75.379 24.449 74.865 24.523 74.084 24.556 73.218 24.556 72.434 24.524 71.899 24.45 71.717 24.369" fill="#b2cee7" stroke="#231f20" stroke-linecap="round" stroke-linejoin="round" stroke-width=".25"/>
            <polygon points="69.72 67.566 70.142 67.454 71.368 65.394 71.659 64.627 71.654 64.22 71.663 63.958 71.495 63.683 71.181 63.452 70.801 63.309 70.426 63.28 70.12 63.378 69.845 63.63 69.65 63.858 69.303 64.616 68.668 66.899 68.889 67.254 69.034 67.362 69.282 67.483 69.537 67.552 69.72 67.566" fill="#b2cee7" stroke="#231f20" stroke-linecap="round" stroke-linejoin="round" stroke-width=".25"/>
            <polygon points="71.006 62.279 70.835 62.279 70.684 62.313 70.52 62.382 70.323 62.514 70.175 62.764 70.09 62.974 70.092 63.299 70.164 63.523 70.319 63.76 70.496 63.908 70.755 63.986 70.831 64.009 71.003 64.009 71.142 63.961 71.332 63.908 71.516 63.761 71.665 63.524 71.747 63.3 71.746 62.988 71.67 62.765 71.519 62.515 71.34 62.383 71.156 62.313 71.006 62.279" fill="#b2cee7" stroke="#231f20" stroke-linecap="round" stroke-linejoin="round" stroke-width=".25"/>
            <polygon points="70.786 63.12 70.431 62.998 70.198 62.791 70.122 62.535 69.989 61.999 69.915 60.887 69.638 58.067 69.657 55.018 69.766 54.565 69.896 54.284 70.046 54.177 70.325 53.98 70.709 53.877 71.138 53.878 71.519 53.981 71.637 54.059 71.944 54.286 72.047 54.567 72.175 55.02 72.273 58.069 72.072 60.889 72.025 62.001 71.899 62.536 71.801 62.792 71.547 62.999 71.188 63.121 71.161 63.121 70.83 63.121 70.786 63.12" fill="#b2cee7" stroke="#231f20" stroke-linecap="round" stroke-linejoin="round" stroke-width=".25"/>
            <polygon points="71.189 52.938 71.439 53.021 71.667 53.192 71.853 53.502 71.954 53.772 71.954 54.178 71.848 54.437 71.666 54.746 71.417 54.92 71.19 54.998 71.005 55.05 70.786 55.049 70.604 54.998 70.352 54.919 70.124 54.744 69.922 54.436 69.84 54.164 69.836 53.757 69.961 53.501 70.14 53.191 70.376 53.02 70.602 52.937 70.8 52.886 71.006 52.886 71.189 52.938" fill="#b2cee7" stroke="#231f20" stroke-linecap="round" stroke-linejoin="round" stroke-width=".25"/>
            <polygon points="72.02 53.72 72.146 53.496 72.179 53.366 72.172 53.12 72.679 48.771 72.995 45.546 72.781 45.144 72.632 44.939 72.232 44.762 71.899 44.616 71.547 44.556 71.163 44.534 70.808 44.564 70.455 44.682 70.048 44.814 69.891 45.011 69.632 45.377 69.637 48.624 69.714 53.013 69.683 53.245 69.71 53.39 69.813 53.62 69.871 53.671 70.177 53.854 70.634 53.975 71.159 54 71.62 53.924 71.946 53.756 72.02 53.72" fill="#b2cee7" stroke="#231f20" stroke-linecap="round" stroke-linejoin="round" stroke-width=".25"/>
            <polygon points="77.24 67.541 76.811 67.399 75.684 65.28 75.416 64.491 75.434 64.091 75.464 63.838 75.657 63.576 75.988 63.373 76.376 63.248 76.753 63.263 77.046 63.373 77.306 63.645 77.482 63.901 77.802 64.662 78.325 66.967 78.091 67.298 77.939 67.394 77.683 67.494 77.423 67.541 77.24 67.541" fill="#b2cee7" stroke="#231f20" stroke-linecap="round" stroke-linejoin="round" stroke-width=".25"/>
            <polygon points="75.989 62.259 76.161 62.258 76.312 62.304 76.472 62.36 76.672 62.492 76.818 62.741 76.92 62.963 76.905 63.275 76.849 63.5 76.694 63.75 76.519 63.885 76.262 63.964 76.168 63.987 76.01 63.988 75.858 63.954 75.683 63.901 75.496 63.754 75.35 63.506 75.249 63.295 75.252 62.97 75.324 62.759 75.477 62.509 75.653 62.363 75.853 62.306 75.989 62.259" fill="#b2cee7" stroke="#231f20" stroke-linecap="round" stroke-linejoin="round" stroke-width=".25"/>
            <polygon points="76.239 63.099 76.591 62.988 76.82 62.768 76.952 62.263 77.027 61.976 77.106 60.864 77.41 58.043 77.431 54.995 77.311 54.543 77.175 54.262 77.027 54.155 76.744 53.959 76.343 53.857 75.915 53.859 75.55 53.976 75.429 54.054 75.141 54.282 75.043 54.563 74.913 55.017 74.788 58.066 74.951 60.885 74.992 61.984 75.102 62.531 75.204 62.787 75.475 62.993 75.836 63.1 75.861 63.101 76.191 63.1 76.239 63.099" fill="#b2cee7" stroke="#231f20" stroke-linecap="round" stroke-linejoin="round" stroke-width=".25"/>
            <polygon points="76.309 55.042 76.09 55.043 75.905 54.992 75.681 54.915 75.43 54.74 75.251 54.433 75.125 54.161 75.142 53.755 75.223 53.498 75.424 53.188 75.649 53.015 75.904 52.919 76.084 52.867 76.291 52.867 76.491 52.917 76.698 53.012 76.952 53.169 77.126 53.492 77.257 53.748 77.251 54.154 77.175 54.413 76.97 54.723 76.747 54.898 76.491 54.99 76.309 55.042" fill="#b2cee7" stroke="#231f20" stroke-linecap="round" stroke-linejoin="round" stroke-width=".25"/>
            <polygon points="77.301 53.597 77.383 53.367 77.412 53.223 77.38 52.991 77.48 48.603 77.505 45.369 77.235 44.991 77.056 44.794 76.641 44.663 76.295 44.559 75.939 44.529 75.555 44.539 75.218 44.612 74.866 44.76 74.485 44.938 74.358 45.142 74.13 45.545 74.439 48.769 74.923 53.116 74.915 53.35 74.949 53.493 75.094 53.704 75.168 53.752 75.499 53.906 75.964 53.98 76.488 53.955 76.928 53.832 77.229 53.649 77.301 53.597" fill="#b2cee7" stroke="#231f20" stroke-linecap="round" stroke-linejoin="round" stroke-width=".25"/>
            <polygon points="71.9 45.501 72.4 45.198 72.509 45.043 72.834 44.484 72.865 43.848 72.607 43.26 72.486 43.093 72.043 42.738 71.852 42.675 71.595 42.625 71.311 42.605 71.039 42.63 70.858 42.684 70.373 42.991 70.245 43.14 69.921 43.701 69.895 44.351 70.166 44.936 70.269 45.097 70.728 45.447 70.905 45.526 71.162 45.579 71.46 45.598 71.719 45.571 71.9 45.501" fill="#b2cee7" stroke="#231f20" stroke-linecap="round" stroke-linejoin="round" stroke-width=".25"/>
            <polygon points="75.271 42.659 75.527 42.609 75.811 42.601 76.084 42.625 76.269 42.679 76.748 42.985 76.897 43.134 77.206 43.694 77.232 44.331 76.971 44.917 76.876 45.09 76.413 45.429 76.24 45.521 75.985 45.574 75.686 45.582 75.425 45.555 75.229 45.497 74.746 45.196 74.617 45.041 74.305 44.483 74.264 43.847 74.536 43.246 74.637 43.091 75.096 42.735 75.271 42.659" fill="#b2cee7" stroke="#231f20" stroke-linecap="round" stroke-linejoin="round" stroke-width=".25"/>
          </g>
        </g>
      </g>
    </g>
  </g>
</svg>