<?xml version="1.0" encoding="UTF-8"?>
<svg version="1.1" id="Layer_1" xmlns="http://www.w3.org/2000/svg" xmlns:xlink="http://www.w3.org/1999/xlink" x="0px" y="0px"
	 viewBox="0 0 502 382" enable-background="new 0 0 502 382" xml:space="preserve">

<defs>
	<style type="text/css">
	text {
	  font-family: Helvetica, Verdana, ArialUnicodeMS, san-serif
	}
	</style>
</defs>

<g>
   <desc>
	PS 3.17 : Explanatory Information
   </desc>
</g>

 <g>
    <g id="Layer_1">
      <g>
        <rect x="1" y="1" width="500" height="380" fill="#f3edd6"/>
        <g>
          <line x1="107.533" y1="46.417" x2="107.533" y2="364.75" fill="none" stroke="#005695" stroke-linecap="round" stroke-miterlimit="1"/>
          <line x1="310.134" y1="46.417" x2="310.134" y2="365.75" fill="none" stroke="#005695" stroke-linecap="round" stroke-miterlimit="1"/>
          <line x1="450.033" y1="46.417" x2="450.033" y2="357.75" fill="none" stroke="#005695" stroke-linecap="round" stroke-miterlimit="1"/>
          <g>
            <polyline points="315.301 117.584 325.551 117.584 325.519 127.412 322.388 127.413" fill="none" stroke="#005695" stroke-linecap="round" stroke-linejoin="round"/>
            <polygon points="323.972 125.088 315.301 127.417 323.974 129.737 323.972 125.088" fill="#005695"/>
          </g>
          <g>
            <polyline points="315.301 147.333 325.551 147.333 325.519 157.161 322.388 157.162" fill="none" stroke="#005695" stroke-linecap="round" stroke-linejoin="round"/>
            <polygon points="323.972 154.837 315.301 157.166 323.974 159.486 323.972 154.837" fill="#005695"/>
          </g>
          <g>
            <polyline points="315.301 173.333 325.551 173.333 325.519 183.161 322.388 183.163" fill="none" stroke="#005695" stroke-linecap="round" stroke-linejoin="round"/>
            <polygon points="323.972 180.838 315.301 183.166 323.974 185.486 323.972 180.838" fill="#005695"/>
          </g>
          <g>
            <polyline points="315.301 199.583 325.551 199.583 325.519 209.411 322.388 209.413" fill="none" stroke="#005695" stroke-linecap="round" stroke-linejoin="round"/>
            <polygon points="323.972 207.088 315.301 209.416 323.974 211.736 323.972 207.088" fill="#005695"/>
          </g>
          <g>
            <polyline points="315.301 343.583 325.551 343.583 325.519 353.411 322.388 353.413" fill="none" stroke="#005695" stroke-linecap="round" stroke-linejoin="round"/>
            <polygon points="323.972 351.088 315.301 353.416 323.974 355.736 323.972 351.088" fill="#005695"/>
          </g>
          <g>
            <polyline points="315.301 281.083 325.551 281.083 325.519 290.911 322.388 290.913" fill="none" stroke="#005695" stroke-linecap="round" stroke-linejoin="round"/>
            <polygon points="323.972 288.588 315.301 290.916 323.974 293.236 323.972 288.588" fill="#005695"/>
          </g>
          <g>
            <polyline points="101.7 118.667 91.45 118.667 91.481 128.495 94.612 128.496" fill="none" stroke="#005695" stroke-linecap="round" stroke-linejoin="round"/>
            <polygon points="93.026 130.82 101.699 128.498 93.027 126.172 93.026 130.82" fill="#005695"/>
          </g>
          <g>
            <polyline points="101.7 209.751 91.45 209.751 91.481 219.579 94.612 219.58" fill="none" stroke="#005695" stroke-linecap="round" stroke-linejoin="round"/>
            <polygon points="93.026 221.904 101.699 219.582 93.027 217.256 93.026 221.904" fill="#005695"/>
          </g>
          <g>
            <polyline points="101.7 289.917 91.45 289.917 91.481 299.745 94.612 299.746" fill="none" stroke="#005695" stroke-linecap="round" stroke-linejoin="round"/>
            <polygon points="93.026 302.07 101.699 299.748 93.027 297.422 93.026 302.07" fill="#005695"/>
          </g>
          <g>
            <polyline points="101.7 184.001 91.45 184.001 91.481 193.829 94.612 193.83" fill="none" stroke="#005695" stroke-linecap="round" stroke-linejoin="round"/>
            <polygon points="93.026 196.154 101.699 193.832 93.027 191.505 93.026 196.154" fill="#005695"/>
          </g>
          <g>
            <line x1="112.2" y1="81.584" x2="298.047" y2="81.584" fill="none" stroke="#005695" stroke-linecap="round" stroke-linejoin="round"/>
            <polygon points="296.462 83.908 305.134 81.584 296.462 79.26 296.462 83.908" fill="#005695"/>
          </g>
          <g>
            <line x1="112.2" y1="121.751" x2="298.047" y2="121.751" fill="none" stroke="#005695" stroke-linecap="round" stroke-linejoin="round"/>
            <polygon points="296.462 124.075 305.134 121.751 296.462 119.427 296.462 124.075" fill="#005695"/>
          </g>
          <g>
            <line x1="121.059" y1="183.751" x2="305.134" y2="183.751" fill="none" stroke="#005695" stroke-linecap="round" stroke-linejoin="round"/>
            <polygon points="123.041 186.657 112.2 183.751 123.041 180.846 123.041 186.657" fill="#005695"/>
          </g>
          <g>
            <line x1="121.059" y1="209.918" x2="305.134" y2="209.918" fill="none" stroke="#005695" stroke-linecap="round" stroke-linejoin="round"/>
            <polygon points="123.041 212.823 112.2 209.918 123.041 207.012 123.041 212.823" fill="#005695"/>
          </g>
          <g>
            <line x1="315.301" y1="237.752" x2="436.174" y2="237.752" fill="none" stroke="#005695" stroke-dasharray="2 2" stroke-linecap="round" stroke-miterlimit="1"/>
            <polygon points="434.192 240.657 445.033 237.752 434.192 234.846 434.192 240.657" fill="#005695"/>
          </g>
          <g>
            <line x1="324.16" y1="245.251" x2="444.949" y2="245.251" fill="none" stroke="#005695" stroke-dasharray="2 2" stroke-linecap="round" stroke-miterlimit="1"/>
            <polygon points="326.141 248.156 315.301 245.251 326.141 242.345 326.141 248.156" fill="#005695"/>
          </g>
          <g>
            <line x1="112.2" y1="343.668" x2="296.275" y2="343.668" fill="none" stroke="#005695" stroke-linecap="round" stroke-linejoin="round"/>
            <polygon points="294.294 346.573 305.134 343.668 294.294 340.762 294.294 346.573" fill="#005695"/>
          </g>
          <g>
            <line x1="112.2" y1="314.167" x2="296.275" y2="314.167" fill="none" stroke="#005695" stroke-linecap="round" stroke-linejoin="round"/>
            <polygon points="294.294 317.072 305.134 314.167 294.294 311.261 294.294 317.072" fill="#005695"/>
          </g>
          <g>
            <line x1="121.059" y1="320.917" x2="305.134" y2="320.917" fill="none" stroke="#005695" stroke-linecap="round" stroke-linejoin="round"/>
            <polygon points="123.041 323.822 112.2 320.917 123.041 318.011 123.041 323.822" fill="#005695"/>
          </g>
          <g>
            <line x1="121.059" y1="291.668" x2="305.134" y2="291.668" fill="none" stroke="#005695" stroke-linecap="round" stroke-linejoin="round"/>
            <polygon points="123.041 294.573 112.2 291.668 123.041 288.762 123.041 294.573" fill="#005695"/>
          </g>
          <rect x="102.2" y="206.334" width="9.5" height="16.666" fill="#ccdef0"/>
          <rect x="102.2" y="206.334" width="9.5" height="16.666" fill="none" stroke="#010101" stroke-linecap="round" stroke-linejoin="round" stroke-width=".75"/>
          <rect x="102.2" y="180.583" width="9.5" height="16.666" fill="#ccdef0"/>
          <rect x="102.2" y="180.583" width="9.5" height="16.666" fill="none" stroke="#010101" stroke-linecap="round" stroke-linejoin="round" stroke-width=".75"/>
          <rect x="102.2" y="284.584" width="9.5" height="64.666" fill="#ccdef0"/>
          <rect x="102.2" y="284.584" width="9.5" height="64.666" fill="none" stroke="#010101" stroke-linecap="round" stroke-linejoin="round" stroke-width=".75"/>
          <rect x="305.551" y="75.083" width="9.5" height="13.167" fill="#ccdef0"/>
          <rect x="305.551" y="75.083" width="9.5" height="13.167" fill="none" stroke="#010101" stroke-linecap="round" stroke-linejoin="round" stroke-width=".75"/>
          <rect x="102.45" y="75.083" width="9.5" height="13.167" fill="#ccdef0"/>
          <rect x="102.45" y="75.083" width="9.5" height="13.167" fill="none" stroke="#010101" stroke-linecap="round" stroke-linejoin="round" stroke-width=".75"/>
          <rect x="444.949" y="232.668" width="9.5" height="17.5" fill="none" stroke="#005695" stroke-dasharray="2 2" stroke-linecap="round" stroke-miterlimit="1"/>
          <rect x="305.551" y="340.584" width="9.5" height="16.834" fill="#ccdef0"/>
          <rect x="305.551" y="340.584" width="9.5" height="16.834" fill="none" stroke="#010101" stroke-linecap="round" stroke-linejoin="round" stroke-width=".75"/>
          <rect x="305.551" y="308.459" width="9.5" height="18.416" fill="#ccdef0"/>
          <rect x="305.551" y="308.459" width="9.5" height="18.416" fill="none" stroke="#010101" stroke-linecap="round" stroke-linejoin="round" stroke-width=".75"/>
          <rect x="305.551" y="114.833" width="9.5" height="13.167" fill="#ccdef0"/>
          <rect x="305.551" y="114.833" width="9.5" height="13.167" fill="none" stroke="#010101" stroke-linecap="round" stroke-linejoin="round" stroke-width=".75"/>
          <rect x="102.45" y="114.834" width="9.5" height="22.833" fill="#ccdef0"/>
          <rect x="102.45" y="114.834" width="9.5" height="22.833" fill="none" stroke="#010101" stroke-linecap="round" stroke-linejoin="round" stroke-width=".75"/>
          <rect x="305.551" y="142.833" width="9.5" height="154.166" fill="#ccdef0"/>
          <rect x="305.551" y="142.833" width="9.5" height="154.166" fill="none" stroke="#010101" stroke-linecap="round" stroke-linejoin="round" stroke-width=".75"/>
          <rect x="432.699" y="16.25" width="35" height="30" fill="#ccdef0" stroke="#231f20" stroke-miterlimit="10"/>
          <rect x="292.419" y="23.45" width="50" height="30" fill="#ccdef0" stroke="#231f20" stroke-miterlimit="10"/>
          <rect x="288.819" y="19.85" width="50" height="30" fill="#ccdef0" stroke="#231f20" stroke-miterlimit="10"/>
          <rect x="285.219" y="16.25" width="50" height="30" fill="#ccdef0" stroke="#231f20" stroke-miterlimit="10"/>
          <rect x="90.033" y="16.25" width="35" height="30" fill="#ccdef0" stroke="#231f20" stroke-miterlimit="10"/>
          <text transform="translate(99.532 33.705)" fill="#010101" font-size="9"><tspan x="0" y="0">RIS</tspan></text>
          <text transform="translate(296.467 28.305)" fill="#010101" font-size="9"><tspan x="0" y="0">X-RAY</tspan><tspan x="-7.503" y="10.8">(Room #1)</tspan></text>
          <text transform="translate(437.446 33.705)" fill="#010101" font-size="9"><tspan x="0" y="0">PACS</tspan></text>
          <text transform="translate(333.134 123.033)" fill="#010101" font-size="6.5"><tspan x="0" y="0">Create UPS for Task X</tspan></text>
          <text transform="translate(34.301 98.034)" fill="#010101" font-size="6.5"><tspan x="0" y="0">Patient (Mr. X) arrives </tspan></text>
          <text transform="translate(34.301 105.834)" fill="#010101" font-size="6.5"><tspan x="0" y="0">at Reception</tspan></text>
          <text transform="translate(34.301 121.369)" fill="#010101" font-size="6.5"><tspan x="0" y="0">RIS assigns Mr. X</tspan></text>
          <text transform="translate(34.301 129.169)" fill="#010101" font-size="6.5"><tspan x="0" y="0">to Room 1</tspan></text>
          <text transform="translate(34.301 185.868)" fill="#010101" font-size="6.5"><tspan x="0" y="0">Display Progress</tspan></text>
          <text transform="translate(34.301 193.668)" fill="#010101" font-size="6.5"><tspan x="0" y="0">“Exam Started”</tspan></text>
          <text transform="translate(34.301 209.866)" fill="#010101" font-size="6.5"><tspan x="0" y="0">Display Progress</tspan></text>
          <text transform="translate(34.301 217.666)" fill="#010101" font-size="6.5"><tspan x="0" y="0">“All Views Taken”</tspan></text>
          <text transform="translate(34.301 291.37)" fill="#010101" font-size="6.5"><tspan x="0" y="0">Display Progress</tspan></text>
          <text transform="translate(34.301 299.17)" fill="#010101" font-size="6.5"><tspan x="0" y="0">“Exam Complete”</tspan></text>
          <text transform="translate(333.134 150.703)" fill="#010101" font-size="6.5"><tspan x="0" y="0">Tech confirms identity of Mr. X</tspan></text>
          <text transform="translate(333.134 158.503)" fill="#010101" font-size="6.5"><tspan x="0" y="0">and begins procedure</tspan></text>
          <text transform="translate(333.134 177.522)" fill="#010101" font-size="6.5"><tspan x="0" y="0">Update Task X UPS Status to</tspan></text>
          <text transform="translate(333.134 185.323)" fill="#010101" font-size="6.5"><tspan x="0" y="0">IN-PROGRESS</tspan></text>
          <text transform="translate(333.134 204.342)" fill="#010101" font-size="6.5"><tspan x="0" y="0">Update Task X UPS Progress to</tspan></text>
          <text transform="translate(333.134 212.141)" fill="#010101" font-size="6.5"><tspan x="0" y="0">“All Views Taken”</tspan></text>
          <text transform="translate(333.134 235.06)" fill="#ed1c24" font-size="6.5"><tspan x="0" y="0">Store Images</tspan></text>
          <text transform="translate(333.134 265.877)" fill="#010101" font-size="6.5"><tspan x="0" y="0">Update Task X Details</tspan></text>
          <text transform="translate(333.134 284.545)" fill="#010101" font-size="6.5"><tspan x="0" y="0">Update Task X UPS Status to</tspan></text>
          <text transform="translate(333.134 292.345)" fill="#010101" font-size="6.5"><tspan x="0" y="0">COMPLETE</tspan></text>
          <text transform="translate(333.134 349.213)" fill="#010101" font-size="6.5"><tspan x="0" y="0">Delete Task X</tspan></text>
          <text transform="translate(120.864 70.383)" fill="#010101" font-size="6.5"><tspan x="0" y="0">Subscribe globally for events</tspan></text>
          <text transform="translate(120.864 78.183)" fill="#010101" font-size="6.5"><tspan x="0" y="0">(N-ACTION SUBSCRIBE [Well-Known Instance])</tspan></text>
          <text transform="translate(120.87 130.885)" fill="#010101" font-size="6.5"><tspan x="0" y="0">Add UPS Task (N-CREATE)</tspan></text>
          <text transform="translate(181.573 152.887)" fill="#010101" font-size="6.5"><tspan x="0" y="0">Patient (Mr. X) arrives at X-Ray Room 1</tspan></text>
          <text transform="translate(184.829 180.389)" fill="#010101" font-size="6.5"><tspan x="0" y="0">Report Task X In-Progress (N-EVENT)</tspan></text>
          <text transform="translate(192.415 206.389)" fill="#010101" font-size="6.5"><tspan x="0" y="0">Report Task X Progress (N-EVENT)</tspan></text>
          <text transform="translate(179.571 287.886)" fill="#010101" font-size="6.5"><tspan x="0" y="0">Report Task X Complete (N-EVENT)</tspan></text>
          <text transform="translate(179.571 311.884)" fill="#010101" font-size="6.5"><tspan x="0" y="0">Retrieve Final State Details (N-GET)</tspan></text>
          <text transform="translate(120.864 332.885)" fill="#010101" font-size="6.5"><tspan x="0" y="0">UnSubscribe for Task X</tspan></text>
          <text transform="translate(120.864 340.686)" fill="#010101" font-size="6.5"><tspan x="0" y="0">(N-ACTION SUBSCRIBE [Task X])</tspan></text>
          <text transform="translate(333.134 95.033)" fill="#010101" font-size="24"><tspan x="0" y="0">...</tspan></text>
        </g>
      </g>
    </g>
  </g>
</svg>