<?xml version="1.0" encoding="UTF-8"?>
<svg version="1.1" id="Layer_1" xmlns="http://www.w3.org/2000/svg" xmlns:xlink="http://www.w3.org/1999/xlink" x="0px" y="0px"
	 viewBox="0 0 507 267" enable-background="new 0 0 507 267" xml:space="preserve">

<defs>
	<style type="text/css">
	text {
	  font-family: Helvetica, Verdana, ArialUnicodeMS, san-serif
	}
	</style>
</defs>

<g>
   <desc>
	PS 3.17 : Explanatory Information
   </desc>
</g>

  <g>
    <g id="Layer_1">
      <g>
        <rect x="1" y="1" width="505" height="265" fill="#f3edd6"/>
        <g>
          <g>
            <line x1="85.94" y1="52.411" x2="85.94" y2="53.911" fill="none" stroke="#231f20" stroke-linecap="round" stroke-miterlimit="1" stroke-width=".5"/>
            <line x1="85.94" y1="56.925" x2="85.94" y2="248.327" fill="none" stroke="#231f20" stroke-dasharray="3.014 3.014" stroke-linecap="round" stroke-miterlimit="1" stroke-width=".5"/>
            <line x1="85.94" y1="249.834" x2="85.94" y2="251.334" fill="none" stroke="#231f20" stroke-linecap="round" stroke-miterlimit="1" stroke-width=".5"/>
          </g>
          <line x1="408.441" y1="72.491" x2="408.441" y2="251.334" fill="none" stroke="#231f20" stroke-linecap="round" stroke-miterlimit="1" stroke-width=".75"/>
          <line x1="229.94" y1="72.491" x2="229.94" y2="251.334" fill="none" stroke="#231f20" stroke-linecap="round" stroke-miterlimit="1" stroke-width=".75"/>
          <g>
            <line x1="243.374" y1="213.924" x2="403.691" y2="213.924" fill="none" stroke="#005695" stroke-linecap="round" stroke-miterlimit="1" stroke-width=".981"/>
            <polygon points="245.317 216.773 234.685 213.924 245.317 211.075 245.317 216.773" fill="#005695"/>
          </g>
          <g>
            <polyline points="234.761 142.043 249.141 142.026 249.141 152.741 243.665 152.741" fill="none" stroke="#005695" stroke-linecap="round" stroke-miterlimit="1"/>
            <polygon points="245.646 149.836 234.805 152.741 245.646 155.646 245.646 149.836" fill="#005695"/>
          </g>
          <g>
            <line x1="234.704" y1="181.218" x2="394.813" y2="181.218" fill="none" stroke="#005695" stroke-linecap="round" stroke-miterlimit="1"/>
            <polygon points="392.831 184.123 403.672 181.218 392.831 178.312 392.831 184.123" fill="#005695"/>
          </g>
          <g>
            <line x1="85.983" y1="116.907" x2="215.842" y2="116.907" fill="none" stroke="#005695" stroke-linecap="round" stroke-miterlimit="1"/>
            <polygon points="213.861 119.812 224.701 116.907 213.861 114.002 213.861 119.812" fill="#005695"/>
          </g>
          <rect x="372.441" y="22.368" width="72" height="30.289" fill="#ccdef0" stroke="#010101" stroke-linecap="round" stroke-linejoin="round" stroke-width=".75"/>
          <text transform="translate(381.933 40.02)" fill="#231f20" font-size="9"><tspan x="0" y="0">Origin Server</tspan></text>
          <rect x="182.015" y="22.368" width="95.85" height="30.289" fill="#ccdef0" stroke="#010101" stroke-linecap="round" stroke-linejoin="round" stroke-width=".811"/>
          <text transform="translate(207.928 34.62)" fill="#231f20" font-size="9"><tspan x="0" y="0">User agent</tspan><tspan x="-21.502" y="10.8">(zero footprint viewer)</tspan></text>
          <text transform="translate(102.251 34.62)" fill="#231f20" font-size="9"><tspan x="0" y="0">Clinical</tspan><tspan x="0" y="10.8">User</tspan></text>
          <text transform="translate(275.911 211.561)" fill="#010101" font-size="9"><tspan x="0" y="0">Return images in</tspan><tspan x="0" y="10.8">requested media type</tspan></text>
          <text transform="translate(251.797 146.536)" fill="#010101" font-size="9"><tspan x="0" y="0">Retrieve rendering parameters</tspan></text>
          <g>
            <polyline points="413.311 192.649 427.691 192.633 427.691 203.347 422.214 203.347" fill="none" stroke="#005695" stroke-linecap="round" stroke-miterlimit="1"/>
            <polygon points="424.196 200.442 413.355 203.347 424.196 206.253 424.196 200.442" fill="#005695"/>
          </g>
          <text transform="translate(430.227 197.143)" fill="#010101" font-size="9"><tspan x="0" y="0">Render images</tspan></text>
          <text transform="translate(104.185 114.025)" fill="#010101" font-size="9"><tspan x="0" y="0">Select hanging protocol</tspan></text>
          <rect x="225.185" y="153.082" width="9.5" height="15.167" fill="#ccdef0" stroke="#010101" stroke-linecap="round" stroke-linejoin="round" stroke-width=".75"/>
          <text transform="translate(271.426 179.049)" fill="#010101" font-size="9"><tspan x="0" y="0">GET http://server.com../</tspan></text>
          <rect x="403.691" y="181.218" width="9.5" height="32.706" fill="#ccdef0" stroke="#010101" stroke-linecap="round" stroke-linejoin="round" stroke-width=".439"/>
          <rect x="225.268" y="209.694" width="9.5" height="32.706" fill="#ccdef0" stroke="#010101" stroke-linecap="round" stroke-linejoin="round" stroke-width=".439"/>
          <rect x="225.271" y="105.734" width="9.494" height="80.919" fill="#ccdef0" stroke="#010101" stroke-linecap="round" stroke-linejoin="round" stroke-width=".607"/>
          <g>
            <path d="M108.217,71.467H15.742v24.682h100.165v-15.679l-7.69-9.002" fill="#fff" stroke="#010101" stroke-linecap="round" stroke-linejoin="round" stroke-width=".72"/>
            <path d="M108.217,71.467v9h7.69" fill="none" stroke="#010101" stroke-linecap="round" stroke-linejoin="round" stroke-width=".72"/>
            <text transform="translate(20.885 81.438)" fill="#010101" font-size="9"><tspan x="0" y="0">“Render phase 2 as </tspan><tspan x="0" y="10.8">coronal MPR”</tspan></text>
          </g>
          <g>
            <line x1="229.935" y1="52.411" x2="229.935" y2="53.911" fill="none" stroke="#231f20" stroke-linecap="round" stroke-miterlimit="1" stroke-width=".5"/>
            <line x1="229.935" y1="56.98" x2="229.935" y2="67.72" fill="none" stroke="#231f20" stroke-dasharray="3.069 3.069" stroke-linecap="round" stroke-miterlimit="1" stroke-width=".5"/>
            <line x1="229.935" y1="69.255" x2="229.935" y2="70.755" fill="none" stroke="#231f20" stroke-linecap="round" stroke-miterlimit="1" stroke-width=".5"/>
          </g>
          <g>
            <line x1="408.436" y1="52.411" x2="408.436" y2="53.911" fill="none" stroke="#231f20" stroke-linecap="round" stroke-miterlimit="1" stroke-width=".5"/>
            <line x1="408.436" y1="56.98" x2="408.436" y2="67.72" fill="none" stroke="#231f20" stroke-dasharray="3.069 3.069" stroke-linecap="round" stroke-miterlimit="1" stroke-width=".5"/>
            <line x1="408.436" y1="69.255" x2="408.436" y2="70.755" fill="none" stroke="#231f20" stroke-linecap="round" stroke-miterlimit="1" stroke-width=".5"/>
          </g>
          <g>
            <polygon points="89.434 40.244 89.302 40.573 89.251 41.386 89.323 42.127 89.652 43.422 89.678 43.496 89.912 43.905 90.042 44.005 90.089 44.028 90.161 44.032 90.239 44.029 90.315 44.008 90.368 43.982 90.394 43.954 90.495 43.823 90.619 43.362 90.568 42.026 90.418 41.286 90.135 40.497 90.11 40.448 89.887 40.172 89.834 40.164 89.656 40.119 89.477 40.217 89.434 40.244" fill="#b2cee7" stroke="#231f20" stroke-linecap="round" stroke-linejoin="round" stroke-width=".25"/>
            <polygon points="90.625 39.381 90.395 39.046 90.039 38.842 89.63 38.802 89.246 38.954 88.965 39.257 88.84 39.657 88.895 40.063 88.917 40.114 89.147 40.449 89.504 40.653 89.914 40.681 90.298 40.542 90.593 40.238 90.72 39.838 90.652 39.431 90.625 39.381" fill="#b2cee7" stroke="#231f20" stroke-linecap="round" stroke-linejoin="round" stroke-width=".25"/>
            <polygon points="82.216 40.111 82.374 40.349 82.478 41.063 82.495 41.237 82.471 41.947 82.213 43.189 81.97 43.619 81.915 43.717 81.808 43.795 81.736 43.844 81.656 43.87 81.563 43.87 81.504 43.844 81.408 43.794 81.352 43.718 81.196 43.343 81.152 42.142 81.151 41.945 81.255 41.233 81.506 40.468 81.586 40.345 81.767 40.096 81.86 40.045 81.965 40.019 82.07 40.019 82.165 40.046 82.216 40.111" fill="#b2cee7" stroke="#231f20" stroke-linecap="round" stroke-linejoin="round" stroke-width=".25"/>
            <polygon points="82.725 40.299 82.931 39.984 82.975 39.584 82.826 39.203 82.526 38.903 82.141 38.765 81.735 38.791 81.4 38.978 81.301 39.105 81.096 39.435 81.054 39.834 81.202 40.215 81.503 40.502 81.887 40.653 82.292 40.628 82.628 40.443 82.725 40.299" fill="#b2cee7" stroke="#231f20" stroke-linecap="round" stroke-linejoin="round" stroke-width=".25"/>
            <polygon points="83.507 37.884 83.231 38.158 83.131 38.283 82.57 40.85 82.6 42.101 82.882 43.017 83.157 43.392 83.256 43.513 83.39 43.59 84.144 43.855 85.238 44.022 86.459 44.008 87.548 43.852 88.266 43.573 88.413 43.496 88.513 43.387 88.748 43.011 89.047 42.095 89.093 40.831 88.54 38.266 88.44 38.141 88.152 37.88 88.055 37.811 87.346 37.609 86.354 37.504 85.266 37.505 84.293 37.625 83.593 37.827 83.507 37.884" fill="#b2cee7" stroke="#231f20" stroke-linecap="round" stroke-linejoin="round" stroke-width=".25"/>
            <polyline points="90.063 38.421 90.063 38.435 90.012 38.589 90.11 38.98 90.11 38.98 90.343 39.431 90.596 39.865 90.881 40.167 91.051 40.198 91.23 40.146 93.766 39.08 96.46 37.501 96.819 37.225 96.992 37.023 97.021 36.869 96.968 36.689 96.818 36.364 96.613 35.977 96.387 35.594 96.187 35.292 96.06 35.139 95.908 35.086 95.652 35.117 95.224 35.287 92.452 36.72 90.211 38.308 90.063 38.421 90.11 38.98 90.11 38.98" fill="#b2cee7" stroke="#231f20" stroke-linecap="round" stroke-linejoin="round" stroke-width=".25"/>
            <polygon points="87.647 38.238 86.834 38.795 86.534 38.918 86.099 38.977 85.599 38.977 85.161 38.919 84.855 38.797 84.049 38.241 83.866 37.985 83.364 37.018 83.36 35.927 83.845 34.937 84.049 34.71 84.852 34.124 85.156 34.025 85.592 33.973 86.078 33.973 86.529 34.024 86.839 34.123 87.622 34.708 87.851 34.934 88.331 35.924 88.311 37.014 87.806 37.982 87.647 38.238" fill="#b2cee7" stroke="#231f20" stroke-linecap="round" stroke-linejoin="round" stroke-width=".25"/>
            <polygon points="74.977 37.348 75.337 37.608 78.03 39.132 80.565 40.147 80.745 40.198 80.901 40.165 81.196 39.858 81.248 39.784 81.33 39.634 81.435 39.436 81.551 39.234 81.629 39.072 81.663 38.968 81.761 38.567 81.757 38.522 81.689 38.366 81.554 38.241 79.271 36.695 76.482 35.318 76.066 35.167 75.799 35.139 75.66 35.194 75.517 35.315 75.315 35.592 75.103 35.958 74.9 36.363 74.755 36.715 74.706 36.94 74.749 37.093 74.908 37.279 74.977 37.348" fill="#b2cee7" stroke="#231f20" stroke-linecap="round" stroke-linejoin="round" stroke-width=".25"/>
            <polygon points="73.964 34.812 74.392 34.629 74.874 34.654 75.312 34.887 75.622 35.289 75.748 35.77 75.665 36.231 75.383 36.588 75.229 36.734 74.801 36.915 74.319 36.888 73.883 36.644 73.56 36.256 73.432 35.775 73.512 35.313 73.793 34.939 73.964 34.812" fill="#b2cee7" stroke="#231f20" stroke-linecap="round" stroke-linejoin="round" stroke-width=".25"/>
            <polygon points="97.117 34.528 97.609 34.606 98.016 34.892 98.258 35.343 98.261 35.472 98.265 35.955 98.057 36.384 97.962 36.483 97.807 36.591 97.606 36.709 97.406 36.788 97.25 36.82 97.169 36.814 96.665 36.736 96.259 36.439 96.028 36.002 96.009 35.494 96.024 35.392 96.229 34.962 96.312 34.864 96.481 34.757 96.615 34.678 96.668 34.652 96.868 34.559 97.022 34.525 97.117 34.528" fill="#b2cee7" stroke="#231f20" stroke-linecap="round" stroke-linejoin="round" stroke-width=".25"/>
            <polygon points="74.271 34.456 74.353 34.327 76.407 32.144 77.806 30.691 78.009 30.54 79.32 29.687 79.675 29.607 79.904 29.633 80.156 29.712 80.486 29.958 80.822 30.296 81.106 30.693 81.3 31.048 81.332 31.303 81.329 31.534 81.201 31.869 80.206 33.056 80.013 33.231 78.407 34.425 75.995 36.178 75.849 36.237 75.712 36.229 75.436 36.182 75.083 35.976 74.728 35.643 74.443 35.244 74.273 34.881 74.271 34.606 74.271 34.456" fill="#b2cee7" stroke="#231f20" stroke-linecap="round" stroke-linejoin="round" stroke-width=".25"/>
            <polygon points="97.479 34.499 97.395 34.273 97.301 34.144 95.24 31.969 93.841 30.523 92.505 29.686 92.144 29.606 91.914 29.603 91.707 29.628 91.404 29.787 91.055 30.089 90.729 30.469 90.496 30.852 90.392 31.175 90.394 31.384 90.445 31.606 90.59 31.96 91.592 33.137 93.213 34.309 95.645 36.035 95.779 36.107 96.027 36.158 96.157 36.136 96.484 36.007 96.844 35.728 97.173 35.349 97.401 34.961 97.479 34.63 97.479 34.499" fill="#b2cee7" stroke="#231f20" stroke-linecap="round" stroke-linejoin="round" stroke-width=".25"/>
            <polygon points="83.615 34.863 83.208 34.223 83.052 33.214 82.543 29.94 82.829 27.728 83.381 27.09 83.638 26.944 84.503 26.581 84.929 26.51 85.52 26.479 86.185 26.479 86.793 26.509 87.225 26.58 88.084 26.942 88.364 27.088 88.915 27.725 89.181 29.937 88.661 33.211 88.489 34.207 88.08 34.859 87.883 35.063 87.294 35.245 86.862 35.368 86.226 35.439 85.512 35.44 84.858 35.369 84.421 35.247 83.836 35.065 83.615 34.863" fill="#b2cee7" stroke="#231f20" stroke-linecap="round" stroke-linejoin="round" stroke-width=".25"/>
            <polygon points="80.62 28.382 80.114 28.823 79.875 29.458 79.927 30.162 80.261 30.776 80.82 31.204 81.486 31.352 82.144 31.182 82.65 30.747 82.803 30.599 83.059 29.98 83.025 29.277 82.68 28.66 82.119 28.23 81.451 28.083 80.794 28.257 80.62 28.382" fill="#b2cee7" stroke="#231f20" stroke-linecap="round" stroke-linejoin="round" stroke-width=".25"/>
            <polygon points="91.311 28.461 91.739 29.042 91.867 29.752 91.684 30.446 91.206 31.003 90.547 31.304 89.835 31.282 89.203 30.952 88.789 30.386 88.661 29.678 88.843 28.973 89.305 28.416 89.963 28.113 90.677 28.132 90.702 28.137 91.311 28.461" fill="#b2cee7" stroke="#231f20" stroke-linecap="round" stroke-linejoin="round" stroke-width=".25"/>
            <polygon points="86.583 26.883 87.148 26.426 87.476 25.751 87.479 25.013 87.171 24.347 86.605 23.873 86.528 23.84 85.879 23.713 85.236 23.841 85.164 23.886 84.598 24.348 84.274 25.014 84.275 25.765 84.6 26.427 85.164 26.883 85.238 26.934 85.439 26.966 85.873 27.041 86.328 26.966 86.514 26.933 86.583 26.883" fill="#b2cee7" stroke="#231f20" stroke-linecap="round" stroke-linejoin="round" stroke-width=".25"/>
            <polygon points="83.967 24.369 83.615 24.073 83.36 23.566 83.184 22.777 82.601 19.145 82.854 17.819 83.82 16.424 84.729 15.872 85.904 15.666 87.092 15.872 87.985 16.424 88.947 17.818 89.196 19.144 88.59 22.776 88.41 23.564 88.153 24.072 87.801 24.355 87.629 24.449 87.114 24.523 86.334 24.556 85.468 24.556 84.684 24.524 84.148 24.45 83.967 24.369" fill="#b2cee7" stroke="#231f20" stroke-linecap="round" stroke-linejoin="round" stroke-width=".25"/>
            <polygon points="81.969 67.566 82.391 67.454 83.618 65.394 83.908 64.627 83.903 64.22 83.912 63.958 83.745 63.683 83.43 63.452 83.05 63.309 82.675 63.28 82.369 63.378 82.094 63.63 81.9 63.858 81.552 64.616 80.918 66.899 81.138 67.254 81.283 67.362 81.531 67.483 81.786 67.552 81.969 67.566" fill="#b2cee7" stroke="#231f20" stroke-linecap="round" stroke-linejoin="round" stroke-width=".25"/>
            <polygon points="83.256 62.279 83.085 62.279 82.934 62.313 82.77 62.382 82.572 62.514 82.425 62.764 82.34 62.974 82.342 63.299 82.414 63.523 82.568 63.76 82.746 63.908 83.005 63.986 83.081 64.009 83.253 64.009 83.392 63.961 83.582 63.908 83.766 63.761 83.915 63.524 83.997 63.3 83.996 62.988 83.92 62.765 83.769 62.515 83.59 62.383 83.405 62.313 83.256 62.279" fill="#b2cee7" stroke="#231f20" stroke-linecap="round" stroke-linejoin="round" stroke-width=".25"/>
            <polygon points="83.035 63.12 82.681 62.998 82.447 62.791 82.372 62.535 82.238 61.999 82.165 60.887 81.888 58.067 81.906 55.018 82.016 54.565 82.145 54.284 82.296 54.177 82.574 53.98 82.959 53.877 83.388 53.878 83.769 53.981 83.887 54.059 84.193 54.286 84.297 54.567 84.425 55.02 84.522 58.069 84.321 60.889 84.274 62.001 84.148 62.536 84.051 62.792 83.797 62.999 83.437 63.121 83.41 63.121 83.08 63.121 83.035 63.12" fill="#b2cee7" stroke="#231f20" stroke-linecap="round" stroke-linejoin="round" stroke-width=".25"/>
            <polygon points="83.438 52.938 83.688 53.021 83.917 53.192 84.103 53.502 84.203 53.772 84.204 54.178 84.098 54.437 83.916 54.746 83.667 54.92 83.439 54.998 83.255 55.05 83.035 55.049 82.854 54.998 82.602 54.919 82.374 54.744 82.172 54.436 82.09 54.164 82.086 53.757 82.211 53.501 82.39 53.191 82.626 53.02 82.852 52.937 83.05 52.886 83.256 52.886 83.438 52.938" fill="#b2cee7" stroke="#231f20" stroke-linecap="round" stroke-linejoin="round" stroke-width=".25"/>
            <polygon points="84.27 53.72 84.395 53.496 84.429 53.366 84.422 53.12 84.929 48.771 85.244 45.546 85.03 45.144 84.882 44.939 84.481 44.762 84.148 44.616 83.797 44.556 83.412 44.534 83.058 44.564 82.705 44.682 82.298 44.814 82.141 45.011 81.882 45.377 81.887 48.624 81.964 53.013 81.933 53.245 81.96 53.39 82.062 53.62 82.121 53.671 82.427 53.854 82.884 53.975 83.408 54 83.869 53.924 84.195 53.756 84.27 53.72" fill="#b2cee7" stroke="#231f20" stroke-linecap="round" stroke-linejoin="round" stroke-width=".25"/>
            <polygon points="89.489 67.541 89.061 67.399 87.934 65.28 87.666 64.491 87.684 64.091 87.714 63.838 87.906 63.576 88.237 63.373 88.625 63.248 89.003 63.263 89.295 63.373 89.556 63.645 89.732 63.901 90.051 64.662 90.575 66.967 90.341 67.298 90.188 67.394 89.933 67.494 89.673 67.541 89.489 67.541" fill="#b2cee7" stroke="#231f20" stroke-linecap="round" stroke-linejoin="round" stroke-width=".25"/>
            <polygon points="88.238 62.259 88.41 62.258 88.562 62.304 88.722 62.36 88.922 62.492 89.067 62.741 89.17 62.963 89.154 63.275 89.099 63.5 88.943 63.75 88.769 63.885 88.512 63.964 88.418 63.987 88.26 63.988 88.107 63.954 87.933 63.901 87.746 63.754 87.6 63.506 87.499 63.295 87.502 62.97 87.573 62.759 87.727 62.509 87.902 62.363 88.103 62.306 88.238 62.259" fill="#b2cee7" stroke="#231f20" stroke-linecap="round" stroke-linejoin="round" stroke-width=".25"/>
            <polygon points="88.488 63.099 88.841 62.988 89.069 62.768 89.201 62.263 89.276 61.976 89.355 60.864 89.659 58.043 89.681 54.995 89.561 54.543 89.425 54.262 89.276 54.155 88.993 53.959 88.593 53.857 88.165 53.859 87.8 53.976 87.679 54.054 87.391 54.282 87.293 54.563 87.163 55.017 87.038 58.066 87.2 60.885 87.241 61.984 87.352 62.531 87.454 62.787 87.725 62.993 88.086 63.1 88.11 63.101 88.44 63.1 88.488 63.099" fill="#b2cee7" stroke="#231f20" stroke-linecap="round" stroke-linejoin="round" stroke-width=".25"/>
            <polygon points="88.559 55.042 88.34 55.043 88.154 54.992 87.931 54.915 87.68 54.74 87.501 54.433 87.375 54.161 87.392 53.755 87.473 53.498 87.674 53.188 87.898 53.015 88.153 52.919 88.334 52.867 88.541 52.867 88.74 52.917 88.947 53.012 89.201 53.169 89.376 53.492 89.507 53.748 89.501 54.154 89.425 54.413 89.22 54.723 88.997 54.898 88.74 54.99 88.559 55.042" fill="#b2cee7" stroke="#231f20" stroke-linecap="round" stroke-linejoin="round" stroke-width=".25"/>
            <polygon points="89.551 53.597 89.633 53.367 89.661 53.223 89.63 52.991 89.729 48.603 89.755 45.369 89.484 44.991 89.306 44.794 88.891 44.663 88.545 44.559 88.188 44.529 87.805 44.539 87.468 44.612 87.115 44.76 86.734 44.938 86.607 45.142 86.38 45.545 86.688 48.769 87.173 53.116 87.165 53.35 87.198 53.493 87.344 53.704 87.418 53.752 87.749 53.906 88.214 53.98 88.737 53.955 89.178 53.832 89.479 53.649 89.551 53.597" fill="#b2cee7" stroke="#231f20" stroke-linecap="round" stroke-linejoin="round" stroke-width=".25"/>
            <polygon points="84.149 45.501 84.649 45.198 84.759 45.043 85.084 44.484 85.114 43.848 84.856 43.26 84.735 43.093 84.293 42.738 84.102 42.675 83.845 42.625 83.561 42.605 83.289 42.63 83.107 42.684 82.623 42.991 82.494 43.14 82.171 43.701 82.145 44.351 82.416 44.936 82.519 45.097 82.978 45.447 83.154 45.526 83.411 45.579 83.71 45.598 83.969 45.571 84.149 45.501" fill="#b2cee7" stroke="#231f20" stroke-linecap="round" stroke-linejoin="round" stroke-width=".25"/>
            <polygon points="87.52 42.659 87.776 42.609 88.061 42.601 88.334 42.625 88.519 42.679 88.998 42.985 89.146 43.134 89.456 43.694 89.481 44.331 89.221 44.917 89.126 45.09 88.663 45.429 88.489 45.521 88.234 45.574 87.936 45.582 87.675 45.555 87.479 45.497 86.995 45.196 86.866 45.041 86.555 44.483 86.514 43.847 86.785 43.246 86.887 43.091 87.346 42.735 87.52 42.659" fill="#b2cee7" stroke="#231f20" stroke-linecap="round" stroke-linejoin="round" stroke-width=".25"/>
          </g>
        </g>
      </g>
    </g>
  </g>
</svg>