<?xml version="1.0" encoding="UTF-8"?>
<svg version="1.1" id="Layer_1" xmlns="http://www.w3.org/2000/svg" xmlns:xlink="http://www.w3.org/1999/xlink" x="0px" y="0px"
	 viewBox="0 0 652 372" enable-background="new 0 0 652 372" xml:space="preserve">
    
<defs>
	<style type="text/css">
	text {
	  font-family: Helvetica, Verdana, ArialUnicodeMS, san-serif
	}
	</style>
</defs>

<g>
   <desc>
	PS 3.3 : Information Object Definitions
   </desc>
</g>


  
  <g>
    <g id="Layer_1">
      <g>
        <rect x="1" y="1" width="650" height="370" fill="#f2ecc0"/>
        <g>
          <rect x="42.22" y="135.087" width="567.56" height="217.477" fill="#fff" opacity=".1"/>
          <rect x="42.22" y="19.436" width="567.56" height="115.668" fill="#fff" opacity=".1"/>
          <rect x="42.22" y="19.436" width="567.56" height="115.668" fill="#f1d1e5"/>
          <rect x="42.22" y="135.087" width="567.56" height="217.477" fill="#c3e2c1"/>
          <line x1="372.451" y1="28.068" x2="372.649" y2="154.754" fill="none" stroke="#231f20" stroke-dasharray=".5 2" stroke-linecap="round" stroke-width=".75"/>
          <text transform="translate(50.206 32.673)" fill="#231f20" font-size="10"><tspan x="0" y="0">Height Map Segmentation</tspan></text>
          <text transform="translate(50.999 150.55)" fill="#231f20" font-size="10"><tspan x="0" y="0">Derivation Image</tspan></text>
          <text transform="translate(452.675 198.433)" fill="#231f20" font-size="10"><tspan x="0" y="0">Derivation image frame spacing </tspan><tspan x="0" y="12">derived from differences in </tspan><tspan x="0" y="24">Image Position (Patient)</tspan></text>
          <text transform="translate(444.175 114.161)" fill="#231f20" font-size="10"><tspan x="0" y="0">Height Map column spacing equals </tspan><tspan x="0" y="12">Derivation image column spacing</tspan></text>
          <text transform="translate(431.175 43.871)" fill="#231f20" font-size="10"><tspan x="0" y="0">Height Map row spacing equals </tspan><tspan x="0" y="12">Derivation image frame spacing</tspan></text>
          <g>
            <polygon points="372.783 242.138 202.929 272.087 202.929 184.704 372.783 154.754 372.783 242.138" fill="#d2dce5" stroke="#000" stroke-miterlimit="10"/>
            <polygon points="380.808 250.924 210.953 280.874 210.953 193.49 380.808 163.54 380.808 250.924" fill="#d2dce5" stroke="#000" stroke-miterlimit="10"/>
            <polygon points="388.832 259.71 218.978 289.66 218.978 202.276 388.832 172.326 388.832 259.71" fill="#d2dce5" stroke="#000" stroke-miterlimit="10"/>
            <g>
              <polygon points="396.856 268.496 227.002 298.446 227.002 211.062 396.856 181.113 396.856 268.496" fill="#d2dce5"/>
              <g>
                <polyline points="396.856 266.496 396.856 268.496 394.887 268.844" fill="none" stroke="#000" stroke-miterlimit="10"/>
                <line x1="391.028" y1="269.524" x2="230.901" y2="297.759" fill="none" stroke="#000" stroke-dasharray="3.918 3.918" stroke-miterlimit="10"/>
                <polyline points="228.971 298.099 227.002 298.446 227.002 296.446" fill="none" stroke="#000" stroke-miterlimit="10"/>
                <line x1="227.002" y1="292.476" x2="227.002" y2="215.048" fill="none" stroke="#000" stroke-dasharray="3.971 3.971" stroke-miterlimit="10"/>
                <polyline points="227.002 213.063 227.002 211.063 228.971 210.715" fill="none" stroke="#000" stroke-miterlimit="10"/>
                <line x1="232.83" y1="210.035" x2="392.957" y2="181.8" fill="none" stroke="#000" stroke-dasharray="3.918 3.918" stroke-miterlimit="10"/>
                <polyline points="394.887 181.46 396.856 181.113 396.856 183.113" fill="none" stroke="#000" stroke-miterlimit="10"/>
                <line x1="396.856" y1="187.083" x2="396.856" y2="264.511" fill="none" stroke="#000" stroke-dasharray="3.971 3.971" stroke-miterlimit="10"/>
              </g>
            </g>
            <g>
              <polygon points="404.881 277.283 235.026 307.233 235.026 219.849 404.881 189.899 404.881 277.283" fill="#d2dce5"/>
              <g>
                <polyline points="404.881 275.283 404.881 277.283 402.911 277.63" fill="none" stroke="#000" stroke-miterlimit="10"/>
                <line x1="399.052" y1="278.31" x2="238.925" y2="306.545" fill="none" stroke="#000" stroke-dasharray="3.918 3.918" stroke-miterlimit="10"/>
                <polyline points="236.996 306.885 235.026 307.233 235.026 305.233" fill="none" stroke="#000" stroke-miterlimit="10"/>
                <line x1="235.026" y1="301.262" x2="235.026" y2="223.834" fill="none" stroke="#000" stroke-dasharray="3.971 3.971" stroke-miterlimit="10"/>
                <polyline points="235.026 221.849 235.026 219.849 236.996 219.501" fill="none" stroke="#000" stroke-miterlimit="10"/>
                <line x1="240.854" y1="218.821" x2="400.982" y2="190.586" fill="none" stroke="#000" stroke-dasharray="3.918 3.918" stroke-miterlimit="10"/>
                <polyline points="402.911 190.246 404.881 189.899 404.881 191.899" fill="none" stroke="#000" stroke-miterlimit="10"/>
                <line x1="404.881" y1="195.87" x2="404.881" y2="273.297" fill="none" stroke="#000" stroke-dasharray="3.971 3.971" stroke-miterlimit="10"/>
              </g>
            </g>
            <polygon points="412.905 286.069 243.05 316.019 243.05 228.635 412.905 198.685 412.905 286.069" fill="#d2dce5" stroke="#000" stroke-dasharray="4" stroke-miterlimit="10"/>
            <polygon points="420.929 294.855 251.075 324.805 251.075 237.421 420.929 207.471 420.929 294.855" fill="#d2dce5" stroke="#000" stroke-miterlimit="10"/>
            <polygon points="428.954 303.641 259.099 333.591 259.099 246.208 428.954 216.258 428.954 303.641" fill="#d2dce5" stroke="#000" stroke-miterlimit="10"/>
            <polygon points="436.978 312.428 267.123 342.378 267.123 254.994 436.978 225.044 436.978 312.428" fill="#d2dce5" stroke="#000" stroke-miterlimit="10"/>
            <g>
              <polygon points="267.123 255.116 436.978 225.166 436.978 312.306 267.123 342.256 267.123 255.116" fill="none" stroke="#000" stroke-miterlimit="10" stroke-width=".5"/>
              <line x1="267.123" y1="335.553" x2="436.978" y2="305.603" fill="none" stroke="#000" stroke-miterlimit="10" stroke-width=".5"/>
              <line x1="267.123" y1="328.85" x2="436.978" y2="298.9" fill="none" stroke="#000" stroke-miterlimit="10" stroke-width=".5"/>
              <line x1="267.123" y1="322.147" x2="436.978" y2="292.197" fill="none" stroke="#000" stroke-miterlimit="10" stroke-width=".5"/>
              <line x1="267.123" y1="315.444" x2="436.978" y2="285.494" fill="none" stroke="#000" stroke-miterlimit="10" stroke-width=".5"/>
              <line x1="267.123" y1="308.74" x2="436.978" y2="278.791" fill="none" stroke="#000" stroke-miterlimit="10" stroke-width=".5"/>
              <line x1="267.123" y1="302.037" x2="436.978" y2="272.087" fill="none" stroke="#000" stroke-miterlimit="10" stroke-width=".5"/>
              <line x1="267.123" y1="295.334" x2="436.978" y2="265.384" fill="none" stroke="#000" stroke-miterlimit="10" stroke-width=".5"/>
              <line x1="267.123" y1="288.631" x2="436.978" y2="258.681" fill="none" stroke="#000" stroke-miterlimit="10" stroke-width=".5"/>
              <line x1="267.123" y1="281.928" x2="436.978" y2="251.978" fill="none" stroke="#000" stroke-miterlimit="10" stroke-width=".5"/>
              <line x1="267.123" y1="275.225" x2="436.978" y2="245.275" fill="none" stroke="#000" stroke-miterlimit="10" stroke-width=".5"/>
              <line x1="267.123" y1="268.522" x2="436.978" y2="238.572" fill="none" stroke="#000" stroke-miterlimit="10" stroke-width=".5"/>
              <line x1="267.123" y1="261.819" x2="436.978" y2="231.869" fill="none" stroke="#000" stroke-miterlimit="10" stroke-width=".5"/>
              <line x1="431.121" y1="226.198" x2="431.121" y2="313.339" fill="none" stroke="#000" stroke-miterlimit="10" stroke-width=".5"/>
              <line x1="425.264" y1="227.231" x2="425.264" y2="314.372" fill="none" stroke="#000" stroke-miterlimit="10" stroke-width=".5"/>
              <line x1="419.407" y1="228.264" x2="419.407" y2="315.404" fill="none" stroke="#000" stroke-miterlimit="10" stroke-width=".5"/>
              <line x1="413.55" y1="229.297" x2="413.55" y2="316.437" fill="none" stroke="#000" stroke-miterlimit="10" stroke-width=".5"/>
              <line x1="407.693" y1="230.33" x2="407.693" y2="317.47" fill="none" stroke="#000" stroke-miterlimit="10" stroke-width=".5"/>
              <line x1="401.836" y1="231.362" x2="401.836" y2="318.503" fill="none" stroke="#000" stroke-miterlimit="10" stroke-width=".5"/>
              <line x1="395.978" y1="232.395" x2="395.978" y2="319.535" fill="none" stroke="#000" stroke-miterlimit="10" stroke-width=".5"/>
              <line x1="390.121" y1="233.428" x2="390.121" y2="320.568" fill="none" stroke="#000" stroke-miterlimit="10" stroke-width=".5"/>
              <line x1="384.264" y1="234.461" x2="384.264" y2="321.601" fill="none" stroke="#000" stroke-miterlimit="10" stroke-width=".5"/>
              <line x1="378.407" y1="235.493" x2="378.407" y2="322.634" fill="none" stroke="#000" stroke-miterlimit="10" stroke-width=".5"/>
              <line x1="372.55" y1="236.526" x2="372.55" y2="323.666" fill="none" stroke="#000" stroke-miterlimit="10" stroke-width=".5"/>
              <line x1="366.693" y1="237.559" x2="366.693" y2="324.699" fill="none" stroke="#000" stroke-miterlimit="10" stroke-width=".5"/>
              <line x1="360.836" y1="238.592" x2="360.836" y2="325.732" fill="none" stroke="#000" stroke-miterlimit="10" stroke-width=".5"/>
              <line x1="354.979" y1="239.624" x2="354.979" y2="326.765" fill="none" stroke="#000" stroke-miterlimit="10" stroke-width=".5"/>
              <line x1="349.122" y1="240.657" x2="349.122" y2="327.797" fill="none" stroke="#000" stroke-miterlimit="10" stroke-width=".5"/>
              <line x1="343.265" y1="241.69" x2="343.265" y2="328.83" fill="none" stroke="#000" stroke-miterlimit="10" stroke-width=".5"/>
              <line x1="337.408" y1="242.723" x2="337.408" y2="329.863" fill="none" stroke="#000" stroke-miterlimit="10" stroke-width=".5"/>
              <line x1="331.551" y1="243.755" x2="331.551" y2="330.896" fill="none" stroke="#000" stroke-miterlimit="10" stroke-width=".5"/>
              <line x1="325.694" y1="244.788" x2="325.694" y2="331.928" fill="none" stroke="#000" stroke-miterlimit="10" stroke-width=".5"/>
              <line x1="319.837" y1="245.821" x2="319.837" y2="332.961" fill="none" stroke="#000" stroke-miterlimit="10" stroke-width=".5"/>
              <line x1="313.98" y1="246.854" x2="313.98" y2="333.994" fill="none" stroke="#000" stroke-miterlimit="10" stroke-width=".5"/>
              <line x1="308.123" y1="247.886" x2="308.123" y2="335.027" fill="none" stroke="#000" stroke-miterlimit="10" stroke-width=".5"/>
              <line x1="302.266" y1="248.919" x2="302.266" y2="336.059" fill="none" stroke="#000" stroke-miterlimit="10" stroke-width=".5"/>
              <line x1="296.409" y1="249.952" x2="296.409" y2="337.092" fill="none" stroke="#000" stroke-miterlimit="10" stroke-width=".5"/>
              <line x1="290.552" y1="250.985" x2="290.552" y2="338.125" fill="none" stroke="#000" stroke-miterlimit="10" stroke-width=".5"/>
              <line x1="284.695" y1="252.017" x2="284.695" y2="339.158" fill="none" stroke="#000" stroke-miterlimit="10" stroke-width=".5"/>
              <line x1="278.837" y1="253.05" x2="278.837" y2="340.19" fill="none" stroke="#000" stroke-miterlimit="10" stroke-width=".5"/>
              <line x1="272.98" y1="254.083" x2="272.98" y2="341.223" fill="none" stroke="#000" stroke-miterlimit="10" stroke-width=".5"/>
            </g>
            <circle cx="202.929" cy="184.704" r="2.5" fill="#231f20"/>
            <circle cx="210.953" cy="193.49" r="2.5" fill="#231f20"/>
            <circle cx="218.978" cy="202.276" r="2.5" fill="#231f20"/>
            <circle cx="227.002" cy="211.062" r="2.5" fill="#58595b"/>
            <circle cx="235.026" cy="219.849" r="2.5" fill="#58595b"/>
            <circle cx="243.05" cy="228.635" r="2.5" fill="#231f20"/>
            <circle cx="251.075" cy="237.421" r="2.5" fill="#231f20"/>
            <circle cx="259.099" cy="246.271" r="2.5" fill="#231f20"/>
            <circle cx="267.173" cy="255.102" r="2.5" fill="#231f20"/>
          </g>
          <g>
            <polygon points="202.929 58.204 372.783 28.254 436.978 98.544 267.123 128.494 202.929 58.204" fill="#fff" stroke="#92278f" stroke-linecap="round" stroke-linejoin="round"/>
            <polygon points="202.929 58.204 372.783 28.254 436.978 98.544 267.123 128.494 202.929 58.204" fill="#92278f" opacity=".3" stroke="#92278f" stroke-linecap="round" stroke-linejoin="round"/>
            <polygon points="202.929 58.204 372.783 28.254 436.978 98.544 267.123 128.494 202.929 58.204" fill="none" stroke="#92278f" stroke-linecap="round" stroke-linejoin="round"/>
            <line x1="261.288" y1="122.104" x2="431.142" y2="92.154" fill="none" stroke="#bd1a8d" stroke-linecap="round" stroke-linejoin="round" stroke-width=".5"/>
            <line x1="255.452" y1="115.714" x2="425.306" y2="85.764" fill="none" stroke="#bd1a8d" stroke-linecap="round" stroke-linejoin="round" stroke-width=".5"/>
            <line x1="249.616" y1="109.324" x2="419.47" y2="79.374" fill="none" stroke="#bd1a8d" stroke-linecap="round" stroke-linejoin="round" stroke-width=".5"/>
            <line x1="243.78" y1="102.934" x2="413.634" y2="72.984" fill="none" stroke="#bd1a8d" stroke-linecap="round" stroke-linejoin="round" stroke-width=".5"/>
            <line x1="237.944" y1="96.544" x2="407.799" y2="66.594" fill="none" stroke="#bd1a8d" stroke-dasharray="8 3" stroke-linecap="round" stroke-linejoin="round" stroke-width=".5"/>
            <line x1="232.108" y1="90.154" x2="401.963" y2="60.204" fill="none" stroke="#bd1a8d" stroke-dasharray="8 3" stroke-linecap="round" stroke-linejoin="round" stroke-width=".5"/>
            <line x1="226.272" y1="83.764" x2="396.127" y2="53.814" fill="none" stroke="#bd1a8d" stroke-dasharray="8 3" stroke-linecap="round" stroke-linejoin="round" stroke-width=".5"/>
            <line x1="220.436" y1="77.374" x2="390.291" y2="47.424" fill="none" stroke="#bd1a8d" stroke-dasharray="8 3" stroke-linecap="round" stroke-linejoin="round" stroke-width=".5"/>
            <line x1="214.601" y1="70.984" x2="384.455" y2="41.034" fill="none" stroke="#bd1a8d" stroke-linecap="round" stroke-linejoin="round" stroke-width=".5"/>
            <line x1="208.765" y1="64.594" x2="378.619" y2="34.644" fill="none" stroke="#bd1a8d" stroke-linecap="round" stroke-linejoin="round" stroke-width=".5"/>
            <line x1="366.926" y1="29.286" x2="431.121" y2="99.577" fill="none" stroke="#bd1a8d" stroke-linecap="round" stroke-linejoin="round" stroke-width=".5"/>
            <line x1="361.069" y1="30.319" x2="425.264" y2="100.61" fill="none" stroke="#bd1a8d" stroke-linecap="round" stroke-linejoin="round" stroke-width=".5"/>
            <line x1="355.212" y1="31.352" x2="419.407" y2="101.642" fill="none" stroke="#bd1a8d" stroke-linecap="round" stroke-linejoin="round" stroke-width=".5"/>
            <line x1="349.355" y1="32.385" x2="413.55" y2="102.675" fill="none" stroke="#bd1a8d" stroke-linecap="round" stroke-linejoin="round" stroke-width=".5"/>
            <line x1="343.498" y1="33.418" x2="407.693" y2="103.708" fill="none" stroke="#bd1a8d" stroke-linecap="round" stroke-linejoin="round" stroke-width=".5"/>
            <line x1="337.641" y1="34.45" x2="401.836" y2="104.741" fill="none" stroke="#bd1a8d" stroke-linecap="round" stroke-linejoin="round" stroke-width=".5"/>
            <line x1="331.784" y1="35.483" x2="395.979" y2="105.773" fill="none" stroke="#bd1a8d" stroke-linecap="round" stroke-linejoin="round" stroke-width=".5"/>
            <line x1="325.927" y1="36.516" x2="390.121" y2="106.806" fill="none" stroke="#bd1a8d" stroke-linecap="round" stroke-linejoin="round" stroke-width=".5"/>
            <line x1="320.07" y1="37.549" x2="384.264" y2="107.839" fill="none" stroke="#bd1a8d" stroke-linecap="round" stroke-linejoin="round" stroke-width=".5"/>
            <line x1="314.213" y1="38.581" x2="378.407" y2="108.872" fill="none" stroke="#bd1a8d" stroke-linecap="round" stroke-linejoin="round" stroke-width=".5"/>
            <line x1="308.356" y1="39.614" x2="372.55" y2="109.904" fill="none" stroke="#bd1a8d" stroke-linecap="round" stroke-linejoin="round" stroke-width=".5"/>
            <line x1="302.499" y1="40.647" x2="366.693" y2="110.937" fill="none" stroke="#bd1a8d" stroke-linecap="round" stroke-linejoin="round" stroke-width=".5"/>
            <line x1="296.642" y1="41.68" x2="360.836" y2="111.97" fill="none" stroke="#bd1a8d" stroke-linecap="round" stroke-linejoin="round" stroke-width=".5"/>
            <line x1="290.785" y1="42.712" x2="354.979" y2="113.003" fill="none" stroke="#bd1a8d" stroke-linecap="round" stroke-linejoin="round" stroke-width=".5"/>
            <line x1="284.928" y1="43.745" x2="349.122" y2="114.035" fill="none" stroke="#bd1a8d" stroke-linecap="round" stroke-linejoin="round" stroke-width=".5"/>
            <line x1="279.071" y1="44.778" x2="343.265" y2="115.068" fill="none" stroke="#bd1a8d" stroke-linecap="round" stroke-linejoin="round" stroke-width=".5"/>
            <line x1="273.213" y1="45.811" x2="337.408" y2="116.101" fill="none" stroke="#bd1a8d" stroke-linecap="round" stroke-linejoin="round" stroke-width=".5"/>
            <line x1="267.356" y1="46.843" x2="331.551" y2="117.134" fill="none" stroke="#bd1a8d" stroke-linecap="round" stroke-linejoin="round" stroke-width=".5"/>
            <line x1="261.499" y1="47.876" x2="325.694" y2="118.166" fill="none" stroke="#bd1a8d" stroke-linecap="round" stroke-linejoin="round" stroke-width=".5"/>
            <line x1="255.642" y1="48.909" x2="319.837" y2="119.199" fill="none" stroke="#bd1a8d" stroke-linecap="round" stroke-linejoin="round" stroke-width=".5"/>
            <line x1="249.785" y1="49.942" x2="313.98" y2="120.232" fill="none" stroke="#bd1a8d" stroke-linecap="round" stroke-linejoin="round" stroke-width=".5"/>
            <line x1="243.928" y1="50.974" x2="308.123" y2="121.265" fill="none" stroke="#bd1a8d" stroke-linecap="round" stroke-linejoin="round" stroke-width=".5"/>
            <line x1="238.071" y1="52.007" x2="302.266" y2="122.297" fill="none" stroke="#bd1a8d" stroke-linecap="round" stroke-linejoin="round" stroke-width=".5"/>
            <line x1="232.214" y1="53.04" x2="296.409" y2="123.33" fill="none" stroke="#bd1a8d" stroke-linecap="round" stroke-linejoin="round" stroke-width=".5"/>
            <line x1="226.357" y1="54.073" x2="290.552" y2="124.363" fill="none" stroke="#bd1a8d" stroke-linecap="round" stroke-linejoin="round" stroke-width=".5"/>
            <line x1="220.5" y1="55.105" x2="284.695" y2="125.396" fill="none" stroke="#bd1a8d" stroke-linecap="round" stroke-linejoin="round" stroke-width=".5"/>
            <line x1="214.643" y1="56.138" x2="278.837" y2="126.428" fill="none" stroke="#bd1a8d" stroke-linecap="round" stroke-linejoin="round" stroke-width=".5"/>
            <line x1="208.786" y1="57.171" x2="272.98" y2="127.461" fill="none" stroke="#bd1a8d" stroke-linecap="round" stroke-linejoin="round" stroke-width=".5"/>
          </g>
          <text transform="translate(145.12 185.55)" fill="#231f20" font-family="ArialUnicodeMS, &apos;Arial Unicode MS&apos;"><tspan x="0" y="0" font-size="10">(x</tspan><tspan x="8.33" y="3" font-size="8">1</tspan><tspan x="12.779" y="0" font-size="10">,y</tspan><tspan x="20.558" y="3" font-size="8">1</tspan><tspan x="25.007" y="0" font-size="10">,z</tspan><tspan x="32.785" y="3" font-size="8">1</tspan><tspan x="37.234" y="0" font-size="10">)</tspan></text>
          <text transform="translate(145.12 204.063)" fill="#231f20" font-family="ArialUnicodeMS, &apos;Arial Unicode MS&apos;"><tspan x="0" y="0" font-size="10">(x</tspan><tspan x="8.33" y="3" font-size="8">2</tspan><tspan x="12.779" y="0" font-size="10">,y</tspan><tspan x="20.558" y="3" font-size="8">2</tspan><tspan x="25.007" y="0" font-size="10">,z</tspan><tspan x="32.785" y="3" font-size="8">2</tspan><tspan x="37.234" y="0" font-size="10">)</tspan></text>
          <line x1="187.304" y1="184.478" x2="203.127" y2="184.478" fill="none" stroke="#231f20" stroke-miterlimit="10" stroke-width=".5"/>
          <polyline points="187.13 202.99 195.548 202.99 210.953 193.49" fill="none" stroke="#231f20" stroke-miterlimit="10" stroke-width=".5"/>
          <line x1="202.929" y1="58.204" x2="203.127" y2="184.478" fill="none" stroke="#231f20" stroke-dasharray=".5 2" stroke-linecap="round" stroke-width=".75"/>
          <line x1="266.961" y1="128.889" x2="267.159" y2="255.164" fill="none" stroke="#231f20" stroke-dasharray=".5 2" stroke-linecap="round" stroke-width=".75"/>
          <line x1="412.905" y1="189.899" x2="434.906" y2="189.899" fill="none" stroke="#231f20" stroke-miterlimit="10" stroke-width=".5"/>
          <line x1="416.997" y1="198.24" x2="438.998" y2="198.24" fill="none" stroke="#231f20" stroke-miterlimit="10" stroke-width=".5"/>
          <g>
            <line x1="437.488" y1="200.774" x2="447.09" y2="207.471" fill="none" stroke="#231f20" stroke-miterlimit="10" stroke-width=".5"/>
            <polygon points="437.47 202.532 433.855 198.24 439.132 200.15 437.47 202.532" fill="#231f20"/>
          </g>
          <g>
            <line x1="407.746" y1="180.028" x2="418.264" y2="187.365" fill="none" stroke="#231f20" stroke-miterlimit="10" stroke-width=".5"/>
            <polygon points="416.62 187.989 421.897 189.899 418.283 185.606 416.62 187.989" fill="#231f20"/>
          </g>
          <line x1="390.368" y1="40.927" x2="412.369" y2="40.927" fill="none" stroke="#231f20" stroke-miterlimit="10" stroke-width=".5"/>
          <line x1="394.46" y1="46.768" x2="416.461" y2="46.768" fill="none" stroke="#231f20" stroke-miterlimit="10" stroke-width=".5"/>
          <g>
            <line x1="414.951" y1="49.302" x2="424.553" y2="56" fill="none" stroke="#231f20" stroke-miterlimit="10" stroke-width=".5"/>
            <polygon points="414.933 51.061 411.318 46.768 416.595 48.678 414.933 51.061" fill="#231f20"/>
          </g>
          <g>
            <line x1="385.209" y1="31.056" x2="395.727" y2="38.393" fill="none" stroke="#231f20" stroke-miterlimit="10" stroke-width=".5"/>
            <polygon points="394.083 39.018 399.36 40.927 395.746 36.635 394.083 39.018" fill="#231f20"/>
          </g>
          <line x1="430.598" y1="101.201" x2="430.598" y2="116.101" fill="none" stroke="#231f20" stroke-miterlimit="10" stroke-width=".5"/>
          <line x1="424.757" y1="102.293" x2="424.757" y2="118.166" fill="none" stroke="#231f20" stroke-miterlimit="10" stroke-width=".5"/>
          <path d="M430.598,110.194" fill="none"/>
          <path d="M440.469,96.042" fill="none"/>
          <g>
            <line x1="420.294" y1="113.199" x2="415.553" y2="114.035" fill="none" stroke="#231f20" stroke-miterlimit="10" stroke-width=".5"/>
            <polygon points="419.066 111.941 424.656 112.43 419.57 114.802 419.066 111.941" fill="#231f20"/>
          </g>
          <g>
            <line x1="438.981" y1="109.904" x2="434.96" y2="110.613" fill="none" stroke="#231f20" stroke-miterlimit="10" stroke-width=".5"/>
            <polygon points="435.684 109.011 430.598 111.382 436.188 111.872 435.684 109.011" fill="#231f20"/>
          </g>
        </g>
      </g>
    </g>
  </g>
</svg>