<svg xmlns="http://www.w3.org/2000/svg" xmlns:xlink="http://www.w3.org/1999/xlink" contentStyleType="text/css" data-diagram-type="SEQUENCE" height="675px" preserveAspectRatio="none" style="width:946px;height:675px;background:#FFFFFF;" version="1.1" viewBox="0 0 946 675" width="946px" zoomAndPan="magnify"><defs/><g><rect fill="#D9E8C8" height="663.3516" style="stroke:#181818;stroke-width:0.5;" width="351.0747" x="374.4167" y="6"/><text fill="#000000" font-family="sans-serif" font-size="13" font-weight="bold" lengthAdjust="spacing" textLength="169.9648" x="462.7087" y="18.0669">SCP / User Agent proxy</text><g><title>..SCU..</title><rect fill="#000000" fill-opacity="0.00000" height="606.9219" width="8" x="121.0054" y="56.4297"/><line style="stroke:#181818;stroke-width:0.5;stroke-dasharray:5,5;" x1="124.5054" x2="124.5054" y1="56.4297" y2="663.3516"/></g><g><title/><rect fill="#FFFFFF" height="598.9219" style="stroke:#181818;stroke-width:1;" width="10" x="119.5054" y="64.4297"/></g><g><title>SCP</title><rect fill="#000000" fill-opacity="0.00000" height="606.9219" width="8" x="424.2622" y="56.4297"/><line style="stroke:#181818;stroke-width:0.5;stroke-dasharray:5,5;" x1="427.7622" x2="427.7622" y1="56.4297" y2="663.3516"/></g><g><title/><rect fill="#FFFFFF" height="559.7891" style="stroke:#181818;stroke-width:1;" width="10" x="422.7622" y="85.5625"/></g><g><title>User Agent</title><rect fill="#000000" fill-opacity="0.00000" height="606.9219" width="8" x="643.2983" y="56.4297"/><line style="stroke:#181818;stroke-width:0.5;stroke-dasharray:5,5;" x1="646.7983" x2="646.7983" y1="56.4297" y2="663.3516"/></g><g><title/><rect fill="#FFFFFF" height="138.7969" style="stroke:#181818;stroke-width:1;" width="10" x="641.7983" y="266.4922"/></g><g><title>..Origin Server..</title><rect fill="#000000" fill-opacity="0.00000" height="606.9219" width="8" x="877.4102" y="56.4297"/><line style="stroke:#181818;stroke-width:0.5;stroke-dasharray:5,5;" x1="880.9102" x2="880.9102" y1="56.4297" y2="663.3516"/></g><g><title/><rect fill="#FFFFFF" height="50.2656" style="stroke:#181818;stroke-width:1;" width="10" x="875.9102" y="310.7578"/></g><rect fill="#A2C777" height="30.2969" rx="2.5" ry="2.5" style="stroke:#181818;stroke-width:0.5;" width="45.7256" x="101.6426" y="25.1328"/><text fill="#000000" font-family="sans-serif" font-size="14" font-weight="bold" lengthAdjust="spacing" textLength="31.7256" x="108.6426" y="45.1279">SCU</text><rect fill="#A2C777" height="30.2969" rx="2.5" ry="2.5" style="stroke:#181818;stroke-width:0.5;" width="41.1045" x="407.21" y="25.1328"/><text fill="#000000" font-family="sans-serif" font-size="14" lengthAdjust="spacing" textLength="27.1045" x="414.21" y="45.1279">SCP</text><rect fill="#A2C777" height="30.2969" rx="2.5" ry="2.5" style="stroke:#181818;stroke-width:0.5;" width="91.7998" x="600.8984" y="25.1328"/><text fill="#000000" font-family="sans-serif" font-size="14" lengthAdjust="spacing" textLength="77.7998" x="607.8984" y="45.1279">User Agent</text><rect fill="#A2C777" height="30.2969" rx="2.5" ry="2.5" style="stroke:#181818;stroke-width:0.5;" width="119.2734" x="821.2734" y="25.1328"/><text fill="#000000" font-family="sans-serif" font-size="14" font-weight="bold" lengthAdjust="spacing" textLength="105.2734" x="828.2734" y="45.1279">Origin Server</text><polygon fill="#181818" points="410.7622,81.5625,420.7622,85.5625,410.7622,89.5625" style="stroke:#181818;stroke-width:1;"/><line style="stroke:#181818;stroke-width:1;" x1="129.5054" x2="416.7622" y1="85.5625" y2="85.5625"/><text fill="#000000" font-family="sans-serif" font-size="13" lengthAdjust="spacing" textLength="274.2568" x="136.5054" y="80.4966">A-ASSOCIATE-RQ( 1.2.840.1008.5.1.4.31 )</text><polygon fill="#181818" points="140.5054,110.6953,130.5054,114.6953,140.5054,118.6953" style="stroke:#181818;stroke-width:1;"/><line style="stroke:#181818;stroke-width:1;stroke-dasharray:2,2;" x1="134.5054" x2="421.7622" y1="114.6953" y2="114.6953"/><text fill="#000000" font-family="sans-serif" font-size="13" lengthAdjust="spacing" textLength="109.8335" x="146.5054" y="109.6294">A-ASSOCIATE-AC</text><polygon fill="#181818" points="410.7622,139.8281,420.7622,143.8281,410.7622,147.8281" style="stroke:#181818;stroke-width:1;"/><line style="stroke:#181818;stroke-width:1;" x1="129.5054" x2="416.7622" y1="143.8281" y2="143.8281"/><text fill="#000000" font-family="sans-serif" font-size="13" lengthAdjust="spacing" textLength="260.8315" x="136.5054" y="138.7622">C-FIND-RQ( 1.2.840.10008.5.1.4.31, ... )</text><path d="M10,127.6953 L10,167.6953 L119,167.6953 L119,137.6953 L109,127.6953 L10,127.6953" fill="#ECF4E4" style="stroke:#181818;stroke-width:0.5;"/><path d="M109,127.6953 L109,137.6953 L119,137.6953 L109,127.6953" fill="#ECF4E4" style="stroke:#181818;stroke-width:0.5;"/><text fill="#000000" font-family="sans-serif" font-size="13" lengthAdjust="spacing" textLength="88.5054" x="16" y="144.7622">[PS3.4, K.4.1]</text><text fill="#000000" font-family="sans-serif" font-size="13" lengthAdjust="spacing" textLength="39.5078" x="16" y="159.895">Query</text><line style="stroke:#181818;stroke-width:1;" x1="432.7622" x2="474.7622" y1="209.2266" y2="209.2266"/><line style="stroke:#181818;stroke-width:1;" x1="474.7622" x2="474.7622" y1="209.2266" y2="222.2266"/><line style="stroke:#181818;stroke-width:1;" x1="433.7622" x2="474.7622" y1="222.2266" y2="222.2266"/><polygon fill="#181818" points="443.7622,218.2266,433.7622,222.2266,443.7622,226.2266" style="stroke:#181818;stroke-width:1;"/><text fill="#000000" font-family="sans-serif" font-size="13" lengthAdjust="spacing" textLength="112.3154" x="439.7622" y="189.0278">convert DIMSE to</text><text fill="#000000" font-family="sans-serif" font-size="13" lengthAdjust="spacing" textLength="150.7886" x="439.7622" y="204.1606">DICOMweb parameters</text><polygon fill="#181818" points="629.7983,262.4922,639.7983,266.4922,629.7983,270.4922" style="stroke:#181818;stroke-width:1;"/><line style="stroke:#181818;stroke-width:1;" x1="432.7622" x2="635.7983" y1="266.4922" y2="266.4922"/><text fill="#000000" font-family="sans-serif" font-size="13" lengthAdjust="spacing" textLength="155.0479" x="439.7622" y="246.2935">perform Search request</text><text fill="#000000" font-family="sans-serif" font-size="13" lengthAdjust="spacing" textLength="190.0361" x="439.7622" y="261.4263">using DICOMweb parameters</text><polygon fill="#181818" points="863.9102,306.7578,873.9102,310.7578,863.9102,314.7578" style="stroke:#181818;stroke-width:1;"/><line style="stroke:#181818;stroke-width:1;" x1="651.7983" x2="869.9102" y1="310.7578" y2="310.7578"/><text fill="#000000" font-family="sans-serif" font-size="13" lengthAdjust="spacing" textLength="205.1118" x="658.7983" y="290.5591">HTTP GET /modality-scheduled-</text><text fill="#000000" font-family="sans-serif" font-size="13" lengthAdjust="spacing" textLength="199.7036" x="658.7983" y="305.6919">procedure-steps?{&amp;match*}...</text><path d="M528.4082,279.4922 L528.4082,319.4922 L641.4082,319.4922 L641.4082,289.4922 L631.4082,279.4922 L528.4082,279.4922" fill="#ECF4E4" style="stroke:#181818;stroke-width:0.5;"/><path d="M631.4082,279.4922 L631.4082,289.4922 L641.4082,289.4922 L631.4082,279.4922" fill="#ECF4E4" style="stroke:#181818;stroke-width:0.5;"/><text fill="#000000" font-family="sans-serif" font-size="13" lengthAdjust="spacing" textLength="92.3901" x="534.4082" y="296.5591">[PS3.18, 14.4]</text><text fill="#000000" font-family="sans-serif" font-size="13" lengthAdjust="spacing" textLength="44.9478" x="534.4082" y="311.6919">Search</text><polygon fill="#181818" points="662.7983,357.0234,652.7983,361.0234,662.7983,365.0234" style="stroke:#181818;stroke-width:1;"/><line style="stroke:#181818;stroke-width:1;stroke-dasharray:2,2;" x1="656.7983" x2="874.9102" y1="361.0234" y2="361.0234"/><text fill="#000000" font-family="sans-serif" font-size="13" lengthAdjust="spacing" textLength="61.9785" x="668.7983" y="340.8247">200 (OK),</text><text fill="#000000" font-family="sans-serif" font-size="13" font-style="italic" lengthAdjust="spacing" textLength="127.5244" x="734.9092" y="340.8247">Modality Scheduled</text><text fill="#000000" font-family="sans-serif" font-size="13" font-style="italic" lengthAdjust="spacing" textLength="106.6216" x="668.7983" y="355.9575">Procedure Steps</text><polygon fill="#181818" points="443.7622,401.2891,433.7622,405.2891,443.7622,409.2891" style="stroke:#181818;stroke-width:1;"/><line style="stroke:#181818;stroke-width:1;stroke-dasharray:2,2;" x1="437.7622" x2="640.7983" y1="405.2891" y2="405.2891"/><text fill="#000000" font-family="sans-serif" font-size="13" font-style="italic" lengthAdjust="spacing" textLength="127.5244" x="449.7622" y="385.0903">Modality Scheduled</text><text fill="#000000" font-family="sans-serif" font-size="13" font-style="italic" lengthAdjust="spacing" textLength="106.6216" x="449.7622" y="400.2231">Procedure Steps</text><path d="M108.5054,417.2891 L185.1294,417.2891 L185.1294,424.4219 L175.1294,434.4219 L108.5054,434.4219 L108.5054,417.2891" fill="#EEEEEE" style="stroke:#000000;stroke-width:1.5;"/><rect fill="none" height="134.6641" style="stroke:#000000;stroke-width:1.5;" width="535.3872" x="108.5054" y="417.2891"/><text fill="#000000" font-family="sans-serif" font-size="13" font-weight="bold" lengthAdjust="spacing" textLength="31.624" x="123.5054" y="430.356">loop</text><text fill="#000000" font-family="sans-serif" font-size="11" font-weight="bold" lengthAdjust="spacing" textLength="42.2544" x="200.1294" y="429.4995">[i: 1..#</text><text fill="#000000" font-family="sans-serif" font-size="11" font-style="italic" font-weight="bold" lengthAdjust="spacing" textLength="228.481" x="242.3838" y="429.4995">Modality Scheduled Procedure Steps</text><text fill="#000000" font-family="sans-serif" font-size="11" font-weight="bold" lengthAdjust="spacing" textLength="5.0273" x="470.8647" y="429.4995">]</text><line style="stroke:#181818;stroke-width:1;" x1="432.7622" x2="474.7622" y1="483.6875" y2="483.6875"/><line style="stroke:#181818;stroke-width:1;" x1="474.7622" x2="474.7622" y1="483.6875" y2="496.6875"/><line style="stroke:#181818;stroke-width:1;" x1="433.7622" x2="474.7622" y1="496.6875" y2="496.6875"/><polygon fill="#181818" points="443.7622,492.6875,433.7622,496.6875,443.7622,500.6875" style="stroke:#181818;stroke-width:1;"/><text fill="#000000" font-family="sans-serif" font-size="13" lengthAdjust="spacing" textLength="49.4736" x="439.7622" y="460.4888">convert</text><text fill="#000000" font-family="sans-serif" font-size="13" font-style="italic" lengthAdjust="spacing" textLength="127.5244" x="493.3682" y="460.4888">Modality Scheduled</text><text fill="#000000" font-family="sans-serif" font-size="13" font-style="italic" lengthAdjust="spacing" textLength="99.8486" x="439.7622" y="475.6216">Procedure Step</text><text fill="#000000" font-family="sans-serif" font-size="10" lengthAdjust="spacing" textLength="2.7783" x="539.6108" y="479.3291">i</text><text fill="#000000" font-family="sans-serif" font-size="13" lengthAdjust="spacing" textLength="58.7095" x="546.5215" y="475.6216">to DIMSE</text><polygon fill="#181818" points="140.5054,539.9531,130.5054,543.9531,140.5054,547.9531" style="stroke:#181818;stroke-width:1;"/><line style="stroke:#181818;stroke-width:1;stroke-dasharray:2,2;" x1="134.5054" x2="421.7622" y1="543.9531" y2="543.9531"/><text fill="#000000" font-family="sans-serif" font-size="13" lengthAdjust="spacing" textLength="195.2539" x="146.5054" y="520.7544">C-FIND-RSP: FF00H (Pending),</text><text fill="#000000" font-family="sans-serif" font-size="13" font-style="italic" lengthAdjust="spacing" textLength="231.5054" x="146.5054" y="535.8872">Modality Scheduled Procedure Step</text><text fill="#000000" font-family="sans-serif" font-size="10" lengthAdjust="spacing" textLength="2.7783" x="378.0107" y="539.5947">i</text><polygon fill="#181818" points="140.5054,583.0859,130.5054,587.0859,140.5054,591.0859" style="stroke:#181818;stroke-width:1;"/><line style="stroke:#181818;stroke-width:1;stroke-dasharray:2,2;" x1="134.5054" x2="421.7622" y1="587.0859" y2="587.0859"/><text fill="#000000" font-family="sans-serif" font-size="13" lengthAdjust="spacing" textLength="192.6069" x="146.5054" y="582.02">C-FIND-RSP: 0000H (Success)</text><polygon fill="#181818" points="410.7622,612.2188,420.7622,616.2188,410.7622,620.2188" style="stroke:#181818;stroke-width:1;"/><line style="stroke:#181818;stroke-width:1;" x1="129.5054" x2="416.7622" y1="616.2188" y2="616.2188"/><text fill="#000000" font-family="sans-serif" font-size="13" lengthAdjust="spacing" textLength="95.6021" x="136.5054" y="611.1528">A-RELEASE-RQ</text><polygon fill="#181818" points="140.5054,641.3516,130.5054,645.3516,140.5054,649.3516" style="stroke:#181818;stroke-width:1;"/><line style="stroke:#181818;stroke-width:1;stroke-dasharray:2,2;" x1="134.5054" x2="421.7622" y1="645.3516" y2="645.3516"/><text fill="#000000" font-family="sans-serif" font-size="13" lengthAdjust="spacing" textLength="101.4609" x="146.5054" y="640.2856">A-RELEASE-RSP</text><!--SRC=[dPDHJzim4CVV_IbkL9ferTW9PAAh45DKogWOIy3jqxg7u5pRQ6sIsGwZc_RTTowqb0BQj9V4bi-____kV6ygdKuNALWiVuBLDJBpBI-gLASBC7OvH_hgNDbwCMUpF4EObAMzAUyOenYRgxnA2mjxhPRiZLgjFKWDq0eQwO4wEZfY54dx10IC36g8faZHbIxlbj38tcD7THZ04n95Fr2I3MKdv16rYXn5cq0iCd3cThp5Ef_c1KZKjwWVNCPoSukbokQtgKLddJ7dtpjn1heGUP6KSMyG3VlUzTK-1Fo0TqAV1xxVuUzum4D-641pcv2i0CUUzvmGzPx0UzxPuFFfBdSBt0REET6BaiXpd5Xee9g467RXIo8FUTY62meClewBgnhrahcYhUcgB2XR2wU3Iza7MuwBqq4lllo1Dx1gBrhKPdrZ57MXGZqfzOBAb6er0utVQpHsNDGcBwRmqkLDrgE8KHU84yikd0-72Npi3q4ioYoTvtRf6JN3h9vZveqBwhwYZKRFMApCXrzl5wbLizPlolMH6CjNimuwRGX27bBMzrQTjgkt4p_mVTYFBvfj4EBoGHxaMbw8SI54idO0qZaGWcMuBUngudYkAFz9eOBCoxA2l4kjvOsNAF0S0F1I0__LWX37fhuvoO-5-r77xrk_ecuzoFMhaxG-E_FzSzXFQ6wenyssW_xLwLCTDtFiLG5wpav0ragXCSsTsRhkV-f7qatMxiniJcIoNLOw_GC0]--></g></svg>