<?xml version="1.0" encoding="utf-8"?>

<!DOCTYPE svg PUBLIC "-//W3C//DTD SVG 1.1//EN" "http://www.w3.org/Graphics/SVG/1.1/DTD/svg11.dtd">
<svg version="1.1" id="Layer_1" xmlns="http://www.w3.org/2000/svg" xmlns:xlink="http://www.w3.org/1999/xlink" x="0px" y="0px"
	 viewBox="0 0 502 402" enable-background="new 0 0 502 402" xml:space="preserve">
    
    
<defs>
	<style type="text/css">
	text {
	  font-family: Helvetica, Verdana, ArialUnicodeMS, san-serif
	}
	</style>
</defs>

<g>
   <desc>
	PS 3.2 : Conformance
   </desc>
</g>

    
<defs>
	<style type="text/css">
	text {
	  font-family: Helvetica, Verdana, ArialUnicodeMS, san-serif
	}
	</style>
</defs>


<g>
	<rect x="1" y="1" fill="#F2EDD6" width="500" height="400"/>
	<g>
		<g>
			<line fill="#4F8ABE" x1="256.203" y1="165.051" x2="362.902" y2="165.051"/>
			<g>
				
					<line fill="none" stroke="#005695" stroke-width="2" stroke-linecap="round" stroke-miterlimit="1" x1="256.203" y1="165.051" x2="350.499" y2="165.051"/>
				<g>
					<polygon fill="#005695" points="347.725,169.118 362.902,165.051 347.725,160.983 					"/>
				</g>
			</g>
		</g>
		<g>
			<line fill="#4F8ABE" x1="256.203" y1="181.61" x2="362.902" y2="181.61"/>
			<g>
				
					<line fill="none" stroke="#005695" stroke-width="2" stroke-linecap="round" stroke-miterlimit="1" x1="268.606" y1="181.61" x2="362.902" y2="181.61"/>
				<g>
					<polygon fill="#005695" points="271.38,185.678 256.203,181.61 271.38,177.543 					"/>
				</g>
			</g>
		</g>
		
			<rect x="181.381" y="154.443" fill="#CCDEF0" stroke="#010101" stroke-width="0.75" stroke-linecap="round" stroke-linejoin="round" stroke-miterlimit="1" width="71.78" height="36"/>
		<text transform="matrix(1 0 0 1 190.3682 168.9087)"><tspan x="0" y="0" font-size="11px">Application</tspan><tspan x="2.14" y="13.2" font-size="11px">Entity &lt;2&gt;</tspan></text>
		
			<line fill="#4F8ABE" stroke="#005695" stroke-width="2" stroke-linecap="round" stroke-miterlimit="1" stroke-dasharray="9" x1="135.478" y1="172.974" x2="181.082" y2="172.974"/>
		
			<path fill="#CCDEF0" stroke="#010101" stroke-width="0.75" stroke-linecap="round" stroke-linejoin="round" stroke-miterlimit="1" d="
			M63.766,172.961c0-19.883,16.118-36,36-36c19.896,0,36.023,16.117,36.023,36s-16.128,36.025-36.023,36.025
			C79.884,208.986,63.766,192.844,63.766,172.961z"/>
		
			<path fill="#CCDEF0" stroke="#010101" stroke-width="0.75" stroke-linecap="round" stroke-linejoin="round" stroke-miterlimit="1" d="
			M366.212,172.961c0-19.883,16.119-36,36-36c19.896,0,36.023,16.117,36.023,36s-16.127,36.025-36.023,36.025
			C382.331,208.986,366.212,192.844,366.212,172.961z"/>
		<text transform="matrix(1 0 0 1 86.6323 162.8355)"><tspan x="0" y="0" font-size="11px">Local</tspan><tspan x="-14.357" y="13.2" font-size="11px">Real-World</tspan><tspan x="-9.467" y="26.4" font-size="11px">Activity B</tspan></text>
		<text transform="matrix(1 0 0 1 381.9634 162.8355)"><tspan x="0" y="0" font-size="11px">Remote</tspan><tspan x="-8.248" y="13.2" font-size="11px">Real-World</tspan><tspan x="-3.357" y="26.4" font-size="11px">Activity Y</tspan></text>
		<g>
			<line fill="#4F8ABE" x1="256.203" y1="108.973" x2="362.902" y2="108.973"/>
			<g>
				
					<line fill="none" stroke="#005695" stroke-width="2" stroke-linecap="round" stroke-miterlimit="1" x1="256.203" y1="108.973" x2="350.499" y2="108.973"/>
				<g>
					<polygon fill="#005695" points="347.725,113.04 362.902,108.973 347.725,104.905 					"/>
				</g>
			</g>
		</g>
		
			<rect x="181.381" y="91.413" fill="#CCDEF0" stroke="#010101" stroke-width="0.75" stroke-linecap="round" stroke-linejoin="round" stroke-miterlimit="1" width="71.78" height="36"/>
		<text transform="matrix(1 0 0 1 190.3682 105.8765)"><tspan x="0" y="0" font-size="11px">Application</tspan><tspan x="2.14" y="13.2" font-size="11px">Entity &lt;1&gt;</tspan></text>
		
			<line fill="#4F8ABE" stroke="#005695" stroke-width="2" stroke-linecap="round" stroke-miterlimit="1" stroke-dasharray="9" x1="135.478" y1="108.974" x2="181.082" y2="108.974"/>
		
			<path fill="#CCDEF0" stroke="#010101" stroke-width="0.75" stroke-linecap="round" stroke-linejoin="round" stroke-miterlimit="1" d="
			M63.766,108.961c0-19.883,16.118-36,36-36c19.896,0,36.023,16.117,36.023,36s-16.128,36.025-36.023,36.025
			C79.884,144.986,63.766,128.844,63.766,108.961z"/>
		
			<path fill="#CCDEF0" stroke="#010101" stroke-width="0.75" stroke-linecap="round" stroke-linejoin="round" stroke-miterlimit="1" d="
			M366.212,108.961c0-19.883,16.119-36,36-36c19.896,0,36.023,16.117,36.023,36s-16.127,36.025-36.023,36.025
			C382.331,144.986,366.212,128.844,366.212,108.961z"/>
		<text transform="matrix(1 0 0 1 86.6323 98.8355)"><tspan x="0" y="0" font-size="11px">Local</tspan><tspan x="-14.357" y="13.2" font-size="11px">Real-World</tspan><tspan x="-9.467" y="26.4" font-size="11px">Activity A</tspan></text>
		<text transform="matrix(1 0 0 1 381.9634 98.8355)"><tspan x="0" y="0" font-size="11px">Remote</tspan><tspan x="-8.248" y="13.2" font-size="11px">Real-World</tspan><tspan x="-3.357" y="26.4" font-size="11px">Activity X</tspan></text>
		
			<line fill="#4F8ABE" stroke="#005695" stroke-width="2" stroke-linecap="round" stroke-miterlimit="1" stroke-dasharray="9" x1="181.88" y1="306.364" x2="131.77" y2="256.256"/>
		
			<line fill="#4F8ABE" stroke="#005695" stroke-width="2" stroke-linecap="round" stroke-miterlimit="1" stroke-dasharray="9" x1="181.386" y1="306.182" x2="131.275" y2="356.29"/>
		
			<path fill="#CCDEF0" stroke="#010101" stroke-width="0.75" stroke-linecap="round" stroke-linejoin="round" stroke-miterlimit="1" d="
			M63.766,351.423c0-19.883,16.118-36,36-36c19.896,0,36.023,16.117,36.023,36c0,19.883-16.128,36.025-36.023,36.025
			C79.884,387.448,63.766,371.306,63.766,351.423z"/>
		<text transform="matrix(1 0 0 1 86.6323 341.3081)"><tspan x="0" y="0" font-size="11px">Local</tspan><tspan x="-14.357" y="13.2" font-size="11px">Real-World</tspan><tspan x="-9.77" y="26.4" font-size="11px">Activity D</tspan></text>
		
			<path fill="#CCDEF0" stroke="#010101" stroke-width="0.75" stroke-linecap="round" stroke-linejoin="round" stroke-miterlimit="1" d="
			M63.766,261.51c0-19.883,16.118-36,36-36c19.896,0,36.023,16.117,36.023,36s-16.128,36.028-36.023,36.028
			C79.884,297.538,63.766,281.393,63.766,261.51z"/>
		<text transform="matrix(1 0 0 1 86.6323 251.3882)"><tspan x="0" y="0" font-size="11px">Local</tspan><tspan x="-14.357" y="13.2" font-size="11px">Real-World</tspan><tspan x="-9.77" y="26.4" font-size="11px">Activity C</tspan></text>
		<g>
			<line fill="#4F8ABE" x1="256.203" y1="307.203" x2="362.902" y2="307.203"/>
			<g>
				
					<line fill="none" stroke="#005695" stroke-width="2" stroke-linecap="round" stroke-miterlimit="1" x1="268.606" y1="307.203" x2="362.902" y2="307.203"/>
				<g>
					<polygon fill="#005695" points="271.38,311.27 256.203,307.203 271.38,303.136 					"/>
				</g>
			</g>
		</g>
		
			<rect x="181.381" y="287.878" fill="#CCDEF0" stroke="#010101" stroke-width="0.75" stroke-linecap="round" stroke-linejoin="round" stroke-miterlimit="1" width="71.78" height="36"/>
		<text transform="matrix(1 0 0 1 190.3682 302.3403)"><tspan x="0" y="0" font-size="11px">Application</tspan><tspan x="2.14" y="13.2" font-size="11px">Entity &lt;3&gt;</tspan></text>
		<text transform="matrix(1 0 0 1 212.3232 359.3403)"><tspan x="0" y="0" font-size="11px">Association</tspan><tspan x="0" y="13.2" font-size="11px">Acceptance</tspan></text>
		<text transform="matrix(1 0 0 1 212.3232 62.1797)"><tspan x="0" y="0" font-size="11px">Association</tspan><tspan x="0" y="13.2" font-size="11px">Initiation</tspan></text>
		
			<path fill="#CCDEF0" stroke="#010101" stroke-width="0.75" stroke-linecap="round" stroke-linejoin="round" stroke-miterlimit="1" d="
			M366.212,307.191c0-19.877,16.119-35.994,36-35.994c19.896,0,36.023,16.117,36.023,35.994c0,19.869-16.127,36.012-36.023,36.012
			C382.331,343.203,366.212,327.06,366.212,307.191z"/>
		<text transform="matrix(1 0 0 1 381.9634 297.0659)"><tspan x="0" y="0" font-size="11px">Remote</tspan><tspan x="-8.248" y="13.2" font-size="11px">Real-World</tspan><tspan x="-3.048" y="26.4" font-size="11px">Activity Z</tspan></text>
		
			<line fill="#4F8ABE" stroke="#005695" stroke-linecap="round" stroke-miterlimit="1" stroke-dasharray="2,4" x1="329.12" y1="387.045" x2="329.12" y2="32.59"/>
		<g>
			<path fill="#B2CEE7" d="M260.122,18.153c0-1.98,1.62-3.6,3.6-3.6h130.797c1.979,0,3.6,1.62,3.6,3.6V28.99
				c0,1.98-1.62,3.6-3.6,3.6H263.722c-1.979,0-3.6-1.62-3.6-3.6V18.153z"/>
		</g>
		<text transform="matrix(1 0 0 1 264.0386 27.4263)" font-size="11px">DICOM Standard Interface</text>
		
			<line fill="none" stroke="#005695" stroke-linecap="round" stroke-miterlimit="1" x1="269.757" y1="349.956" x2="310.796" y2="308.916"/>
		
			<line fill="none" stroke="#005695" stroke-linecap="round" stroke-miterlimit="1" x1="269.757" y1="65.841" x2="310.796" y2="106.881"/>
	</g>
</g>
</svg>
