<svg xmlns="http://www.w3.org/2000/svg" xmlns:xlink="http://www.w3.org/1999/xlink" contentStyleType="text/css" data-diagram-type="SEQUENCE" height="516px" preserveAspectRatio="none" style="width:914px;height:516px;background:#FFFFFF;" version="1.1" viewBox="0 0 914 516" width="914px" zoomAndPan="magnify"><defs/><g><rect fill="#D9E8C8" height="504.6875" style="stroke:#181818;stroke-width:0.5;" width="332.7588" x="287.4873" y="6"/><text fill="#000000" font-family="sans-serif" font-size="13" font-weight="bold" lengthAdjust="spacing" textLength="187.0464" x="358.0806" y="18.0669">Origin Server / SCU proxy</text><g><title>User Agent</title><rect fill="#000000" fill-opacity="0.00000" height="448.2578" width="8" x="124.8901" y="56.4297"/><line style="stroke:#181818;stroke-width:0.5;stroke-dasharray:5,5;" x1="128.3901" x2="128.3901" y1="56.4297" y2="504.6875"/></g><g><title/><rect fill="#FFFFFF" height="440.2578" style="stroke:#181818;stroke-width:1;" width="10" x="123.3901" y="64.4297"/></g><g><title>..Origin Server..</title><rect fill="#000000" fill-opacity="0.00000" height="448.2578" width="8" x="368.9106" y="56.4297"/><line style="stroke:#181818;stroke-width:0.5;stroke-dasharray:5,5;" x1="372.4106" x2="372.4106" y1="56.4297" y2="504.6875"/></g><g><title/><rect fill="#FFFFFF" height="370.8594" style="stroke:#181818;stroke-width:1;" width="10" x="367.4106" y="115.8281"/></g><g><title>..SCU..</title><rect fill="#000000" fill-opacity="0.00000" height="448.2578" width="8" x="568.5967" y="56.4297"/><line style="stroke:#181818;stroke-width:0.5;stroke-dasharray:5,5;" x1="572.0967" x2="572.0967" y1="56.4297" y2="504.6875"/></g><g><title/><rect fill="#FFFFFF" height="225.0625" style="stroke:#181818;stroke-width:1;" width="10" x="567.0967" y="232.4922"/></g><g><title>SCP</title><rect fill="#000000" fill-opacity="0.00000" height="448.2578" width="8" x="884.2568" y="56.4297"/><line style="stroke:#181818;stroke-width:0.5;stroke-dasharray:5,5;" x1="887.7568" x2="887.7568" y1="56.4297" y2="504.6875"/></g><g><title/><rect fill="#FFFFFF" height="166.7969" style="stroke:#181818;stroke-width:1;" width="10" x="882.7568" y="261.625"/></g><rect fill="#A2C777" height="30.2969" rx="2.5" ry="2.5" style="stroke:#181818;stroke-width:0.5;" width="91.7998" x="82.4902" y="25.1328"/><text fill="#000000" font-family="sans-serif" font-size="14" lengthAdjust="spacing" textLength="77.7998" x="89.4902" y="45.1279">User Agent</text><rect fill="#A2C777" height="30.2969" rx="2.5" ry="2.5" style="stroke:#181818;stroke-width:0.5;" width="119.2734" x="312.7739" y="25.1328"/><text fill="#000000" font-family="sans-serif" font-size="14" font-weight="bold" lengthAdjust="spacing" textLength="105.2734" x="319.7739" y="45.1279">Origin Server</text><rect fill="#A2C777" height="30.2969" rx="2.5" ry="2.5" style="stroke:#181818;stroke-width:0.5;" width="45.7256" x="549.2339" y="25.1328"/><text fill="#000000" font-family="sans-serif" font-size="14" font-weight="bold" lengthAdjust="spacing" textLength="31.7256" x="556.2339" y="45.1279">SCU</text><rect fill="#A2C777" height="30.2969" rx="2.5" ry="2.5" style="stroke:#181818;stroke-width:0.5;" width="41.1045" x="867.2046" y="25.1328"/><text fill="#000000" font-family="sans-serif" font-size="14" lengthAdjust="spacing" textLength="27.1045" x="874.2046" y="45.1279">SCP</text><polygon fill="#181818" points="355.4106,111.8281,365.4106,115.8281,355.4106,119.8281" style="stroke:#181818;stroke-width:1;"/><line style="stroke:#181818;stroke-width:1;" x1="133.3901" x2="361.4106" y1="115.8281" y2="115.8281"/><text fill="#000000" font-family="sans-serif" font-size="13" lengthAdjust="spacing" textLength="215.0205" x="140.3901" y="80.4966">HTTP POST /modality-performed-</text><text fill="#000000" font-family="sans-serif" font-size="13" lengthAdjust="spacing" textLength="106.1138" x="140.3901" y="95.6294">procedure-steps</text><text fill="#000000" font-family="sans-serif" font-size="13" font-style="italic" lengthAdjust="spacing" textLength="67.5771" x="246.5039" y="95.6294">/MPPS-UID</text><text fill="#000000" font-family="sans-serif" font-size="13" font-style="italic" lengthAdjust="spacing" textLength="51.6953" x="140.3901" y="110.7622">payload</text><path d="M10,69.4297 L10,109.4297 L123,109.4297 L123,79.4297 L113,69.4297 L10,69.4297" fill="#ECF4E4" style="stroke:#181818;stroke-width:0.5;"/><path d="M113,69.4297 L113,79.4297 L123,79.4297 L113,69.4297" fill="#ECF4E4" style="stroke:#181818;stroke-width:0.5;"/><text fill="#000000" font-family="sans-serif" font-size="13" lengthAdjust="spacing" textLength="92.3901" x="16" y="86.4966">[PS3.18, 15.4]</text><text fill="#000000" font-family="sans-serif" font-size="13" lengthAdjust="spacing" textLength="43.4814" x="16" y="101.6294">Create</text><line style="stroke:#181818;stroke-width:1;" x1="377.4106" x2="419.4106" y1="175.2266" y2="175.2266"/><line style="stroke:#181818;stroke-width:1;" x1="419.4106" x2="419.4106" y1="175.2266" y2="188.2266"/><line style="stroke:#181818;stroke-width:1;" x1="378.4106" x2="419.4106" y1="188.2266" y2="188.2266"/><polygon fill="#181818" points="388.4106,184.2266,378.4106,188.2266,388.4106,192.2266" style="stroke:#181818;stroke-width:1;"/><text fill="#000000" font-family="sans-serif" font-size="13" lengthAdjust="spacing" textLength="180.686" x="384.4106" y="139.895">convert DICOMweb payload</text><text fill="#000000" font-family="sans-serif" font-size="13" lengthAdjust="spacing" textLength="166.8354" x="384.4106" y="155.0278">and parameters to DIMSE</text><text fill="#000000" font-family="sans-serif" font-size="13" lengthAdjust="spacing" textLength="75.4038" x="384.4106" y="170.1606">parameters</text><polygon fill="#181818" points="555.0967,228.4922,565.0967,232.4922,555.0967,236.4922" style="stroke:#181818;stroke-width:1;"/><line style="stroke:#181818;stroke-width:1;" x1="377.4106" x2="561.0967" y1="232.4922" y2="232.4922"/><text fill="#000000" font-family="sans-serif" font-size="13" lengthAdjust="spacing" textLength="153.5815" x="384.4106" y="212.2935">perform Create request</text><text fill="#000000" font-family="sans-serif" font-size="13" lengthAdjust="spacing" textLength="160.3101" x="384.4106" y="227.4263">using DIMSE parameters</text><polygon fill="#181818" points="870.7568,257.625,880.7568,261.625,870.7568,265.625" style="stroke:#181818;stroke-width:1;"/><line style="stroke:#181818;stroke-width:1;" x1="577.0967" x2="876.7568" y1="261.625" y2="261.625"/><text fill="#000000" font-family="sans-serif" font-size="13" lengthAdjust="spacing" textLength="286.6602" x="584.0967" y="256.5591">A-ASSOCIATE-RQ( 1.2.840.10008.3.1.2.3.3 )</text><polygon fill="#181818" points="588.0967,286.7578,578.0967,290.7578,588.0967,294.7578" style="stroke:#181818;stroke-width:1;"/><line style="stroke:#181818;stroke-width:1;stroke-dasharray:2,2;" x1="582.0967" x2="881.7568" y1="290.7578" y2="290.7578"/><text fill="#000000" font-family="sans-serif" font-size="13" lengthAdjust="spacing" textLength="109.8335" x="594.0967" y="285.6919">A-ASSOCIATE-AC</text><polygon fill="#181818" points="870.7568,331.0234,880.7568,335.0234,870.7568,339.0234" style="stroke:#181818;stroke-width:1;"/><line style="stroke:#181818;stroke-width:1;" x1="577.0967" x2="876.7568" y1="335.0234" y2="335.0234"/><text fill="#000000" font-family="sans-serif" font-size="13" lengthAdjust="spacing" textLength="260.2031" x="584.0967" y="314.8247">N-CREATE-RQ( 1.2.840.10008.3.1.2.3.3,</text><text fill="#000000" font-family="sans-serif" font-size="13" font-style="italic" lengthAdjust="spacing" textLength="63.1973" x="584.0967" y="329.9575">MPPS-UID</text><text fill="#000000" font-family="sans-serif" font-size="13" lengthAdjust="spacing" textLength="29.8657" x="647.2939" y="329.9575">, ... )</text><path d="M446.2354,303.7578 L446.2354,343.7578 L566.2354,343.7578 L566.2354,313.7578 L556.2354,303.7578 L446.2354,303.7578" fill="#ECF4E4" style="stroke:#181818;stroke-width:0.5;"/><path d="M556.2354,303.7578 L556.2354,313.7578 L566.2354,313.7578 L556.2354,303.7578" fill="#ECF4E4" style="stroke:#181818;stroke-width:0.5;"/><text fill="#000000" font-family="sans-serif" font-size="13" lengthAdjust="spacing" textLength="99.8613" x="452.2354" y="320.8247">[PS3.4, F.7.2.1]</text><text fill="#000000" font-family="sans-serif" font-size="13" lengthAdjust="spacing" textLength="43.4814" x="452.2354" y="335.9575">Create</text><polygon fill="#181818" points="588.0967,366.1563,578.0967,370.1563,588.0967,374.1563" style="stroke:#181818;stroke-width:1;"/><line style="stroke:#181818;stroke-width:1;stroke-dasharray:2,2;" x1="582.0967" x2="881.7568" y1="370.1563" y2="370.1563"/><text fill="#000000" font-family="sans-serif" font-size="13" lengthAdjust="spacing" textLength="213.5796" x="594.0967" y="365.0903">N-CREATE-RSP: 0000H (Success)</text><polygon fill="#181818" points="870.7568,395.2891,880.7568,399.2891,870.7568,403.2891" style="stroke:#181818;stroke-width:1;"/><line style="stroke:#181818;stroke-width:1;" x1="577.0967" x2="876.7568" y1="399.2891" y2="399.2891"/><text fill="#000000" font-family="sans-serif" font-size="13" lengthAdjust="spacing" textLength="95.6021" x="584.0967" y="394.2231">A-RELEASE-RQ</text><polygon fill="#181818" points="588.0967,424.4219,578.0967,428.4219,588.0967,432.4219" style="stroke:#181818;stroke-width:1;"/><line style="stroke:#181818;stroke-width:1;stroke-dasharray:2,2;" x1="582.0967" x2="881.7568" y1="428.4219" y2="428.4219"/><text fill="#000000" font-family="sans-serif" font-size="13" lengthAdjust="spacing" textLength="101.4609" x="594.0967" y="423.356">A-RELEASE-RSP</text><polygon fill="#181818" points="388.4106,453.5547,378.4106,457.5547,388.4106,461.5547" style="stroke:#181818;stroke-width:1;"/><line style="stroke:#181818;stroke-width:1;stroke-dasharray:2,2;" x1="382.4106" x2="566.0967" y1="457.5547" y2="457.5547"/><text fill="#000000" font-family="sans-serif" font-size="13" lengthAdjust="spacing" textLength="18.7573" x="394.4106" y="452.4888">OK</text><polygon fill="#181818" points="144.3901,482.6875,134.3901,486.6875,144.3901,490.6875" style="stroke:#181818;stroke-width:1;"/><line style="stroke:#181818;stroke-width:1;stroke-dasharray:2,2;" x1="138.3901" x2="366.4106" y1="486.6875" y2="486.6875"/><text fill="#000000" font-family="sans-serif" font-size="13" lengthAdjust="spacing" textLength="57.8462" x="150.3901" y="481.6216">200 (OK)</text><!--SRC=[XP9FRzf04CNl-occuG88hysV2eggIfP3bIYbTbaurJrix85QXLrtlKv3Ftt7u6ASgEh5rdhV_EQz6R_9ZTmT95ZKly6Q4bdn8rEvDF80XJtkaPucIsnvsBFlMOgmrTe-wcV6I6Ep9Ckbid2pAT20lqDbRq0MiF6X8qV9T3fbf8NGPBjCWK3pH38NHB21tEZd8tJITpXBPWoWXUltMoNz_eaQYWlrbPwGjQg2_vMXIg4osnAB8Ag5qKN8P6Ap9scHh3DoxtoWRdEuMwyZY4An1lUWKxdFxD79qMorEM3gn8f299YM1ft2ObwuhhkC8k5ixczTDrQkcylZNilKTHj-A9ZIzDxZra87a-q49tFu6ean7yu6C7pB9zzY5HWaCQF4jPD4Ang4XTlx85p-maUeqR6IbF6qBxHe2h2QD4knY5NpiURGPEPGsuTp1p3uiyJ2ngeiChKxbrxX6jzKpAhHdZZH77p75o8CxltrmbbzwSAGZ_Xiul6XvtapJc7eFEPZw5qZeXFYlUEyPlX12__P2LQB_x07rOYRWG-0Sqxz_ZNUoG0-yYcL3fi1j-mqFGMTg9Tt1rrH9WaMHUz5-DNYqy8NbRsNaIut8c8fjiBJ6iv2saFuqBxTLBzTTLjjU-Hvq0qVUjUIKFm1]--></g></svg>