<svg xmlns="http://www.w3.org/2000/svg" xmlns:xlink="http://www.w3.org/1999/xlink" contentStyleType="text/css" data-diagram-type="SEQUENCE" height="558px" preserveAspectRatio="none" style="width:960px;height:558px;background:#FFFFFF;" version="1.1" viewBox="0 0 960 558" width="960px" zoomAndPan="magnify"><defs/><g><rect fill="#D9E8C8" height="546.8203" style="stroke:#181818;stroke-width:0.5;" width="321.3486" x="399.2742" y="6"/><text fill="#000000" font-family="sans-serif" font-size="13" font-weight="bold" lengthAdjust="spacing" textLength="169.9648" x="472.7031" y="18.0669">SCP / User Agent proxy</text><g><title>..SCU..</title><rect fill="#000000" fill-opacity="0.00000" height="490.3906" width="8" x="133.4595" y="56.4297"/><line style="stroke:#181818;stroke-width:0.5;stroke-dasharray:5,5;" x1="136.9595" x2="136.9595" y1="56.4297" y2="546.8203"/></g><g><title/><rect fill="#FFFFFF" height="482.3906" style="stroke:#181818;stroke-width:1;" width="10" x="131.9595" y="64.4297"/></g><g><title>SCP</title><rect fill="#000000" fill-opacity="0.00000" height="490.3906" width="8" x="449.1196" y="56.4297"/><line style="stroke:#181818;stroke-width:0.5;stroke-dasharray:5,5;" x1="452.6196" x2="452.6196" y1="56.4297" y2="546.8203"/></g><g><title/><rect fill="#FFFFFF" height="443.2578" style="stroke:#181818;stroke-width:1;" width="10" x="447.6196" y="85.5625"/></g><g><title>User Agent</title><rect fill="#000000" fill-opacity="0.00000" height="490.3906" width="8" x="638.4297" y="56.4297"/><line style="stroke:#181818;stroke-width:0.5;stroke-dasharray:5,5;" x1="641.9297" x2="641.9297" y1="56.4297" y2="546.8203"/></g><g><title/><rect fill="#FFFFFF" height="117.6641" style="stroke:#181818;stroke-width:1;" width="10" x="636.9297" y="323.7578"/></g><g><title>..Origin Server..</title><rect fill="#000000" fill-opacity="0.00000" height="490.3906" width="8" x="891.3052" y="56.4297"/><line style="stroke:#181818;stroke-width:0.5;stroke-dasharray:5,5;" x1="894.8052" x2="894.8052" y1="56.4297" y2="546.8203"/></g><g><title/><rect fill="#FFFFFF" height="29.1328" style="stroke:#181818;stroke-width:1;" width="10" x="889.8052" y="383.1563"/></g><rect fill="#A2C777" height="30.2969" rx="2.5" ry="2.5" style="stroke:#181818;stroke-width:0.5;" width="45.7256" x="114.0967" y="25.1328"/><text fill="#000000" font-family="sans-serif" font-size="14" font-weight="bold" lengthAdjust="spacing" textLength="31.7256" x="121.0967" y="45.1279">SCU</text><rect fill="#A2C777" height="30.2969" rx="2.5" ry="2.5" style="stroke:#181818;stroke-width:0.5;" width="41.1045" x="432.0674" y="25.1328"/><text fill="#000000" font-family="sans-serif" font-size="14" lengthAdjust="spacing" textLength="27.1045" x="439.0674" y="45.1279">SCP</text><rect fill="#A2C777" height="30.2969" rx="2.5" ry="2.5" style="stroke:#181818;stroke-width:0.5;" width="91.7998" x="596.0298" y="25.1328"/><text fill="#000000" font-family="sans-serif" font-size="14" lengthAdjust="spacing" textLength="77.7998" x="603.0298" y="45.1279">User Agent</text><rect fill="#A2C777" height="30.2969" rx="2.5" ry="2.5" style="stroke:#181818;stroke-width:0.5;" width="119.2734" x="835.1685" y="25.1328"/><text fill="#000000" font-family="sans-serif" font-size="14" font-weight="bold" lengthAdjust="spacing" textLength="105.2734" x="842.1685" y="45.1279">Origin Server</text><polygon fill="#181818" points="435.6196,81.5625,445.6196,85.5625,435.6196,89.5625" style="stroke:#181818;stroke-width:1;"/><line style="stroke:#181818;stroke-width:1;" x1="141.9595" x2="441.6196" y1="85.5625" y2="85.5625"/><text fill="#000000" font-family="sans-serif" font-size="13" lengthAdjust="spacing" textLength="286.6602" x="148.9595" y="80.4966">A-ASSOCIATE-RQ( 1.2.840.10008.3.1.2.3.3 )</text><polygon fill="#181818" points="152.9595,110.6953,142.9595,114.6953,152.9595,118.6953" style="stroke:#181818;stroke-width:1;"/><line style="stroke:#181818;stroke-width:1;stroke-dasharray:2,2;" x1="146.9595" x2="446.6196" y1="114.6953" y2="114.6953"/><text fill="#000000" font-family="sans-serif" font-size="13" lengthAdjust="spacing" textLength="109.8335" x="158.9595" y="109.6294">A-ASSOCIATE-AC</text><line style="stroke:#181818;stroke-width:1;" x1="141.9595" x2="183.9595" y1="143.8281" y2="143.8281"/><line style="stroke:#181818;stroke-width:1;" x1="183.9595" x2="183.9595" y1="143.8281" y2="156.8281"/><line style="stroke:#181818;stroke-width:1;" x1="142.9595" x2="183.9595" y1="156.8281" y2="156.8281"/><polygon fill="#181818" points="152.9595,152.8281,142.9595,156.8281,152.9595,160.8281" style="stroke:#181818;stroke-width:1;"/><text fill="#000000" font-family="sans-serif" font-size="13" lengthAdjust="spacing" textLength="155.0479" x="148.9595" y="138.7622">perform procedure step</text><polygon fill="#181818" points="435.6196,197.0938,445.6196,201.0938,435.6196,205.0938" style="stroke:#181818;stroke-width:1;"/><line style="stroke:#181818;stroke-width:1;" x1="141.9595" x2="441.6196" y1="201.0938" y2="201.0938"/><text fill="#000000" font-family="sans-serif" font-size="13" lengthAdjust="spacing" textLength="67.8501" x="148.9595" y="180.895">N-SET-RQ(</text><text fill="#000000" font-family="sans-serif" font-size="13" font-style="italic" lengthAdjust="spacing" textLength="63.1973" x="220.9419" y="180.895">MPPS-UID</text><text fill="#000000" font-family="sans-serif" font-size="13" lengthAdjust="spacing" textLength="4.1323" x="284.1392" y="180.895">,</text><text fill="#000000" font-family="sans-serif" font-size="13" font-style="italic" lengthAdjust="spacing" textLength="127.5054" x="292.4038" y="180.895">Modality Performed</text><text fill="#000000" font-family="sans-serif" font-size="13" font-style="italic" lengthAdjust="spacing" textLength="179.4609" x="148.9595" y="196.0278">Procedure Step Information</text><text fill="#000000" font-family="sans-serif" font-size="13" lengthAdjust="spacing" textLength="5.0718" x="332.5527" y="196.0278">)</text><path d="M10,169.8281 L10,209.8281 L131,209.8281 L131,179.8281 L121,169.8281 L10,169.8281" fill="#ECF4E4" style="stroke:#181818;stroke-width:0.5;"/><path d="M121,169.8281 L121,179.8281 L131,179.8281 L121,169.8281" fill="#ECF4E4" style="stroke:#181818;stroke-width:0.5;"/><text fill="#000000" font-family="sans-serif" font-size="13" lengthAdjust="spacing" textLength="99.8613" x="16" y="186.895">[PS3.4, F.7.2.2]</text><text fill="#000000" font-family="sans-serif" font-size="13" lengthAdjust="spacing" textLength="100.9595" x="16" y="202.0278">Set Information</text><line style="stroke:#181818;stroke-width:1;" x1="457.6196" x2="499.6196" y1="266.4922" y2="266.4922"/><line style="stroke:#181818;stroke-width:1;" x1="499.6196" x2="499.6196" y1="266.4922" y2="279.4922"/><line style="stroke:#181818;stroke-width:1;" x1="458.6196" x2="499.6196" y1="279.4922" y2="279.4922"/><polygon fill="#181818" points="468.6196,275.4922,458.6196,279.4922,468.6196,283.4922" style="stroke:#181818;stroke-width:1;"/><text fill="#000000" font-family="sans-serif" font-size="13" lengthAdjust="spacing" textLength="112.3154" x="464.6196" y="231.1606">convert DIMSE to</text><text fill="#000000" font-family="sans-serif" font-size="13" lengthAdjust="spacing" textLength="150.7886" x="464.6196" y="246.2935">DICOMweb parameters</text><text fill="#000000" font-family="sans-serif" font-size="13" lengthAdjust="spacing" textLength="80.2852" x="464.6196" y="261.4263">and payload</text><polygon fill="#181818" points="624.9297,319.7578,634.9297,323.7578,624.9297,327.7578" style="stroke:#181818;stroke-width:1;"/><line style="stroke:#181818;stroke-width:1;" x1="457.6196" x2="630.9297" y1="323.7578" y2="323.7578"/><text fill="#000000" font-family="sans-serif" font-size="13" lengthAdjust="spacing" textLength="157.1807" x="464.6196" y="303.5591">perform Update request</text><text fill="#000000" font-family="sans-serif" font-size="13" lengthAdjust="spacing" textLength="160.3101" x="464.6196" y="318.6919">using DIMSE parameters</text><polygon fill="#181818" points="877.8052,379.1563,887.8052,383.1563,877.8052,387.1563" style="stroke:#181818;stroke-width:1;"/><line style="stroke:#181818;stroke-width:1;" x1="646.9297" x2="883.8052" y1="383.1563" y2="383.1563"/><text fill="#000000" font-family="sans-serif" font-size="13" lengthAdjust="spacing" textLength="215.0205" x="653.9297" y="347.8247">HTTP POST /modality-performed-</text><text fill="#000000" font-family="sans-serif" font-size="13" lengthAdjust="spacing" textLength="106.1138" x="653.9297" y="362.9575">procedure-steps</text><text fill="#000000" font-family="sans-serif" font-size="13" font-style="italic" lengthAdjust="spacing" textLength="67.5771" x="760.0435" y="362.9575">/MPPS-UID</text><text fill="#000000" font-family="sans-serif" font-size="13" lengthAdjust="spacing" textLength="50.1846" x="827.6206" y="362.9575">/update</text><text fill="#000000" font-family="sans-serif" font-size="13" font-style="italic" lengthAdjust="spacing" textLength="51.6953" x="653.9297" y="378.0903">payload</text><path d="M523.5396,336.7578 L523.5396,376.7578 L636.5396,376.7578 L636.5396,346.7578 L626.5396,336.7578 L523.5396,336.7578" fill="#ECF4E4" style="stroke:#181818;stroke-width:0.5;"/><path d="M626.5396,336.7578 L626.5396,346.7578 L636.5396,346.7578 L626.5396,336.7578" fill="#ECF4E4" style="stroke:#181818;stroke-width:0.5;"/><text fill="#000000" font-family="sans-serif" font-size="13" lengthAdjust="spacing" textLength="92.3901" x="529.5396" y="353.8247">[PS3.18, 15.5]</text><text fill="#000000" font-family="sans-serif" font-size="13" lengthAdjust="spacing" textLength="47.0806" x="529.5396" y="368.9575">Update</text><polygon fill="#181818" points="657.9297,408.2891,647.9297,412.2891,657.9297,416.2891" style="stroke:#181818;stroke-width:1;"/><line style="stroke:#181818;stroke-width:1;stroke-dasharray:2,2;" x1="651.9297" x2="888.8052" y1="412.2891" y2="412.2891"/><text fill="#000000" font-family="sans-serif" font-size="13" lengthAdjust="spacing" textLength="57.8462" x="663.9297" y="407.2231">200 (OK)</text><polygon fill="#181818" points="468.6196,437.4219,458.6196,441.4219,468.6196,445.4219" style="stroke:#181818;stroke-width:1;"/><line style="stroke:#181818;stroke-width:1;stroke-dasharray:2,2;" x1="462.6196" x2="635.9297" y1="441.4219" y2="441.4219"/><text fill="#000000" font-family="sans-serif" font-size="13" lengthAdjust="spacing" textLength="18.7573" x="474.6196" y="436.356">OK</text><polygon fill="#181818" points="152.9595,466.5547,142.9595,470.5547,152.9595,474.5547" style="stroke:#181818;stroke-width:1;"/><line style="stroke:#181818;stroke-width:1;stroke-dasharray:2,2;" x1="146.9595" x2="446.6196" y1="470.5547" y2="470.5547"/><text fill="#000000" font-family="sans-serif" font-size="13" lengthAdjust="spacing" textLength="186.6147" x="158.9595" y="465.4888">N-SET-RSP: 0000H (Success)</text><polygon fill="#181818" points="435.6196,495.6875,445.6196,499.6875,435.6196,503.6875" style="stroke:#181818;stroke-width:1;"/><line style="stroke:#181818;stroke-width:1;" x1="141.9595" x2="441.6196" y1="499.6875" y2="499.6875"/><text fill="#000000" font-family="sans-serif" font-size="13" lengthAdjust="spacing" textLength="95.6021" x="148.9595" y="494.6216">A-RELEASE-RQ</text><polygon fill="#181818" points="152.9595,524.8203,142.9595,528.8203,152.9595,532.8203" style="stroke:#181818;stroke-width:1;"/><line style="stroke:#181818;stroke-width:1;stroke-dasharray:2,2;" x1="146.9595" x2="446.6196" y1="528.8203" y2="528.8203"/><text fill="#000000" font-family="sans-serif" font-size="13" lengthAdjust="spacing" textLength="101.4609" x="158.9595" y="523.7544">A-RELEASE-RSP</text><!--SRC=[TP9DZzem48Rl-HNJvGA8nE5Z1KLLfGYe5crft3KvDJruau561JjrdEtINr-R3KcWwiMoDUDdtdbdtkMAxuySDCe_e5M9Jl4p4pbN_0Y5FXtGd2fBT7ayE3-o564dfNwMhuvZSdIMP3aN6kxwVRQ8-lqxu0MO6tJuA9bEfux9D6yA1A825GHxDDcvagydwAJlSPRC780haickABIctAGqg7Dc5DI9A5AmucwqXIhRPm8OgXTKbSgGrRySdkZiXMkqqXqht_rewyyXS0F6miKwsAxSfwzT67eZRpRnlQ7l-pDlxDdts1j3husWPyG7r_sN4ImQV3I77DLEggCr9C6qLDPipAyKV77PQdkkJSY6KkP6woKX0_kIAJza-WJqZO8f8R4WXDOmPc2m5ZR8TIPDp0WLqeWyu4v31vFT12Tp-4RPs9iCu9CtDVsCliU2eMv_TEmmBeeIAOoB6fRh3Lk1bh5OhXVXvZS-mtbjKACgOi7DA79-EaYUNhv7GTDobAVMBOM_IYnqBCeY4_kAsM0QMwF0CNCsa93DuM6xfK13jWLoh5nmyuiBRYngFrthPq7Qrf7oNDawLSaZf2aJilyQD9mDO7ZltHjxtiHRGNRALj78zw4RFlQS5DiisxXDiPs7Z-sWwUTgIwevCtCrk-K_G9ULIO95qRjPoAVLvrN0x3hUhbaTORHToKJ_0W00]--></g></svg>