<?xml version="1.0" encoding="UTF-8"?>
<svg version="1.1" id="Layer_1" xmlns="http://www.w3.org/2000/svg" xmlns:xlink="http://www.w3.org/1999/xlink" x="0px" y="0px"
	 viewBox="0 0 652 252" enable-background="new 0 0 652 252" xml:space="preserve">
    
<defs>
	<style type="text/css">
	text {
	  font-family: Helvetica, Verdana, ArialUnicodeMS, san-serif
	}
	</style>
</defs>

<g>
   <desc>
	PS 3.3 : Information Object Definitions
   </desc>
</g>


  
  <g>
    <g id="Layer_1">
      <g>
        <rect x="1" y="1" width="650" height="250" fill="#f2ecc0"/>
        <g>
          <rect x="168.3" y="16" width="315.401" height="220" fill="#d2dce5"/>
          <g>
            <text transform="translate(229.637 70.215)" fill="#231f20" font-size="10"><tspan x="0" y="0">Center of top pixel in column</tspan><tspan x="0" y="12">(Height Map value equals 0.5)</tspan></text>
            <text transform="translate(229.637 35.67)" fill="#231f20" font-size="10"><tspan x="0" y="0">Top center of top pixel in column</tspan><tspan x="0" y="12">(Height Map value equals 0.0)</tspan></text>
            <text transform="translate(229.637 104.76)" fill="#231f20" font-size="10"><tspan x="0" y="0">Bottom center of top pixel in column</tspan><tspan x="0" y="12">(Height Map value equals 1.0)</tspan></text>
            <rect x="185.018" y="59.409" width="15" height="150" fill="#7ba0c4" stroke="#000001" stroke-miterlimit="10"/>
            <rect x="185.018" y="59.409" width="15" height="15" fill="#8aca8b" stroke="#000001" stroke-miterlimit="10"/>
            <rect x="185.018" y="194.409" width="15" height="15" fill="#8aca8b" stroke="#000001" stroke-miterlimit="10"/>
            <rect x="191.468" y="59.459" width="2" height="2" fill="#60bd68" stroke="#000001" stroke-miterlimit="10"/>
            <rect x="191.468" y="72.409" width="2" height="2" fill="#60bd68" stroke="#000001" stroke-miterlimit="10"/>
            <rect x="191.518" y="207.409" width="2" height="2" fill="#60bd68" stroke="#000001" stroke-miterlimit="10"/>
            <rect x="191.468" y="65.934" width="2" height="2" fill="#60bd68" stroke="#000001" stroke-miterlimit="10"/>
            <line x1="227.126" y1="66.934" x2="192.469" y2="66.934" fill="none" stroke="#231f20" stroke-linecap="round" stroke-miterlimit="10" stroke-width=".5"/>
            <text transform="translate(229.637 211.659)" fill="#231f20" font-size="10"><tspan x="0" y="0">Bottom Center of last pixel in column</tspan><tspan x="0" y="12">(Height Map value equals # of rows in Derivation image)</tspan></text>
            <line x1="227.126" y1="208.378" x2="192.469" y2="208.378" fill="none" stroke="#231f20" stroke-linecap="round" stroke-miterlimit="10" stroke-width=".5"/>
            <polyline points="227.126 33.053 214.875 33.053 192.469 60.553" fill="none" stroke="#231f20" stroke-linecap="round" stroke-miterlimit="10" stroke-width=".5"/>
            <polyline points="227.126 101.815 214.875 101.815 192.469 73.315" fill="none" stroke="#231f20" stroke-linecap="round" stroke-miterlimit="10" stroke-width=".5"/>
          </g>
        </g>
      </g>
    </g>
  </g>
</svg>