<svg xmlns="http://www.w3.org/2000/svg" xmlns:xlink="http://www.w3.org/1999/xlink" contentStyleType="text/css" data-diagram-type="SEQUENCE" height="558px" preserveAspectRatio="none" style="width:964px;height:558px;background:#FFFFFF;" version="1.1" viewBox="0 0 964 558" width="964px" zoomAndPan="magnify"><defs/><g><rect fill="#D9E8C8" height="546.8203" style="stroke:#181818;stroke-width:0.5;" width="343.54" x="398.176" y="6"/><text fill="#000000" font-family="sans-serif" font-size="13" font-weight="bold" lengthAdjust="spacing" textLength="169.9648" x="482.7007" y="18.0669">SCP / User Agent proxy</text><g><title>..SCU..</title><rect fill="#000000" fill-opacity="0.00000" height="490.3906" width="8" x="132.3613" y="56.4297"/><line style="stroke:#181818;stroke-width:0.5;stroke-dasharray:5,5;" x1="135.8613" x2="135.8613" y1="56.4297" y2="546.8203"/></g><g><title/><rect fill="#FFFFFF" height="482.3906" style="stroke:#181818;stroke-width:1;" width="10" x="130.8613" y="64.4297"/></g><g><title>SCP</title><rect fill="#000000" fill-opacity="0.00000" height="490.3906" width="8" x="448.0215" y="56.4297"/><line style="stroke:#181818;stroke-width:0.5;stroke-dasharray:5,5;" x1="451.5215" x2="451.5215" y1="56.4297" y2="546.8203"/></g><g><title/><rect fill="#FFFFFF" height="443.2578" style="stroke:#181818;stroke-width:1;" width="10" x="446.5215" y="85.5625"/></g><g><title>User Agent</title><rect fill="#000000" fill-opacity="0.00000" height="490.3906" width="8" x="659.5229" y="56.4297"/><line style="stroke:#181818;stroke-width:0.5;stroke-dasharray:5,5;" x1="663.0229" x2="663.0229" y1="56.4297" y2="546.8203"/></g><g><title/><rect fill="#FFFFFF" height="117.6641" style="stroke:#181818;stroke-width:1;" width="10" x="658.0229" y="266.4922"/></g><g><title>..Origin Server..</title><rect fill="#000000" fill-opacity="0.00000" height="490.3906" width="8" x="895.5073" y="56.4297"/><line style="stroke:#181818;stroke-width:0.5;stroke-dasharray:5,5;" x1="899.0073" x2="899.0073" y1="56.4297" y2="546.8203"/></g><g><title/><rect fill="#FFFFFF" height="29.1328" style="stroke:#181818;stroke-width:1;" width="10" x="894.0073" y="325.8906"/></g><rect fill="#A2C777" height="30.2969" rx="2.5" ry="2.5" style="stroke:#181818;stroke-width:0.5;" width="45.7256" x="112.9985" y="25.1328"/><text fill="#000000" font-family="sans-serif" font-size="14" font-weight="bold" lengthAdjust="spacing" textLength="31.7256" x="119.9985" y="45.1279">SCU</text><rect fill="#A2C777" height="30.2969" rx="2.5" ry="2.5" style="stroke:#181818;stroke-width:0.5;" width="41.1045" x="430.9692" y="25.1328"/><text fill="#000000" font-family="sans-serif" font-size="14" lengthAdjust="spacing" textLength="27.1045" x="437.9692" y="45.1279">SCP</text><rect fill="#A2C777" height="30.2969" rx="2.5" ry="2.5" style="stroke:#181818;stroke-width:0.5;" width="91.7998" x="617.123" y="25.1328"/><text fill="#000000" font-family="sans-serif" font-size="14" lengthAdjust="spacing" textLength="77.7998" x="624.123" y="45.1279">User Agent</text><rect fill="#A2C777" height="30.2969" rx="2.5" ry="2.5" style="stroke:#181818;stroke-width:0.5;" width="119.2734" x="839.3706" y="25.1328"/><text fill="#000000" font-family="sans-serif" font-size="14" font-weight="bold" lengthAdjust="spacing" textLength="105.2734" x="846.3706" y="45.1279">Origin Server</text><polygon fill="#181818" points="434.5215,81.5625,444.5215,85.5625,434.5215,89.5625" style="stroke:#181818;stroke-width:1;"/><line style="stroke:#181818;stroke-width:1;" x1="140.8613" x2="440.5215" y1="85.5625" y2="85.5625"/><text fill="#000000" font-family="sans-serif" font-size="13" lengthAdjust="spacing" textLength="286.6602" x="147.8613" y="80.4966">A-ASSOCIATE-RQ( 1.2.840.10008.3.1.2.3.3 )</text><polygon fill="#181818" points="151.8613,110.6953,141.8613,114.6953,151.8613,118.6953" style="stroke:#181818;stroke-width:1;"/><line style="stroke:#181818;stroke-width:1;stroke-dasharray:2,2;" x1="145.8613" x2="445.5215" y1="114.6953" y2="114.6953"/><text fill="#000000" font-family="sans-serif" font-size="13" lengthAdjust="spacing" textLength="109.8335" x="157.8613" y="109.6294">A-ASSOCIATE-AC</text><polygon fill="#181818" points="434.5215,154.9609,444.5215,158.9609,434.5215,162.9609" style="stroke:#181818;stroke-width:1;"/><line style="stroke:#181818;stroke-width:1;" x1="140.8613" x2="440.5215" y1="158.9609" y2="158.9609"/><text fill="#000000" font-family="sans-serif" font-size="13" lengthAdjust="spacing" textLength="260.2031" x="147.8613" y="138.7622">N-CREATE-RQ( 1.2.840.10008.3.1.2.3.3,</text><text fill="#000000" font-family="sans-serif" font-size="13" font-style="italic" lengthAdjust="spacing" textLength="63.1973" x="147.8613" y="153.895">MPPS-UID</text><text fill="#000000" font-family="sans-serif" font-size="13" lengthAdjust="spacing" textLength="29.8657" x="211.0586" y="153.895">, ... )</text><path d="M10,127.6953 L10,167.6953 L130,167.6953 L130,137.6953 L120,127.6953 L10,127.6953" fill="#ECF4E4" style="stroke:#181818;stroke-width:0.5;"/><path d="M120,127.6953 L120,137.6953 L130,137.6953 L120,127.6953" fill="#ECF4E4" style="stroke:#181818;stroke-width:0.5;"/><text fill="#000000" font-family="sans-serif" font-size="13" lengthAdjust="spacing" textLength="99.8613" x="16" y="144.7622">[PS3.4, F.8.2.1]</text><text fill="#000000" font-family="sans-serif" font-size="13" lengthAdjust="spacing" textLength="54.7739" x="16" y="159.895">Retrieve</text><line style="stroke:#181818;stroke-width:1;" x1="456.5215" x2="498.5215" y1="209.2266" y2="209.2266"/><line style="stroke:#181818;stroke-width:1;" x1="498.5215" x2="498.5215" y1="209.2266" y2="222.2266"/><line style="stroke:#181818;stroke-width:1;" x1="457.5215" x2="498.5215" y1="222.2266" y2="222.2266"/><polygon fill="#181818" points="467.5215,218.2266,457.5215,222.2266,467.5215,226.2266" style="stroke:#181818;stroke-width:1;"/><text fill="#000000" font-family="sans-serif" font-size="13" lengthAdjust="spacing" textLength="112.3154" x="463.5215" y="189.0278">convert DIMSE to</text><text fill="#000000" font-family="sans-serif" font-size="13" lengthAdjust="spacing" textLength="150.7886" x="463.5215" y="204.1606">DICOMweb parameters</text><polygon fill="#181818" points="646.0229,262.4922,656.0229,266.4922,646.0229,270.4922" style="stroke:#181818;stroke-width:1;"/><line style="stroke:#181818;stroke-width:1;" x1="456.5215" x2="652.0229" y1="266.4922" y2="266.4922"/><text fill="#000000" font-family="sans-serif" font-size="13" lengthAdjust="spacing" textLength="153.5815" x="463.5215" y="246.2935">perform Create request</text><text fill="#000000" font-family="sans-serif" font-size="13" lengthAdjust="spacing" textLength="182.5015" x="463.5215" y="261.4263">with DICOMweb parameters</text><polygon fill="#181818" points="882.0073,321.8906,892.0073,325.8906,882.0073,329.8906" style="stroke:#181818;stroke-width:1;"/><line style="stroke:#181818;stroke-width:1;" x1="668.0229" x2="888.0073" y1="325.8906" y2="325.8906"/><text fill="#000000" font-family="sans-serif" font-size="13" lengthAdjust="spacing" textLength="206.9844" x="675.0229" y="290.5591">HTTP GET /modality-performed-</text><text fill="#000000" font-family="sans-serif" font-size="13" lengthAdjust="spacing" textLength="106.1138" x="675.0229" y="305.6919">procedure-steps</text><text fill="#000000" font-family="sans-serif" font-size="13" font-style="italic" lengthAdjust="spacing" textLength="67.5771" x="781.1367" y="305.6919">/MPPS-UID</text><text fill="#000000" font-family="sans-serif" font-size="13" lengthAdjust="spacing" textLength="6.8999" x="848.7139" y="305.6919">?</text><text fill="#000000" font-family="sans-serif" font-size="13" font-style="italic" lengthAdjust="spacing" textLength="75.1499" x="675.0229" y="320.8247">includefield</text><path d="M544.6328,279.4922 L544.6328,319.4922 L657.6328,319.4922 L657.6328,289.4922 L647.6328,279.4922 L544.6328,279.4922" fill="#ECF4E4" style="stroke:#181818;stroke-width:0.5;"/><path d="M647.6328,279.4922 L647.6328,289.4922 L657.6328,289.4922 L647.6328,279.4922" fill="#ECF4E4" style="stroke:#181818;stroke-width:0.5;"/><text fill="#000000" font-family="sans-serif" font-size="13" lengthAdjust="spacing" textLength="92.3901" x="550.6328" y="296.5591">[PS3.18, 15.6]</text><text fill="#000000" font-family="sans-serif" font-size="13" lengthAdjust="spacing" textLength="54.7739" x="550.6328" y="311.6919">Retrieve</text><polygon fill="#181818" points="679.0229,351.0234,669.0229,355.0234,679.0229,359.0234" style="stroke:#181818;stroke-width:1;"/><line style="stroke:#181818;stroke-width:1;stroke-dasharray:2,2;" x1="673.0229" x2="893.0073" y1="355.0234" y2="355.0234"/><text fill="#000000" font-family="sans-serif" font-size="13" lengthAdjust="spacing" textLength="62.2261" x="685.0229" y="349.9575">200 (OK):</text><text fill="#000000" font-family="sans-serif" font-size="13" font-style="italic" lengthAdjust="spacing" textLength="51.6953" x="751.3813" y="349.9575">payload</text><polygon fill="#181818" points="467.5215,380.1563,457.5215,384.1563,467.5215,388.1563" style="stroke:#181818;stroke-width:1;"/><line style="stroke:#181818;stroke-width:1;stroke-dasharray:2,2;" x1="461.5215" x2="657.0229" y1="384.1563" y2="384.1563"/><text fill="#000000" font-family="sans-serif" font-size="13" lengthAdjust="spacing" textLength="23.1372" x="473.5215" y="379.0903">OK:</text><text fill="#000000" font-family="sans-serif" font-size="13" font-style="italic" lengthAdjust="spacing" textLength="51.6953" x="500.791" y="379.0903">payload</text><line style="stroke:#181818;stroke-width:1;" x1="456.5215" x2="498.5215" y1="428.4219" y2="428.4219"/><line style="stroke:#181818;stroke-width:1;" x1="498.5215" x2="498.5215" y1="428.4219" y2="441.4219"/><line style="stroke:#181818;stroke-width:1;" x1="457.5215" x2="498.5215" y1="441.4219" y2="441.4219"/><polygon fill="#181818" points="467.5215,437.4219,457.5215,441.4219,467.5215,445.4219" style="stroke:#181818;stroke-width:1;"/><text fill="#000000" font-family="sans-serif" font-size="13" lengthAdjust="spacing" textLength="122.4844" x="463.5215" y="408.2231">convert payload to</text><text fill="#000000" font-family="sans-serif" font-size="13" lengthAdjust="spacing" textLength="94.8086" x="463.5215" y="423.356">DIMSE dataset</text><polygon fill="#181818" points="151.8613,466.5547,141.8613,470.5547,151.8613,474.5547" style="stroke:#181818;stroke-width:1;"/><line style="stroke:#181818;stroke-width:1;stroke-dasharray:2,2;" x1="145.8613" x2="445.5215" y1="470.5547" y2="470.5547"/><text fill="#000000" font-family="sans-serif" font-size="13" lengthAdjust="spacing" textLength="217.9595" x="157.8613" y="465.4888">N-CREATE-RSP: 0000H (Success):</text><text fill="#000000" font-family="sans-serif" font-size="13" font-style="italic" lengthAdjust="spacing" textLength="49.1499" x="379.9531" y="465.4888">dataset</text><polygon fill="#181818" points="434.5215,495.6875,444.5215,499.6875,434.5215,503.6875" style="stroke:#181818;stroke-width:1;"/><line style="stroke:#181818;stroke-width:1;" x1="140.8613" x2="440.5215" y1="499.6875" y2="499.6875"/><text fill="#000000" font-family="sans-serif" font-size="13" lengthAdjust="spacing" textLength="95.6021" x="147.8613" y="494.6216">A-RELEASE-RQ</text><polygon fill="#181818" points="151.8613,524.8203,141.8613,528.8203,151.8613,532.8203" style="stroke:#181818;stroke-width:1;"/><line style="stroke:#181818;stroke-width:1;stroke-dasharray:2,2;" x1="145.8613" x2="445.5215" y1="528.8203" y2="528.8203"/><text fill="#000000" font-family="sans-serif" font-size="13" lengthAdjust="spacing" textLength="101.4609" x="157.8613" y="523.7544">A-RELEASE-RSP</text><!--SRC=[XLB1Sjem4BtxAxRXGXWicq2BosJIyHYtOL9g5-5JwK6n5wAfaHrP9g5VNuaIC3IPNZpUqTktRz- -TwLagpK3XSLlKB96g_h5HSaaMqEbjZdgh-IfgjUvzS0pX6LHgFlYsR8qHl6KbqmekEXqQ91qEXV0Aj1_q69NwN0uj3HIrp4ua5GemL-XHfUoUDv2A_k8NkfP02TC6hrdYGyiPv0ZrGwP-0SWYWoCk3DjaUGhBe2YtA3SgupeeSjYgU8Rfj18juny-yRC7u5l-vH6mSIVX_RiUnjwv8fu0vVqNDVrI9-Oka_wSDcaY7SKrxRzBuSVdD1_iuDP-1_kxa8upZIEgPrCnexJ1KA8dYSAFIl7fO8Mfii13aRm8wPzCkZ2P-BfrjxFXPYXlXrkq39clWnD2w5TK32UJ6a8gbY8yII8fazu3xkpeq9PlNGa_WXAbCj2hY6GQ1QK-5XZfHRYYQi7UAttu4NYM_eucYQY8xYTpsFu4ix1MHSPoxdQsdjcpEo5qA58CQibsfN2idAQItyo7d2HvdM6IuvvvZZ78H5zquoUruNUU_AXQOKMP4vZ55svBhIZkyiHNFERactpWcLMXarcOuE16n-YkxU0Ui_N7DuZznuRjpEcM8NgD237551TwUkxjz2cTPfYLVtLrcmxHdCMVWrzQi9p7hZ32usRClNh7m00]--></g></svg>