<svg xmlns="http://www.w3.org/2000/svg" xmlns:xlink="http://www.w3.org/1999/xlink" contentStyleType="text/css" data-diagram-type="SEQUENCE" height="558px" preserveAspectRatio="none" style="width:923px;height:558px;background:#FFFFFF;" version="1.1" viewBox="0 0 923 558" width="923px" zoomAndPan="magnify"><defs/><g><rect fill="#D9E8C8" height="546.8203" style="stroke:#181818;stroke-width:0.5;" width="332.7588" x="296.3423" y="6"/><text fill="#000000" font-family="sans-serif" font-size="13" font-weight="bold" lengthAdjust="spacing" textLength="187.0464" x="366.9355" y="18.0669">Origin Server / SCU proxy</text><g><title>User Agent</title><rect fill="#000000" fill-opacity="0.00000" height="490.3906" width="8" x="124.8901" y="56.4297"/><line style="stroke:#181818;stroke-width:0.5;stroke-dasharray:5,5;" x1="128.3901" x2="128.3901" y1="56.4297" y2="546.8203"/></g><g><title/><rect fill="#FFFFFF" height="482.3906" style="stroke:#181818;stroke-width:1;" width="10" x="123.3901" y="64.4297"/></g><g><title>..Origin Server..</title><rect fill="#000000" fill-opacity="0.00000" height="490.3906" width="8" x="377.7656" y="56.4297"/><line style="stroke:#181818;stroke-width:0.5;stroke-dasharray:5,5;" x1="381.2656" x2="381.2656" y1="56.4297" y2="546.8203"/></g><g><title/><rect fill="#FFFFFF" height="370.8594" style="stroke:#181818;stroke-width:1;" width="10" x="376.2656" y="157.9609"/></g><g><title>..SCU..</title><rect fill="#000000" fill-opacity="0.00000" height="490.3906" width="8" x="577.4517" y="56.4297"/><line style="stroke:#181818;stroke-width:0.5;stroke-dasharray:5,5;" x1="580.9517" x2="580.9517" y1="56.4297" y2="546.8203"/></g><g><title/><rect fill="#FFFFFF" height="225.0625" style="stroke:#181818;stroke-width:1;" width="10" x="575.9517" y="274.625"/></g><g><title>SCP</title><rect fill="#000000" fill-opacity="0.00000" height="490.3906" width="8" x="893.1118" y="56.4297"/><line style="stroke:#181818;stroke-width:0.5;stroke-dasharray:5,5;" x1="896.6118" x2="896.6118" y1="56.4297" y2="546.8203"/></g><g><title/><rect fill="#FFFFFF" height="166.7969" style="stroke:#181818;stroke-width:1;" width="10" x="891.6118" y="303.7578"/></g><rect fill="#A2C777" height="30.2969" rx="2.5" ry="2.5" style="stroke:#181818;stroke-width:0.5;" width="91.7998" x="82.4902" y="25.1328"/><text fill="#000000" font-family="sans-serif" font-size="14" lengthAdjust="spacing" textLength="77.7998" x="89.4902" y="45.1279">User Agent</text><rect fill="#A2C777" height="30.2969" rx="2.5" ry="2.5" style="stroke:#181818;stroke-width:0.5;" width="119.2734" x="321.6289" y="25.1328"/><text fill="#000000" font-family="sans-serif" font-size="14" font-weight="bold" lengthAdjust="spacing" textLength="105.2734" x="328.6289" y="45.1279">Origin Server</text><rect fill="#A2C777" height="30.2969" rx="2.5" ry="2.5" style="stroke:#181818;stroke-width:0.5;" width="45.7256" x="558.0889" y="25.1328"/><text fill="#000000" font-family="sans-serif" font-size="14" font-weight="bold" lengthAdjust="spacing" textLength="31.7256" x="565.0889" y="45.1279">SCU</text><rect fill="#A2C777" height="30.2969" rx="2.5" ry="2.5" style="stroke:#181818;stroke-width:0.5;" width="41.1045" x="876.0596" y="25.1328"/><text fill="#000000" font-family="sans-serif" font-size="14" lengthAdjust="spacing" textLength="27.1045" x="883.0596" y="45.1279">SCP</text><line style="stroke:#181818;stroke-width:1;" x1="133.3901" x2="175.3901" y1="85.5625" y2="85.5625"/><line style="stroke:#181818;stroke-width:1;" x1="175.3901" x2="175.3901" y1="85.5625" y2="98.5625"/><line style="stroke:#181818;stroke-width:1;" x1="134.3901" x2="175.3901" y1="98.5625" y2="98.5625"/><polygon fill="#181818" points="144.3901,94.5625,134.3901,98.5625,144.3901,102.5625" style="stroke:#181818;stroke-width:1;"/><text fill="#000000" font-family="sans-serif" font-size="13" lengthAdjust="spacing" textLength="155.0479" x="140.3901" y="80.4966">perform procedure step</text><polygon fill="#181818" points="364.2656,153.9609,374.2656,157.9609,364.2656,161.9609" style="stroke:#181818;stroke-width:1;"/><line style="stroke:#181818;stroke-width:1;" x1="133.3901" x2="370.2656" y1="157.9609" y2="157.9609"/><text fill="#000000" font-family="sans-serif" font-size="13" lengthAdjust="spacing" textLength="215.0205" x="140.3901" y="122.6294">HTTP POST /modality-performed-</text><text fill="#000000" font-family="sans-serif" font-size="13" lengthAdjust="spacing" textLength="106.1138" x="140.3901" y="137.7622">procedure-steps</text><text fill="#000000" font-family="sans-serif" font-size="13" font-style="italic" lengthAdjust="spacing" textLength="67.5771" x="246.5039" y="137.7622">/MPPS-UID</text><text fill="#000000" font-family="sans-serif" font-size="13" lengthAdjust="spacing" textLength="50.1846" x="314.0811" y="137.7622">/update</text><text fill="#000000" font-family="sans-serif" font-size="13" font-style="italic" lengthAdjust="spacing" textLength="51.6953" x="140.3901" y="152.895">payload</text><path d="M10,111.5625 L10,151.5625 L123,151.5625 L123,121.5625 L113,111.5625 L10,111.5625" fill="#ECF4E4" style="stroke:#181818;stroke-width:0.5;"/><path d="M113,111.5625 L113,121.5625 L123,121.5625 L113,111.5625" fill="#ECF4E4" style="stroke:#181818;stroke-width:0.5;"/><text fill="#000000" font-family="sans-serif" font-size="13" lengthAdjust="spacing" textLength="92.3901" x="16" y="128.6294">[PS3.18, 15.5]</text><text fill="#000000" font-family="sans-serif" font-size="13" lengthAdjust="spacing" textLength="47.0806" x="16" y="143.7622">Update</text><line style="stroke:#181818;stroke-width:1;" x1="386.2656" x2="428.2656" y1="217.3594" y2="217.3594"/><line style="stroke:#181818;stroke-width:1;" x1="428.2656" x2="428.2656" y1="217.3594" y2="230.3594"/><line style="stroke:#181818;stroke-width:1;" x1="387.2656" x2="428.2656" y1="230.3594" y2="230.3594"/><polygon fill="#181818" points="397.2656,226.3594,387.2656,230.3594,397.2656,234.3594" style="stroke:#181818;stroke-width:1;"/><text fill="#000000" font-family="sans-serif" font-size="13" lengthAdjust="spacing" textLength="180.686" x="393.2656" y="182.0278">convert DICOMweb payload</text><text fill="#000000" font-family="sans-serif" font-size="13" lengthAdjust="spacing" textLength="166.8354" x="393.2656" y="197.1606">and parameters to DIMSE</text><text fill="#000000" font-family="sans-serif" font-size="13" lengthAdjust="spacing" textLength="75.4038" x="393.2656" y="212.2935">parameters</text><polygon fill="#181818" points="563.9517,270.625,573.9517,274.625,563.9517,278.625" style="stroke:#181818;stroke-width:1;"/><line style="stroke:#181818;stroke-width:1;" x1="386.2656" x2="569.9517" y1="274.625" y2="274.625"/><text fill="#000000" font-family="sans-serif" font-size="13" lengthAdjust="spacing" textLength="157.1807" x="393.2656" y="254.4263">perform Update request</text><text fill="#000000" font-family="sans-serif" font-size="13" lengthAdjust="spacing" textLength="160.3101" x="393.2656" y="269.5591">using DIMSE parameters</text><polygon fill="#181818" points="879.6118,299.7578,889.6118,303.7578,879.6118,307.7578" style="stroke:#181818;stroke-width:1;"/><line style="stroke:#181818;stroke-width:1;" x1="585.9517" x2="885.6118" y1="303.7578" y2="303.7578"/><text fill="#000000" font-family="sans-serif" font-size="13" lengthAdjust="spacing" textLength="286.6602" x="592.9517" y="298.6919">A-ASSOCIATE-RQ( 1.2.840.10008.3.1.2.3.3 )</text><polygon fill="#181818" points="596.9517,328.8906,586.9517,332.8906,596.9517,336.8906" style="stroke:#181818;stroke-width:1;"/><line style="stroke:#181818;stroke-width:1;stroke-dasharray:2,2;" x1="590.9517" x2="890.6118" y1="332.8906" y2="332.8906"/><text fill="#000000" font-family="sans-serif" font-size="13" lengthAdjust="spacing" textLength="109.8335" x="602.9517" y="327.8247">A-ASSOCIATE-AC</text><polygon fill="#181818" points="879.6118,373.1563,889.6118,377.1563,879.6118,381.1563" style="stroke:#181818;stroke-width:1;"/><line style="stroke:#181818;stroke-width:1;" x1="585.9517" x2="885.6118" y1="377.1563" y2="377.1563"/><text fill="#000000" font-family="sans-serif" font-size="13" lengthAdjust="spacing" textLength="67.8501" x="592.9517" y="356.9575">N-SET-RQ(</text><text fill="#000000" font-family="sans-serif" font-size="13" font-style="italic" lengthAdjust="spacing" textLength="63.1973" x="664.9341" y="356.9575">MPPS-UID</text><text fill="#000000" font-family="sans-serif" font-size="13" lengthAdjust="spacing" textLength="4.1323" x="728.1313" y="356.9575">,</text><text fill="#000000" font-family="sans-serif" font-size="13" font-style="italic" lengthAdjust="spacing" textLength="127.5054" x="736.396" y="356.9575">Modality Performed</text><text fill="#000000" font-family="sans-serif" font-size="13" font-style="italic" lengthAdjust="spacing" textLength="179.4609" x="592.9517" y="372.0903">Procedure Step Information</text><text fill="#000000" font-family="sans-serif" font-size="13" lengthAdjust="spacing" textLength="5.0718" x="776.5449" y="372.0903">)</text><path d="M453.9922,345.8906 L453.9922,385.8906 L574.9922,385.8906 L574.9922,355.8906 L564.9922,345.8906 L453.9922,345.8906" fill="#ECF4E4" style="stroke:#181818;stroke-width:0.5;"/><path d="M564.9922,345.8906 L564.9922,355.8906 L574.9922,355.8906 L564.9922,345.8906" fill="#ECF4E4" style="stroke:#181818;stroke-width:0.5;"/><text fill="#000000" font-family="sans-serif" font-size="13" lengthAdjust="spacing" textLength="99.8613" x="459.9922" y="362.9575">[PS3.4, F.7.2.2]</text><text fill="#000000" font-family="sans-serif" font-size="13" lengthAdjust="spacing" textLength="100.9595" x="459.9922" y="378.0903">Set Information</text><polygon fill="#181818" points="596.9517,408.2891,586.9517,412.2891,596.9517,416.2891" style="stroke:#181818;stroke-width:1;"/><line style="stroke:#181818;stroke-width:1;stroke-dasharray:2,2;" x1="590.9517" x2="890.6118" y1="412.2891" y2="412.2891"/><text fill="#000000" font-family="sans-serif" font-size="13" lengthAdjust="spacing" textLength="186.6147" x="602.9517" y="407.2231">N-SET-RSP: 0000H (Success)</text><polygon fill="#181818" points="879.6118,437.4219,889.6118,441.4219,879.6118,445.4219" style="stroke:#181818;stroke-width:1;"/><line style="stroke:#181818;stroke-width:1;" x1="585.9517" x2="885.6118" y1="441.4219" y2="441.4219"/><text fill="#000000" font-family="sans-serif" font-size="13" lengthAdjust="spacing" textLength="95.6021" x="592.9517" y="436.356">A-RELEASE-RQ</text><polygon fill="#181818" points="596.9517,466.5547,586.9517,470.5547,596.9517,474.5547" style="stroke:#181818;stroke-width:1;"/><line style="stroke:#181818;stroke-width:1;stroke-dasharray:2,2;" x1="590.9517" x2="890.6118" y1="470.5547" y2="470.5547"/><text fill="#000000" font-family="sans-serif" font-size="13" lengthAdjust="spacing" textLength="101.4609" x="602.9517" y="465.4888">A-RELEASE-RSP</text><polygon fill="#181818" points="397.2656,495.6875,387.2656,499.6875,397.2656,503.6875" style="stroke:#181818;stroke-width:1;"/><line style="stroke:#181818;stroke-width:1;stroke-dasharray:2,2;" x1="391.2656" x2="574.9517" y1="499.6875" y2="499.6875"/><text fill="#000000" font-family="sans-serif" font-size="13" lengthAdjust="spacing" textLength="18.7573" x="403.2656" y="494.6216">OK</text><polygon fill="#181818" points="144.3901,524.8203,134.3901,528.8203,144.3901,532.8203" style="stroke:#181818;stroke-width:1;"/><line style="stroke:#181818;stroke-width:1;stroke-dasharray:2,2;" x1="138.3901" x2="375.2656" y1="528.8203" y2="528.8203"/><text fill="#000000" font-family="sans-serif" font-size="13" lengthAdjust="spacing" textLength="57.8462" x="150.3901" y="523.7544">200 (OK)</text><!--SRC=[TL9DSzem4BtxLsp3XJ3uWuyCbEbqnaFeX4cfrGYVwXuKUw6UWkJASXBwwxio3k1aUh4bxTkdj-_fGw75TY_0eFeBHbVebBzpMGWjzb2Qmmxfg_FKLFkTyolF43PAcKVruZY4CNcQ5q8Qk8fBr11kKPeh42N48NJ4C9rC9WvX8TBvDfV0KJyHp0S-Zw7GwkK0dUmZJjEf0z2Yw_LQBRrUpHhn4-ixF54sA4l-2aEPWHNR0lCvQu3i17H4Ql8dOP2aEwJU_KoB6HIeDqhlhTWKiqfRDx1e016VmTrwpO15V0t-NcLYbvk3spHXvYRorEZQnjBt_HLZt8sNjxIiYenkJAJl5-AmKoBp_REEY3jIqN-76mCTJ3TZ7C_W1-CZRp3jm-36k_cPoBYcSCYPHb2g91bcu7OvZrRF-0WDTI85UL7dYWPr2KOHPiKNYJmVDZpau7dqumsWyK-5fKbaLUPoUsoze3lhfcR7Hb3pi1c4RiXvD5-6wuNxyBqB0s_eJSU1DmY2OEhHCBGVUIEulgHWDSKdrttF4SvRzDzSlbZNn9VMzkskoGFOQnw-RxrcfomvHG9BQOl2v8fgfE9_fe_xyCMRaDWXsSxHN3QsrJQIE2rfnk0EkhnAKopBwpV6F2o-Ba9kRNaxxgd2cPDXonYAw0YaZABxTZMsBzDMxKiO1W5qe_lhIqZ4_m40]--></g></svg>